<svg width="221" height="216" viewBox="0 0 221 216" fill="none" xmlns="http://www.w3.org/2000/svg">
<path d="M102.576 68.3784C101.259 80.4598 108.945 91.4731 119.73 92.9358C130.487 94.3986 140.285 85.7691 141.603 73.6877C142.9 61.5986 135.221 50.6008 124.463 49.1458C113.672 47.683 103.881 56.2893 102.576 68.3784Z" fill="black"/>
<path d="M99.4231 149.039C99.4921 132.755 88.4175 125.209 80.9654 124.08L79.5233 123.963C75.4109 123.979 70.5532 123.994 65.6404 124.01C69.9184 117.888 78.3848 106.433 79.0886 105.18C80.7239 107.95 82.7319 110.644 85.2021 113.105C91.1568 119.072 98.602 122.655 107.469 123.871C112.292 124.528 127.989 122.872 131.784 122.06C136.069 121.03 138.374 119.08 139.906 116.526C141.928 112.161 141.734 107.223 141.734 107.223C141.417 98.4618 134.151 95.4976 128.086 97.0764C119.033 99.3673 106.875 100.76 100.327 94.2902C97.5601 91.5736 96.0559 87.6962 95.2555 84.0122C97.7395 77.6735 97.4083 70.0733 93.7375 63.8508C88.0035 54.1377 76.9358 52.6131 67.6621 57.8914C58.4643 63.1388 35.1835 93.4466 29.2701 115.775C29.2563 115.767 29.2356 115.767 29.2218 115.767C29.1804 116.007 29.1321 116.247 29.0907 116.495C28.4697 118.971 28.0695 121.363 27.9384 123.584C27.3381 128.011 27.0138 132.175 27.0138 135.874L27.2139 135.921C27.2277 142.205 31.6161 147.453 37.288 147.801C40.5448 148.002 69.0628 147.925 78.0398 147.909C78.0674 148.08 78.1226 148.405 78.1226 148.962C78.0812 158.156 78.1295 191.622 78.1502 207.14C78.1502 211.551 81.3449 215.057 85.2849 215.057H92.3437C94.2205 215.057 96.0421 214.268 97.3807 212.774C98.7124 211.273 99.4714 209.268 99.4645 207.132C99.4369 191.607 99.3817 158.203 99.4231 149.039Z" fill="black"/>
<path d="M21.3419 47.7991C21.3419 41.1896 16.5602 35.8416 10.6675 35.8416C4.77485 35.8416 0 41.1896 0 47.7991V167.351C0 173.512 4.20214 178.596 9.5566 179.231C9.5635 179.254 9.6118 179.316 9.6118 179.316H13.4482V207.202C13.4482 211.598 16.5395 215.166 20.4656 215.166C24.3987 215.166 27.483 211.598 27.483 207.202V179.316H49.991V207.202C49.991 211.598 53.0822 215.166 57.0084 215.166C60.9276 215.166 64.0189 211.598 64.0189 207.202V179.316H71.0362V155.386H21.3557V47.7991H21.3419Z" fill="#1E1E1E"/>
<path d="M213.316 127.322C211.694 117.919 206.326 110.001 199.033 105.644V98.0207H209.252V45.516L170.37 29.9518V22.2975H156.356V102.285H170.37V98.0207H177.698V103.539C168.058 106.968 160.792 116.046 158.84 127.191H113.748C109.822 127.191 106.641 130.991 106.641 135.402C106.641 139.798 109.822 143.614 113.748 143.614H128.01V215.39H206.347V143.614H213.233C217.145 143.614 220.34 139.884 220.34 135.472C220.34 131.068 217.214 127.377 213.316 127.322Z" fill="black" fill-opacity="0.53"/>
<path d="M66.3373 30.8187H50.267V30.54L66.0475 4.8217V0H41.5039V6.88815H56.1114V7.20547L40.0411 33.2489V38.0319H66.3373V30.8187Z" fill="white"/>
<path d="M91.4742 31.136H81.2483V31.1437L91.4742 14.7437V11.4777H75.6938V16.0594H85.0434V16.2684L74.8175 32.8851V35.7332H91.4742V31.136Z" fill="black"/>
<path d="M109.891 37.374H102.873V37.2347L109.891 25.8963V23.6054H99.0781V26.887H105.502V26.9412L98.2018 38.4266V40.315H109.891V37.374Z" fill="white"/>
</svg>
