<svg id="svg" version="1.1" xmlns="http://www.w3.org/2000/svg" xmlns:xlink="http://www.w3.org/1999/xlink" width="400" height="400" viewBox="0, 0, 400,400"><g id="svgg"><path id="path0" d="M65.185 225.000 L 65.185 240.370 80.556 240.370 L 95.926 240.370 95.926 225.000 L 95.926 209.630 80.556 209.630 L 65.185 209.630 65.185 225.000 " stroke="none" fill="#04fc04" fill-rule="evenodd"></path><path id="path1" d="M67.303 162.511 C 64.603 165.239,64.282 164.478,70.926 171.111 L 76.667 176.843 70.926 182.592 C 64.279 189.250,64.607 188.469,67.303 191.193 C 70.013 193.932,69.299 194.230,75.926 187.592 L 81.658 181.852 87.407 187.592 C 94.058 194.234,93.324 193.927,96.030 191.193 C 98.730 188.464,99.051 189.226,92.407 182.592 L 86.666 176.861 92.407 171.111 C 99.049 164.460,98.742 165.194,96.008 162.488 C 93.279 159.788,94.041 159.467,87.407 166.111 L 81.675 171.852 75.926 166.111 C 69.275 159.470,70.009 159.776,67.303 162.511 M218.003 172.438 C 217.879 172.760,217.778 179.927,217.778 188.364 L 217.778 203.704 221.442 203.704 C 224.042 203.704,225.152 203.569,225.264 203.241 C 225.397 202.853,225.364 172.965,225.230 172.130 C 225.132 171.524,218.241 171.818,218.003 172.438 M159.630 217.056 C 154.389 217.959,153.457 225.554,158.358 227.417 C 161.354 228.556,169.777 226.983,170.869 225.082 C 173.986 219.650,168.269 215.568,159.630 217.056 M329.210 217.044 C 324.747 217.798,323.121 221.472,325.552 225.306 C 326.994 227.579,327.729 227.815,332.513 227.544 C 338.422 227.208,341.105 225.638,341.110 222.513 C 341.116 218.131,336.186 215.865,329.210 217.044 M166.963 222.025 C 167.510 222.572,165.917 222.952,163.056 222.957 C 160.601 222.962,160.000 222.855,160.000 222.414 C 160.000 221.291,165.899 220.961,166.963 222.025 M336.202 222.005 C 336.720 222.523,335.649 222.786,332.528 222.909 C 329.442 223.029,329.200 222.988,329.321 222.353 C 329.521 221.297,335.207 221.009,336.202 222.005 " stroke="none" fill="#f72404" fill-rule="evenodd"></path><path id="path2" d="M175.432 172.099 C 175.296 172.235,175.185 173.725,175.185 175.410 L 175.185 178.474 176.574 178.589 L 177.963 178.704 177.963 185.926 L 177.963 193.148 176.667 193.333 L 175.370 193.519 175.263 196.574 L 175.155 199.630 182.578 199.630 L 190.000 199.630 190.000 196.503 L 190.000 193.376 188.426 193.262 C 186.855 193.148,186.852 193.145,186.852 191.667 L 186.852 190.185 190.093 190.078 L 193.333 189.971 193.333 186.550 L 193.333 183.130 190.093 183.139 L 186.852 183.148 186.742 181.050 L 186.632 178.951 189.334 178.816 C 192.430 178.661,192.876 178.863,193.034 180.491 C 193.148 181.665,193.151 181.667,195.544 181.779 C 199.821 181.980,199.630 182.220,199.630 176.660 L 199.630 171.852 187.654 171.852 C 181.068 171.852,175.568 171.963,175.432 172.099 M243.951 172.099 C 243.587 172.462,243.661 177.507,244.039 178.104 C 244.245 178.430,244.782 178.553,245.523 178.444 C 247.057 178.219,247.086 178.377,246.957 186.296 L 246.852 192.778 245.370 192.963 L 243.889 193.148 243.782 196.389 L 243.675 199.630 250.912 199.630 L 258.148 199.630 258.148 196.296 L 258.148 192.963 256.852 192.963 L 255.556 192.963 255.556 189.780 L 255.556 186.597 256.759 188.083 C 257.421 188.901,259.630 191.838,261.667 194.610 L 265.370 199.650 269.074 199.547 L 272.778 199.444 272.876 189.198 L 272.975 178.952 274.450 178.703 L 275.926 178.453 275.926 175.144 L 275.926 171.836 268.981 171.936 L 262.037 172.037 261.835 175.000 C 261.578 178.779,261.655 178.993,263.201 178.812 L 264.444 178.667 264.444 181.786 C 264.444 185.308,264.159 185.384,262.242 182.374 C 261.712 181.541,260.495 179.874,259.537 178.670 C 258.580 177.466,257.043 175.440,256.121 174.167 L 254.446 171.852 249.322 171.852 C 246.503 171.852,244.086 171.963,243.951 172.099 " stroke="none" fill="#fcfcfc" fill-rule="evenodd"></path><path id="path3" d="M118.765 209.267 C 107.654 213.191,104.177 227.570,112.269 236.126 C 120.170 244.480,134.388 242.094,139.370 231.577 C 145.395 218.857,132.167 204.533,118.765 209.267 M173.078 211.510 C 170.814 212.960,170.499 214.810,171.324 221.797 C 171.504 223.319,171.406 224.060,170.904 224.992 C 169.012 228.507,174.114 231.512,178.822 229.656 C 180.341 229.057,180.718 229.022,181.151 229.438 C 181.957 230.214,184.330 230.722,185.535 230.376 C 186.257 230.169,187.139 230.249,188.212 230.619 C 189.134 230.937,190.363 231.081,191.110 230.958 C 191.824 230.841,193.074 230.661,193.889 230.557 C 195.790 230.315,204.124 230.207,206.296 230.396 C 207.355 230.488,208.391 230.323,209.135 229.944 C 210.080 229.463,210.626 229.420,211.955 229.725 C 214.029 230.199,215.804 229.872,217.195 228.759 L 218.279 227.891 219.973 229.038 C 221.752 230.243,224.490 230.525,226.625 229.723 C 227.269 229.481,227.871 229.578,228.847 230.082 C 229.809 230.579,230.550 230.702,231.481 230.520 C 233.402 230.145,239.666 230.115,240.798 230.476 C 241.395 230.666,242.394 230.623,243.345 230.367 C 244.458 230.067,245.024 230.061,245.306 230.343 C 245.821 230.858,248.721 230.857,249.685 230.341 C 250.223 230.053,250.922 230.058,252.181 230.361 C 253.420 230.658,254.606 230.671,256.245 230.407 C 257.656 230.180,258.905 230.165,259.441 230.369 C 259.944 230.560,260.794 230.567,261.429 230.385 C 262.189 230.167,263.040 230.242,264.139 230.623 C 267.080 231.642,270.549 230.310,271.627 227.748 L 272.066 226.703 273.029 227.910 C 275.259 230.704,282.222 230.096,282.222 227.107 C 282.222 225.695,284.631 226.077,286.312 227.755 C 288.765 230.205,290.759 230.655,298.538 230.514 C 305.377 230.391,305.542 230.390,308.241 230.462 C 309.310 230.491,310.720 230.281,311.374 229.996 C 312.423 229.540,312.720 229.553,313.887 230.110 C 319.201 232.644,327.654 228.930,325.385 225.058 C 323.837 222.417,324.301 219.425,326.481 217.997 C 327.620 217.251,327.484 216.307,326.008 214.731 C 324.250 212.852,320.183 212.526,316.157 213.940 C 314.251 214.610,312.946 214.576,311.881 213.831 C 311.326 213.442,310.039 213.168,308.373 213.085 C 306.925 213.013,304.887 212.853,303.844 212.730 C 302.621 212.587,301.857 212.654,301.693 212.920 C 301.274 213.598,300.453 213.398,298.830 212.222 C 297.143 211.000,293.526 210.628,292.526 211.574 C 292.257 211.829,291.204 212.444,290.185 212.941 C 289.167 213.438,287.447 214.730,286.365 215.812 C 284.015 218.158,284.296 218.115,283.155 216.307 C 281.448 213.602,278.961 213.037,275.741 214.621 C 274.722 215.122,273.686 215.538,273.439 215.544 C 273.191 215.550,272.420 216.055,271.724 216.666 L 270.460 217.776 270.005 216.679 C 269.025 214.313,265.506 212.284,263.213 212.762 C 262.566 212.896,261.704 213.000,261.296 212.993 C 259.704 212.963,246.729 212.969,244.630 213.001 C 241.047 213.056,239.451 212.749,237.927 211.714 C 236.166 210.517,234.073 210.427,232.589 211.484 C 231.770 212.067,231.343 212.151,230.612 211.873 C 230.098 211.678,229.211 211.650,228.636 211.812 C 227.974 211.998,227.186 211.929,226.481 211.625 C 223.342 210.268,219.413 212.124,218.686 215.309 C 218.454 216.325,218.430 216.335,217.927 215.617 C 216.918 214.176,214.929 213.259,213.050 213.368 C 212.085 213.424,210.546 213.254,209.630 212.989 C 208.485 212.658,207.666 212.618,207.014 212.862 C 206.493 213.057,205.733 213.093,205.326 212.943 C 204.919 212.792,203.013 212.733,201.090 212.810 C 196.618 212.991,197.065 212.997,195.502 212.741 C 194.609 212.595,193.712 212.730,192.850 213.139 C 191.658 213.704,191.452 213.707,190.422 213.175 C 188.850 212.362,187.420 212.448,185.494 213.472 C 183.858 214.341,183.831 214.343,182.878 213.649 C 179.593 211.256,175.029 210.260,173.078 211.510 M236.296 217.218 C 236.296 218.554,233.619 224.052,232.423 225.173 C 231.364 226.165,230.551 225.985,229.810 224.593 C 228.703 222.515,228.547 222.372,228.056 222.991 C 223.536 228.684,220.156 225.105,222.872 217.500 C 223.993 214.360,225.515 215.878,224.486 219.110 C 223.445 222.377,223.291 223.263,223.716 223.526 C 224.241 223.850,226.607 221.315,227.963 218.976 C 229.802 215.802,231.558 216.189,230.540 219.544 C 229.698 222.318,230.019 223.375,231.469 222.599 C 232.222 222.196,232.681 221.349,234.620 216.780 C 235.355 215.047,236.296 215.293,236.296 217.218 M178.908 216.684 C 183.376 218.937,183.764 222.143,179.815 224.166 C 174.969 226.648,173.964 226.208,175.370 222.223 C 175.722 221.227,175.873 219.788,175.783 218.306 C 175.593 215.190,175.766 215.100,178.908 216.684 M296.348 216.158 C 297.279 217.001,296.640 218.050,295.009 218.356 C 294.305 218.488,293.537 218.829,293.301 219.113 C 293.065 219.397,292.657 219.630,292.395 219.630 C 291.702 219.630,289.945 221.846,290.079 222.549 C 290.223 223.297,292.283 224.026,294.330 224.053 C 296.077 224.077,296.656 224.614,295.827 225.443 C 294.819 226.451,291.843 226.104,289.929 224.756 C 288.085 223.458,288.352 218.519,290.265 218.519 C 290.527 218.519,290.741 218.348,290.741 218.139 C 290.741 217.930,291.116 217.588,291.574 217.378 C 292.032 217.168,292.991 216.680,293.704 216.294 C 295.314 215.421,295.522 215.410,296.348 216.158 M189.762 218.676 C 190.943 220.478,190.166 222.355,188.115 222.655 C 186.119 222.948,187.360 224.358,190.000 224.797 C 190.802 224.930,191.296 225.222,191.296 225.562 C 191.296 226.474,189.546 226.390,187.659 225.387 C 185.523 224.251,185.302 224.234,185.000 225.185 C 184.703 226.122,184.216 226.137,183.975 225.217 C 183.709 224.200,184.873 219.630,185.397 219.630 C 185.640 219.630,186.284 219.045,186.828 218.331 C 187.934 216.882,188.641 216.965,189.762 218.676 M195.113 220.111 C 194.924 220.478,194.671 221.937,194.553 223.352 C 194.408 225.079,194.182 225.926,193.865 225.926 C 192.716 225.926,192.802 220.716,193.992 218.181 L 194.586 216.917 195.022 218.181 C 195.303 218.997,195.336 219.681,195.113 220.111 M253.328 217.588 C 253.838 218.049,254.265 218.069,255.980 217.709 C 258.028 217.280,259.259 217.434,259.259 218.122 C 259.259 218.464,257.905 218.932,255.437 219.441 C 254.115 219.714,254.330 220.514,255.769 220.681 C 258.455 220.992,257.907 222.593,255.114 222.593 C 254.339 222.593,253.704 222.746,253.704 222.933 C 253.704 223.120,253.593 223.561,253.458 223.914 C 253.235 224.494,253.447 224.537,255.684 224.357 C 258.319 224.146,259.151 224.548,257.928 225.441 C 257.456 225.787,256.437 225.920,254.824 225.848 C 251.823 225.714,251.273 224.867,252.515 222.296 C 253.448 220.364,252.973 218.329,251.671 218.679 C 251.261 218.789,250.669 218.881,250.354 218.884 C 249.544 218.891,247.265 223.780,247.499 225.007 C 247.640 225.743,247.544 225.936,247.082 225.848 C 246.174 225.676,246.140 223.854,247.009 221.836 C 248.045 219.426,248.002 219.259,246.336 219.259 C 245.340 219.259,244.822 219.071,244.661 218.651 C 244.361 217.869,244.161 217.946,247.593 217.520 C 251.980 216.975,252.659 216.983,253.328 217.588 M265.093 217.757 C 265.551 218.139,265.926 218.636,265.926 218.861 C 265.926 219.085,266.134 219.611,266.389 220.028 C 266.921 220.901,265.395 222.593,264.075 222.593 C 262.028 222.593,263.296 224.268,265.648 224.671 C 266.931 224.891,267.502 225.707,266.838 226.372 C 266.572 226.638,263.897 225.699,262.717 224.926 C 261.808 224.331,261.748 224.341,261.095 225.207 C 260.189 226.407,259.813 225.529,260.170 223.051 C 260.568 220.295,260.786 219.630,261.292 219.630 C 261.552 219.630,262.209 219.046,262.753 218.333 C 263.890 216.842,263.972 216.822,265.093 217.757 M176.852 220.366 C 176.852 223.704,176.846 223.699,179.444 222.254 C 182.107 220.774,181.904 219.040,178.964 218.156 C 178.413 217.990,177.713 217.752,177.407 217.627 C 176.941 217.436,176.852 217.874,176.852 220.366 M200.874 220.754 C 200.670 222.948,200.721 223.333,201.213 223.333 C 202.003 223.333,203.333 221.084,203.333 219.749 C 203.333 219.150,203.550 218.363,203.816 218.000 C 204.582 216.953,205.416 218.145,204.891 219.537 C 204.679 220.097,204.417 221.196,204.308 221.979 C 204.199 222.762,203.655 223.999,203.098 224.728 L 202.087 226.053 200.912 224.693 C 199.451 223.003,199.060 222.993,198.468 224.630 C 197.911 226.170,197.542 226.256,196.962 224.984 C 196.336 223.608,199.423 217.271,200.452 217.821 C 201.028 218.130,201.083 218.509,200.874 220.754 M209.162 217.710 C 209.522 217.938,209.526 218.253,209.179 219.172 C 208.514 220.934,208.999 220.968,211.301 219.320 C 213.256 217.920,214.445 217.666,214.444 218.651 C 214.443 218.884,213.599 219.649,212.568 220.352 C 209.695 222.311,209.951 223.704,213.184 223.704 C 215.056 223.704,215.440 224.099,214.445 224.999 C 213.620 225.746,212.007 225.329,210.494 223.979 C 209.481 223.075,208.511 223.360,207.652 224.814 C 206.035 227.551,205.258 225.347,206.517 221.592 C 207.936 217.357,208.138 217.060,209.162 217.710 M242.012 217.870 C 242.088 218.125,242.353 219.120,242.602 220.082 C 242.912 221.285,243.292 221.906,243.818 222.073 C 244.548 222.305,244.552 222.339,243.912 222.807 C 243.517 223.096,243.333 223.540,243.466 223.886 C 243.740 224.600,242.975 225.926,242.289 225.926 C 241.925 225.926,241.861 225.615,242.049 224.760 C 242.305 223.594,242.305 223.593,240.972 223.810 C 239.958 223.974,239.550 223.877,239.264 223.402 C 238.807 222.641,237.407 224.016,237.407 225.226 C 237.407 226.017,236.474 226.183,236.190 225.443 C 235.944 224.801,237.778 220.522,238.735 219.507 C 240.631 217.494,241.737 216.942,242.012 217.870 M304.412 217.924 C 304.648 218.208,304.801 218.583,304.752 218.757 C 304.703 218.932,305.030 219.887,305.479 220.880 C 306.783 223.764,306.494 224.494,303.566 225.704 C 297.946 228.025,296.252 223.429,301.149 219.145 C 303.273 217.287,303.739 217.113,304.412 217.924 M309.419 217.737 C 309.531 217.918,310.052 218.174,310.576 218.305 C 312.106 218.689,314.074 220.703,314.074 221.884 C 314.074 222.909,311.874 225.185,310.884 225.185 C 310.648 225.185,309.980 225.432,309.399 225.733 C 308.125 226.394,307.427 225.324,308.128 223.785 C 308.343 223.314,308.519 221.686,308.519 220.168 C 308.519 217.689,308.845 216.808,309.419 217.737 M322.407 218.143 C 322.407 218.512,321.644 218.878,320.093 219.253 C 317.601 219.854,316.951 220.733,318.981 220.753 C 320.830 220.771,321.751 221.610,320.532 222.166 C 320.016 222.401,319.136 222.593,318.575 222.593 C 317.465 222.593,316.667 223.182,316.667 224.001 C 316.667 224.408,317.202 224.492,319.134 224.390 C 322.021 224.237,322.702 224.868,320.600 225.746 C 317.241 227.149,313.566 225.262,315.505 223.130 C 316.096 222.480,316.638 220.396,316.274 220.172 C 315.346 219.598,315.994 218.626,317.685 218.055 C 319.877 217.315,322.407 217.362,322.407 218.143 M279.259 219.837 C 279.259 220.932,279.383 221.111,280.140 221.111 C 281.920 221.111,282.057 222.138,280.323 222.481 C 278.960 222.751,278.705 222.954,278.437 223.989 C 278.025 225.578,276.580 225.740,276.745 224.178 C 276.832 223.364,276.675 223.134,275.926 222.975 C 273.881 222.540,273.444 222.018,274.151 220.856 C 274.772 219.834,275.342 219.690,276.856 220.173 C 277.449 220.362,277.690 220.174,278.040 219.245 C 278.586 217.799,279.259 218.125,279.259 219.837 M186.909 219.937 C 186.077 220.856,186.139 221.481,187.061 221.481 C 188.353 221.481,189.212 220.826,188.997 220.005 C 188.754 219.075,187.719 219.041,186.909 219.937 M262.799 220.082 C 262.080 221.108,262.070 221.481,262.760 221.481 C 263.948 221.481,265.097 220.669,264.912 219.961 C 264.663 219.009,263.504 219.075,262.799 220.082 M309.444 221.667 C 309.444 224.347,309.540 224.412,311.667 223.192 C 313.903 221.908,313.809 220.797,311.371 219.718 C 309.587 218.928,309.444 219.072,309.444 221.667 M240.185 220.283 C 239.806 220.562,238.889 222.061,238.889 222.402 C 238.889 222.507,239.472 222.593,240.185 222.593 C 241.216 222.593,241.481 222.447,241.481 221.882 C 241.481 220.365,240.956 219.717,240.185 220.283 M301.218 221.028 C 298.165 223.617,299.298 225.201,303.389 224.065 C 305.075 223.596,305.408 222.790,304.563 221.220 C 303.753 219.717,302.827 219.664,301.218 221.028 M275.069 220.980 C 274.586 221.463,274.817 221.852,275.586 221.852 C 276.017 221.852,276.293 221.658,276.211 221.412 C 276.031 220.871,275.413 220.637,275.069 220.980 " stroke="none" fill="#1c54fc" fill-rule="evenodd"></path><path id="path4" d="M124.176 162.870 C 111.239 185.268,108.148 190.704,108.148 191.060 C 108.148 191.369,112.921 191.481,126.111 191.481 C 135.991 191.481,144.074 191.376,144.074 191.246 C 144.074 190.619,126.424 160.397,126.051 160.385 C 125.814 160.377,124.970 161.495,124.176 162.870 " stroke="none" fill="#fcdc54" fill-rule="evenodd"></path></g></svg>