<svg id="svg" version="1.1" xmlns="http://www.w3.org/2000/svg"
    xmlns:xlink="http://www.w3.org/1999/xlink" width="400" height="400" viewBox="0, 0, 400,400">
    <g id="svgg">
        <path id="path0"
            d="M67.303 162.511 C 64.603 165.239,64.282 164.478,70.926 171.111 L 76.667 176.843 70.926 182.592 C 64.279 189.250,64.607 188.469,67.303 191.193 C 70.013 193.932,69.299 194.230,75.926 187.592 L 81.658 181.852 87.407 187.592 C 94.058 194.234,93.324 193.927,96.030 191.193 C 98.730 188.464,99.051 189.226,92.407 182.592 L 86.666 176.861 92.407 171.111 C 99.049 164.460,98.742 165.194,96.008 162.488 C 93.279 159.788,94.041 159.467,87.407 166.111 L 81.675 171.852 75.926 166.111 C 69.275 159.470,70.009 159.776,67.303 162.511 M124.176 162.870 C 111.239 185.268,108.148 190.704,108.148 191.060 C 108.148 191.369,112.921 191.481,126.111 191.481 C 135.991 191.481,144.074 191.376,144.074 191.246 C 144.074 190.619,126.424 160.397,126.051 160.385 C 125.814 160.377,124.970 161.495,124.176 162.870 M175.432 172.099 C 175.296 172.235,175.185 173.725,175.185 175.410 L 175.185 178.474 176.574 178.589 L 177.963 178.704 177.963 185.926 L 177.963 193.148 176.667 193.333 L 175.370 193.519 175.263 196.574 L 175.155 199.630 182.578 199.630 L 190.000 199.630 190.000 196.503 L 190.000 193.376 188.426 193.262 C 186.855 193.148,186.852 193.145,186.852 191.667 L 186.852 190.185 190.093 190.078 L 193.333 189.971 193.333 186.550 L 193.333 183.130 190.093 183.139 L 186.852 183.148 186.742 181.050 L 186.632 178.951 189.334 178.816 C 192.430 178.661,192.876 178.863,193.034 180.491 C 193.148 181.665,193.151 181.667,195.544 181.779 C 199.821 181.980,199.630 182.220,199.630 176.660 L 199.630 171.852 187.654 171.852 C 181.068 171.852,175.568 171.963,175.432 172.099 M217.898 172.315 C 217.606 172.774,217.426 202.351,217.710 203.241 C 217.814 203.570,218.907 203.704,221.481 203.704 C 224.050 203.704,225.152 203.569,225.264 203.241 C 225.397 202.853,225.364 172.965,225.230 172.130 C 225.150 171.631,218.221 171.806,217.898 172.315 M243.951 172.099 C 243.587 172.462,243.661 177.507,244.039 178.104 C 244.245 178.430,244.782 178.553,245.523 178.444 C 247.057 178.219,247.086 178.377,246.957 186.296 L 246.852 192.778 245.370 192.963 L 243.889 193.148 243.782 196.389 L 243.675 199.630 250.912 199.630 L 258.148 199.630 258.148 196.296 L 258.148 192.963 256.852 192.963 L 255.556 192.963 255.556 189.780 L 255.556 186.597 256.759 188.083 C 257.421 188.901,259.630 191.838,261.667 194.610 L 265.370 199.650 269.074 199.547 L 272.778 199.444 272.876 189.198 L 272.975 178.952 274.450 178.703 L 275.926 178.453 275.926 175.144 L 275.926 171.836 268.981 171.936 L 262.037 172.037 261.835 175.000 C 261.578 178.779,261.655 178.993,263.201 178.812 L 264.444 178.667 264.444 181.786 C 264.444 185.308,264.159 185.384,262.242 182.374 C 261.712 181.541,260.495 179.874,259.537 178.670 C 258.580 177.466,257.043 175.440,256.121 174.167 L 254.446 171.852 249.322 171.852 C 246.503 171.852,244.086 171.963,243.951 172.099 M118.765 209.267 C 107.654 213.191,104.177 227.570,112.269 236.126 C 120.170 244.480,134.388 242.094,139.370 231.577 C 145.395 218.857,132.167 204.533,118.765 209.267 M65.185 225.000 L 65.185 240.370 80.556 240.370 L 95.926 240.370 95.926 225.000 L 95.926 209.630 80.556 209.630 L 65.185 209.630 65.185 225.000 "
            stroke="none" fill="#fcfcfc" fill-rule="evenodd"></path>
        <path id="path1"
            d="M299.494 209.492 C 295.663 210.875,292.679 214.250,291.856 218.131 C 291.595 219.358,291.154 220.551,290.876 220.782 C 290.598 221.013,290.370 221.342,290.370 221.514 C 290.370 221.686,289.703 222.860,288.887 224.122 C 285.589 229.225,285.735 234.077,289.322 238.541 C 291.226 240.911,292.334 241.253,300.787 242.080 C 302.925 242.289,305.581 241.654,307.142 240.561 C 307.838 240.073,308.024 240.167,309.596 241.800 C 313.960 246.335,320.474 246.860,325.596 243.089 C 327.605 241.611,327.960 241.481,330.019 241.481 C 331.275 241.481,332.726 241.240,333.321 240.932 C 334.238 240.458,334.553 240.453,335.618 240.896 C 336.573 241.294,338.984 241.397,346.296 241.353 L 355.741 241.296 357.939 240.185 C 359.148 239.574,361.161 238.066,362.412 236.833 C 364.945 234.338,367.083 233.712,373.148 233.689 C 381.661 233.657,383.632 221.572,375.496 219.294 C 372.975 218.588,363.908 218.880,362.360 219.717 C 361.255 220.314,361.171 220.310,360.556 219.630 C 359.656 218.636,357.194 217.407,356.100 217.407 C 355.362 217.407,355.185 217.221,355.185 216.445 C 355.185 214.220,352.807 211.221,350.408 210.420 C 345.349 208.732,338.947 212.533,338.897 217.253 C 338.877 219.196,333.914 219.068,333.495 217.113 C 331.594 208.255,320.925 206.179,313.349 213.193 L 311.203 215.180 310.980 214.066 C 310.232 210.327,304.026 207.856,299.494 209.492 M170.185 209.490 C 164.980 210.832,161.852 214.045,161.852 218.048 C 161.852 219.497,161.769 219.671,161.204 219.408 C 160.118 218.905,151.090 218.783,149.016 219.243 C 142.713 220.642,140.693 229.807,145.898 233.387 C 147.314 234.361,149.321 234.464,155.926 233.903 L 159.444 233.604 159.321 236.482 C 159.163 240.165,161.117 243.704,163.309 243.704 C 163.526 243.704,163.704 243.859,163.704 244.048 C 163.704 244.596,167.519 245.556,169.687 245.553 C 172.241 245.551,176.934 244.264,177.778 243.335 C 178.984 242.007,183.025 240.580,183.692 241.247 C 184.212 241.768,190.374 241.761,191.268 241.240 C 191.758 240.954,192.306 240.937,193.021 241.187 C 193.600 241.389,195.828 241.462,198.049 241.352 C 200.242 241.243,202.204 241.166,202.407 241.182 C 203.333 241.251,214.567 241.561,217.236 241.591 C 221.276 241.636,223.563 240.498,223.437 238.506 C 223.018 231.894,222.816 230.000,222.530 230.000 C 222.336 230.000,222.340 229.729,222.540 229.352 C 222.730 228.995,223.171 227.287,223.521 225.556 C 224.568 220.374,224.592 220.033,223.929 219.779 C 223.493 219.612,223.333 219.060,223.333 217.718 C 223.333 208.502,207.987 207.203,206.765 216.315 C 206.529 218.075,204.718 218.540,204.314 216.944 C 203.998 215.695,202.124 212.963,201.584 212.963 C 201.324 212.963,201.111 212.803,201.111 212.607 C 201.111 211.989,198.048 211.392,195.880 211.586 C 193.218 211.825,190.613 213.493,189.334 215.779 C 188.870 216.608,185.668 216.123,185.368 215.179 C 185.006 214.037,181.748 211.314,179.444 210.227 C 177.969 209.531,171.900 209.048,170.185 209.490 M198.380 215.417 C 201.737 217.011,201.543 218.982,198.115 218.104 C 196.660 217.731,195.826 217.724,194.178 218.069 C 191.727 218.583,191.627 218.535,192.282 217.158 C 193.245 215.130,196.073 214.323,198.380 215.417 M176.667 216.740 C 184.970 219.793,179.204 238.321,169.951 238.321 C 166.852 238.321,166.419 237.793,167.358 235.159 C 168.709 231.370,170.383 223.937,170.375 221.759 C 170.371 220.667,170.513 220.370,171.037 220.370 C 171.404 220.370,171.904 220.170,172.148 219.926 C 172.983 219.091,171.849 224.846,169.798 231.852 C 169.530 232.769,169.111 234.209,168.868 235.053 C 167.846 238.599,172.736 238.075,175.370 234.356 C 181.978 225.029,178.823 214.025,170.726 218.156 C 169.272 218.898,169.259 218.898,169.259 218.173 C 169.259 217.464,170.672 216.570,172.407 216.180 C 173.278 215.985,175.354 216.258,176.667 216.740 M303.859 216.151 C 305.261 216.689,304.347 218.968,301.584 221.820 C 299.769 223.694,299.747 223.864,300.718 228.501 C 301.534 232.402,301.594 232.514,302.491 231.818 C 303.057 231.380,303.052 231.422,302.451 232.127 C 301.806 232.883,301.798 233.010,302.342 233.841 C 303.162 235.092,301.656 235.614,300.665 234.422 C 300.061 233.696,299.960 233.688,298.352 234.234 C 295.480 235.209,293.349 233.913,293.339 231.185 C 293.331 229.068,293.948 228.000,296.636 225.478 C 298.830 223.418,298.889 223.313,298.889 221.448 C 298.889 219.548,299.972 217.037,300.792 217.037 C 300.991 217.037,300.894 217.407,300.577 217.860 C 299.859 218.884,299.795 221.481,300.487 221.481 C 301.353 221.481,303.426 218.784,303.474 217.596 C 303.516 216.554,303.436 216.485,302.251 216.543 C 301.372 216.586,301.144 216.502,301.510 216.271 C 302.127 215.881,303.034 215.834,303.859 216.151 M325.592 217.076 C 327.418 219.031,326.585 224.074,324.436 224.074 C 323.497 224.074,323.096 223.312,323.774 222.814 C 325.628 221.453,325.308 216.665,323.363 216.668 C 319.404 216.674,315.557 224.080,315.573 231.667 C 315.584 237.217,318.227 238.970,321.953 235.899 C 323.664 234.488,323.726 234.716,322.100 236.440 C 318.266 240.505,313.367 237.745,313.341 231.505 C 313.304 222.314,321.485 212.679,325.592 217.076 M215.716 218.796 C 215.576 219.764,215.305 220.856,215.114 221.224 C 214.154 223.073,212.923 227.778,213.399 227.778 C 213.596 227.778,213.412 228.217,212.990 228.754 C 212.568 229.290,212.221 230.165,212.220 230.698 C 212.217 232.147,211.502 234.444,211.054 234.444 C 210.836 234.444,210.746 234.073,210.853 233.611 C 211.618 230.295,211.620 230.166,210.897 230.748 C 210.512 231.059,210.651 230.720,211.220 229.965 C 211.771 229.233,212.222 228.304,212.222 227.901 C 212.222 227.499,212.451 226.431,212.731 225.529 C 213.353 223.524,214.074 219.733,214.074 218.465 C 214.074 217.348,214.334 217.037,215.270 217.037 C 215.896 217.037,215.944 217.227,215.716 218.796 M347.880 219.761 C 347.808 221.934,347.548 222.782,345.949 226.044 C 343.164 231.725,343.096 234.606,345.775 233.385 C 346.292 233.150,346.623 233.104,346.513 233.282 C 345.504 234.916,342.963 234.371,342.963 232.522 C 342.963 231.739,342.573 231.665,341.868 232.315 C 341.591 232.569,341.850 232.124,342.442 231.325 C 343.265 230.215,343.510 229.494,343.483 228.269 C 343.458 227.156,343.600 226.667,343.946 226.667 C 344.220 226.667,344.444 226.306,344.444 225.866 C 344.444 225.425,344.695 224.217,345.000 223.181 C 345.306 222.144,345.821 220.329,346.144 219.146 C 347.020 215.941,347.995 216.286,347.880 219.761 M197.021 219.834 C 196.513 220.446,195.556 220.555,195.556 220.000 C 195.556 219.796,195.847 219.328,196.204 218.960 C 197.003 218.135,197.760 218.944,197.021 219.834 M186.277 223.495 C 186.598 223.882,186.610 224.228,186.322 224.767 C 185.753 225.830,185.784 225.869,187.290 225.996 C 188.839 226.127,189.536 227.462,188.755 228.804 C 186.419 232.820,186.313 233.704,188.166 233.704 C 188.743 233.704,189.318 233.538,189.443 233.335 C 189.568 233.133,190.037 232.791,190.484 232.576 C 190.981 232.338,190.793 232.630,190.000 233.330 C 188.175 234.940,187.104 235.141,186.253 234.034 C 185.359 232.871,185.369 232.793,186.667 230.684 C 188.285 228.053,188.187 227.037,186.317 227.037 C 184.886 227.037,184.819 227.098,183.090 229.983 C 180.808 233.790,180.633 233.553,182.724 229.489 C 183.628 227.731,184.219 226.201,184.036 226.088 C 183.496 225.754,183.652 224.980,184.471 223.939 C 185.348 222.824,185.657 222.748,186.277 223.495 M355.111 224.519 C 356.288 225.695,354.393 228.679,351.530 230.160 C 350.261 230.816,350.157 231.125,350.796 232.339 C 351.575 233.820,353.295 234.186,354.651 233.160 C 355.558 232.474,356.269 232.422,355.542 233.094 C 353.375 235.100,350.692 234.874,349.528 232.587 C 349.166 231.877,348.711 231.337,348.516 231.387 C 348.321 231.436,348.491 230.936,348.894 230.276 C 349.297 229.615,349.628 228.824,349.629 228.519 C 349.631 227.741,352.217 224.926,353.333 224.486 C 354.559 224.003,354.596 224.003,355.111 224.519 M342.751 225.026 C 343.071 225.347,343.333 225.782,343.333 225.993 C 343.333 226.205,343.010 225.985,342.615 225.504 C 341.623 224.297,340.185 225.089,338.805 227.604 C 336.900 231.076,337.750 234.093,340.325 232.995 L 341.296 232.581 340.422 233.327 C 339.275 234.307,337.961 234.275,337.243 233.251 C 335.072 230.150,340.207 222.482,342.751 225.026 M195.574 226.027 C 195.424 226.694,195.099 227.618,194.851 228.080 C 193.994 229.682,194.133 233.130,195.060 233.262 C 196.520 233.470,200.298 229.460,200.837 227.130 C 201.312 225.073,202.693 224.120,202.313 226.111 C 202.209 226.657,202.308 227.037,202.554 227.037 C 202.784 227.037,202.580 227.662,202.100 228.426 C 201.620 229.190,201.128 230.563,201.007 231.478 C 200.865 232.557,200.501 233.373,199.971 233.802 C 198.887 234.679,198.766 234.460,199.440 232.847 C 200.610 230.046,200.177 229.652,198.204 231.721 C 194.832 235.257,192.949 235.040,193.297 231.156 C 193.360 230.455,193.244 230.325,192.727 230.524 C 192.116 230.758,192.115 230.732,192.706 230.079 C 193.051 229.698,193.333 229.068,193.333 228.678 C 193.333 227.390,194.602 224.818,195.239 224.816 C 195.736 224.815,195.798 225.038,195.574 226.027 M207.248 225.728 C 207.794 226.561,207.796 226.795,207.267 228.413 C 205.698 233.214,206.215 234.679,208.800 232.755 C 210.052 231.823,210.107 231.810,209.374 232.621 C 206.455 235.851,204.327 235.033,205.322 231.064 C 206.454 226.549,206.084 225.265,203.957 226.332 C 203.360 226.631,203.430 226.485,204.224 225.776 C 205.573 224.571,206.481 224.557,207.248 225.728 M218.889 225.861 C 218.889 226.517,218.525 227.243,217.914 227.806 C 217.053 228.600,216.995 228.613,217.417 227.919 C 218.454 226.216,216.652 225.211,215.005 226.574 C 214.574 226.931,214.769 226.681,215.439 226.019 C 217.084 224.392,218.889 224.309,218.889 225.861 M333.337 226.019 C 333.741 226.681,334.072 227.681,334.073 228.241 C 334.074 229.412,334.464 229.506,335.765 228.654 C 336.274 228.320,336.771 228.129,336.870 228.228 C 336.969 228.327,336.297 228.808,335.375 229.297 C 334.175 229.933,333.587 230.528,333.302 231.393 C 332.427 234.043,329.522 235.166,327.945 233.464 C 325.678 231.018,327.984 224.815,331.161 224.815 C 332.391 224.815,332.712 224.992,333.337 226.019 M352.727 225.355 C 351.371 226.304,350.062 230.000,351.081 230.000 C 352.002 230.000,354.491 227.019,354.377 226.052 C 354.233 224.839,353.753 224.636,352.727 225.355 M330.453 225.762 C 328.686 226.999,329.562 229.630,331.741 229.630 C 332.923 229.630,332.963 229.580,332.963 228.124 C 332.963 225.451,332.081 224.621,330.453 225.762 M297.122 226.662 C 294.223 230.336,294.634 233.333,298.037 233.333 C 300.259 233.333,300.285 233.281,299.448 230.522 C 299.145 229.522,298.895 227.995,298.893 227.130 C 298.888 225.263,298.340 225.119,297.122 226.662 M158.148 226.481 C 157.895 226.787,157.291 227.037,156.807 227.037 C 156.297 227.037,155.926 227.256,155.926 227.558 C 155.926 227.912,155.665 228.011,155.112 227.866 C 154.336 227.663,154.332 227.640,155.020 227.371 C 155.460 227.199,154.701 227.079,153.067 227.063 C 150.849 227.041,150.430 226.942,150.607 226.481 C 150.778 226.036,151.594 225.926,154.715 225.926 C 158.134 225.926,158.553 225.994,158.148 226.481 M373.097 226.481 C 372.975 226.798,372.423 227.037,371.812 227.037 C 371.223 227.037,370.741 227.204,370.741 227.407 C 370.741 227.611,370.449 227.775,370.093 227.772 C 369.539 227.767,369.525 227.714,370.000 227.407 C 370.398 227.150,370.003 227.047,368.611 227.043 C 367.132 227.038,366.667 226.904,366.667 226.481 C 366.667 226.029,367.283 225.926,369.988 225.926 C 372.789 225.926,373.277 226.013,373.097 226.481 M229.907 227.530 C 229.755 227.903,229.645 229.153,229.663 230.308 C 229.695 232.286,229.717 232.336,230.053 231.169 C 230.475 229.703,230.345 226.461,229.907 227.530 M370.064 229.714 C 369.622 230.156,369.029 229.842,368.523 228.898 C 368.172 228.241,368.209 228.236,369.294 228.776 C 370.051 229.154,370.309 229.469,370.064 229.714 M154.609 228.947 C 155.349 229.284,155.460 229.484,155.129 229.882 C 154.777 230.307,154.597 230.288,154.021 229.767 C 152.804 228.666,153.097 228.258,154.609 228.947 M217.222 231.842 C 217.222 233.737,218.045 234.247,219.287 233.123 C 219.679 232.768,220.000 232.657,220.000 232.875 C 220.000 233.477,217.467 234.917,216.834 234.674 C 216.001 234.354,215.756 233.353,216.214 232.141 C 216.772 230.661,216.444 229.949,215.332 230.228 C 214.683 230.391,214.444 230.297,214.444 229.880 C 214.444 229.103,216.367 228.903,216.852 229.630 C 217.056 229.935,217.222 230.931,217.222 231.842 M327.944 230.154 C 327.426 232.916,329.520 234.631,331.333 232.929 C 332.567 231.769,332.481 230.856,331.108 230.555 C 330.495 230.420,329.823 229.990,329.614 229.600 C 329.015 228.481,328.208 228.750,327.944 230.154 "
            stroke="none" fill="#e3cb1c" fill-rule="evenodd"></path>
        <path id="path2"
            d="M244.444 209.634 C 241.922 210.492,240.063 210.640,239.006 210.068 C 235.404 208.117,228.087 210.477,226.590 214.074 C 225.321 217.122,224.731 218.915,224.458 220.556 C 224.288 221.574,223.861 223.741,223.509 225.370 C 220.750 238.132,226.116 247.949,234.478 245.435 C 235.812 245.034,236.315 245.031,237.222 245.418 C 240.022 246.613,244.324 245.544,247.062 242.974 L 248.848 241.296 262.777 241.372 C 270.438 241.414,277.081 241.306,277.539 241.132 C 278.053 240.936,278.649 240.970,279.094 241.219 C 282.380 243.061,291.057 240.272,288.966 238.045 C 288.072 237.092,286.687 234.188,286.675 233.241 C 286.664 232.360,286.442 232.415,284.815 233.704 C 281.895 236.016,280.070 234.207,281.887 230.801 C 283.470 227.835,283.369 226.964,281.459 227.108 C 280.134 227.209,279.859 227.398,279.144 228.704 C 278.698 229.519,278.232 230.269,278.107 230.370 C 277.983 230.472,277.604 231.097,277.264 231.759 C 276.925 232.421,276.563 232.963,276.459 232.963 C 276.355 232.963,276.449 232.630,276.667 232.222 C 277.221 231.187,276.702 231.323,275.199 232.608 C 274.494 233.210,273.761 233.704,273.570 233.704 C 273.378 233.704,273.872 233.225,274.667 232.640 C 277.684 230.419,279.920 227.121,279.195 225.961 C 278.852 225.411,278.928 225.059,279.596 224.122 C 280.878 222.321,282.166 222.878,281.633 225.003 C 281.440 225.770,281.559 225.888,282.623 225.993 C 284.551 226.182,284.821 227.640,283.365 230.007 C 281.865 232.444,281.834 233.704,283.276 233.704 C 285.093 233.704,286.262 232.318,286.691 229.653 C 287.093 227.163,287.609 225.941,289.311 223.452 C 290.560 221.626,290.587 221.481,289.682 221.481 C 289.285 221.481,288.382 220.670,287.552 219.567 C 285.029 216.216,280.283 214.846,277.181 216.573 C 276.516 216.943,276.274 216.876,275.572 216.128 C 275.117 215.644,274.344 215.147,273.854 215.024 C 273.364 214.901,272.557 214.157,272.061 213.371 C 270.450 210.820,266.334 209.706,262.156 210.692 C 260.982 210.969,258.519 212.945,258.519 213.609 C 258.519 213.865,258.115 214.074,257.623 214.074 C 257.130 214.074,256.472 214.172,256.160 214.292 C 255.764 214.444,255.434 214.129,255.067 213.253 C 253.459 209.402,249.295 207.984,244.444 209.634 M248.519 218.720 C 248.519 224.835,245.292 234.338,242.148 237.481 C 239.935 239.694,238.691 238.626,238.286 234.167 C 238.004 231.061,237.782 230.893,236.820 233.056 C 234.241 238.861,231.715 240.048,230.317 236.111 C 229.501 233.809,229.426 229.082,230.168 226.716 C 230.465 225.772,231.040 223.833,231.447 222.407 C 232.662 218.149,233.214 216.898,234.039 216.529 C 235.266 215.982,235.335 216.464,234.331 218.587 C 230.416 226.875,229.616 237.352,232.929 236.958 C 234.747 236.742,238.102 228.779,238.515 223.704 C 238.798 220.226,239.378 218.483,240.484 217.792 C 241.292 217.288,241.179 220.677,240.314 222.905 C 238.445 227.719,238.624 237.037,240.586 237.037 C 243.353 237.037,246.384 228.804,246.445 221.123 C 246.474 217.381,246.589 216.433,247.037 216.230 C 248.370 215.626,248.519 215.876,248.519 218.720 M265.963 217.500 C 265.984 217.755,265.971 218.505,265.935 219.167 C 265.873 220.306,265.938 220.370,267.151 220.370 C 267.857 220.370,268.994 220.614,269.680 220.911 C 270.920 221.450,270.912 221.453,268.148 221.470 L 265.370 221.488 264.660 223.799 C 263.969 226.049,263.656 226.879,262.438 229.686 C 260.837 233.378,264.038 235.072,266.562 231.869 C 266.836 231.522,267.018 231.468,267.025 231.732 C 267.042 232.348,264.409 234.444,263.619 234.444 C 262.282 234.444,261.379 233.020,261.580 231.230 C 261.739 229.823,261.678 229.614,261.161 229.793 C 260.651 229.969,260.658 229.922,261.204 229.497 C 261.560 229.220,261.854 228.677,261.856 228.293 C 261.858 227.908,262.108 226.774,262.411 225.774 C 263.334 222.734,263.188 221.853,261.759 221.847 C 261.097 221.844,260.182 221.742,259.726 221.620 C 258.260 221.226,259.238 220.741,261.496 220.741 C 263.588 220.741,263.700 220.694,263.911 219.722 C 264.377 217.571,265.841 215.987,265.963 217.500 M255.730 224.576 C 256.150 224.883,256.326 225.314,256.183 225.687 C 255.891 226.449,255.185 226.487,255.185 225.741 C 255.185 224.026,252.881 225.706,251.523 228.411 C 249.958 231.530,250.692 233.563,253.061 232.669 C 254.125 232.267,254.140 232.277,253.526 232.955 C 251.502 235.191,249.401 234.427,249.523 231.499 C 249.679 227.749,253.793 223.160,255.730 224.576 M274.218 224.627 C 275.478 225.581,274.149 227.614,270.609 230.144 C 268.846 231.405,269.658 233.477,272.037 233.786 L 273.148 233.931 272.090 234.379 C 270.676 234.977,268.686 233.828,268.330 232.208 C 268.198 231.605,267.944 231.111,267.766 231.111 C 267.588 231.111,267.713 230.569,268.045 229.907 C 268.376 229.245,268.894 228.204,269.196 227.593 C 270.425 225.107,272.912 223.638,274.218 224.627 M271.667 225.486 C 270.279 226.696,268.948 230.000,269.848 230.000 C 270.478 230.000,272.909 227.861,273.311 226.953 C 274.075 225.228,273.030 224.296,271.667 225.486 M256.685 227.799 C 255.578 232.052,255.910 234.167,257.566 233.413 C 258.844 232.831,258.786 233.176,257.493 233.845 C 256.260 234.482,255.185 233.924,255.185 232.644 C 255.185 232.147,254.952 231.852,254.559 231.852 C 254.006 231.852,253.998 231.797,254.492 231.389 C 254.800 231.134,255.273 230.009,255.542 228.889 C 255.811 227.769,256.211 226.736,256.431 226.594 C 257.017 226.216,257.053 226.386,256.685 227.799 M294.940 227.114 C 293.752 228.418,293.333 229.445,293.333 231.056 C 293.333 233.905,294.591 234.847,295.012 232.315 C 295.139 231.551,295.472 230.211,295.752 229.337 C 296.465 227.114,296.028 225.920,294.940 227.114 "
            stroke="none" fill="#04b4fb" fill-rule="evenodd"></path>
        <path id="path3" d="" stroke="none" fill="#100d8c0" fill-rule="evenodd"></path>
        <path id="path4" d="" stroke="none" fill="#100d8c0" fill-rule="evenodd"></path>
        <path id="path5" d="" stroke="none" fill="#100d8c0" fill-rule="evenodd"></path>
        <path id="path6" d="" stroke="none" fill="#100d8c0" fill-rule="evenodd"></path>
        <path id="path7" d="" stroke="none" fill="#100d8c0" fill-rule="evenodd"></path>
    </g>
</svg>