<svg id="svg" version="1.1" xmlns="http://www.w3.org/2000/svg" xmlns:xlink="http://www.w3.org/1999/xlink" width="400" height="400" viewBox="0, 0, 400,400"><g id="svgg"><path id="path0" d="M65.185 225.000 L 65.185 240.370 80.556 240.370 L 95.926 240.370 95.926 225.000 L 95.926 209.630 80.556 209.630 L 65.185 209.630 65.185 225.000 " stroke="none" fill="#1c54fc" fill-rule="evenodd"></path><path id="path1" d="M175.432 172.099 C 175.296 172.235,175.185 173.725,175.185 175.410 L 175.185 178.474 176.574 178.589 L 177.963 178.704 177.963 185.926 L 177.963 193.148 176.667 193.333 L 175.370 193.519 175.263 196.574 L 175.155 199.630 182.578 199.630 L 190.000 199.630 190.000 196.503 L 190.000 193.376 188.426 193.262 C 186.855 193.148,186.852 193.145,186.852 191.667 L 186.852 190.185 190.093 190.078 L 193.333 189.971 193.333 186.550 L 193.333 183.130 190.093 183.139 L 186.852 183.148 186.742 181.050 L 186.632 178.951 189.334 178.816 C 192.430 178.661,192.876 178.863,193.034 180.491 C 193.148 181.665,193.151 181.667,195.544 181.779 C 199.821 181.980,199.630 182.220,199.630 176.660 L 199.630 171.852 187.654 171.852 C 181.068 171.852,175.568 171.963,175.432 172.099 M243.951 172.099 C 243.587 172.462,243.661 177.507,244.039 178.104 C 244.245 178.430,244.782 178.553,245.523 178.444 C 247.057 178.219,247.086 178.377,246.957 186.296 L 246.852 192.778 245.370 192.963 L 243.889 193.148 243.782 196.389 L 243.675 199.630 250.912 199.630 L 258.148 199.630 258.148 196.296 L 258.148 192.963 256.852 192.963 L 255.556 192.963 255.556 189.780 L 255.556 186.597 256.759 188.083 C 257.421 188.901,259.630 191.838,261.667 194.610 L 265.370 199.650 269.074 199.547 L 272.778 199.444 272.876 189.198 L 272.975 178.952 274.450 178.703 L 275.926 178.453 275.926 175.144 L 275.926 171.836 268.981 171.936 L 262.037 172.037 261.835 175.000 C 261.578 178.779,261.655 178.993,263.201 178.812 L 264.444 178.667 264.444 181.786 C 264.444 185.308,264.159 185.384,262.242 182.374 C 261.712 181.541,260.495 179.874,259.537 178.670 C 258.580 177.466,257.043 175.440,256.121 174.167 L 254.446 171.852 249.322 171.852 C 246.503 171.852,244.086 171.963,243.951 172.099 " stroke="none" fill="#fcfcfc" fill-rule="evenodd"></path><path id="path2" d="M118.765 209.267 C 107.654 213.191,104.177 227.570,112.269 236.126 C 120.170 244.480,134.388 242.094,139.370 231.577 C 145.395 218.857,132.167 204.533,118.765 209.267 " stroke="none" fill="#e4cc1c" fill-rule="evenodd"></path><path id="path3" d="M67.303 162.511 C 64.603 165.239,64.282 164.478,70.926 171.111 L 76.667 176.843 70.926 182.592 C 64.279 189.250,64.607 188.469,67.303 191.193 C 70.013 193.932,69.299 194.230,75.926 187.592 L 81.658 181.852 87.407 187.592 C 94.058 194.234,93.324 193.927,96.030 191.193 C 98.730 188.464,99.051 189.226,92.407 182.592 L 86.666 176.861 92.407 171.111 C 99.049 164.460,98.742 165.194,96.008 162.488 C 93.279 159.788,94.041 159.467,87.407 166.111 L 81.675 171.852 75.926 166.111 C 69.275 159.470,70.009 159.776,67.303 162.511 " stroke="none" fill="#04fc04" fill-rule="evenodd"></path><path id="path4" d="M124.176 162.870 C 111.239 185.268,108.148 190.704,108.148 191.060 C 108.148 191.369,112.921 191.481,126.111 191.481 C 135.991 191.481,144.074 191.376,144.074 191.246 C 144.074 190.619,126.424 160.397,126.051 160.385 C 125.814 160.377,124.970 161.495,124.176 162.870 " stroke="none" fill="#fc4404" fill-rule="evenodd"></path><path id="path5" d="M218.704 172.222 C 218.578 172.426,218.725 172.593,219.030 172.593 C 219.336 172.593,219.689 172.426,219.815 172.222 C 219.941 172.019,219.794 171.852,219.488 171.852 C 219.183 171.852,218.830 172.019,218.704 172.222 M217.884 179.815 C 217.886 180.833,217.958 181.206,218.044 180.643 C 218.129 180.080,218.126 179.247,218.038 178.791 C 217.951 178.336,217.881 178.796,217.884 179.815 M225.141 201.030 C 225.019 201.766,225.074 202.112,225.279 201.906 C 225.466 201.720,225.556 201.173,225.480 200.691 C 225.364 199.950,225.312 200.002,225.141 201.030 M267.778 214.560 C 267.778 214.624,268.319 215.166,268.981 215.764 L 270.185 216.852 269.097 215.648 C 268.083 214.526,267.778 214.274,267.778 214.560 M170.741 216.318 C 170.741 216.738,170.907 216.978,171.111 216.852 C 171.315 216.726,171.481 216.383,171.481 216.089 C 171.481 215.796,171.315 215.556,171.111 215.556 C 170.907 215.556,170.741 215.899,170.741 216.318 M175.258 216.111 C 175.310 216.519,175.221 217.060,175.061 217.315 C 174.902 217.569,174.930 217.778,175.124 217.778 C 175.694 217.778,175.959 216.654,175.546 215.987 C 175.210 215.444,175.176 215.459,175.258 216.111 M296.441 216.077 C 297.117 216.620,297.118 216.674,296.476 217.671 L 295.811 218.704 296.609 217.998 C 297.633 217.093,297.621 216.426,296.574 215.919 C 295.786 215.537,295.779 215.545,296.441 216.077 M228.687 216.948 L 228.033 217.963 228.924 217.226 C 229.414 216.821,229.868 216.463,229.932 216.430 C 229.997 216.397,229.890 216.272,229.695 216.151 C 229.500 216.031,229.046 216.389,228.687 216.948 M224.962 217.590 C 224.738 218.304,224.694 218.889,224.863 218.889 C 225.220 218.889,225.690 217.254,225.498 216.680 C 225.427 216.465,225.185 216.875,224.962 217.590 M165.556 217.180 C 165.556 217.259,166.047 217.395,166.647 217.484 C 167.247 217.572,167.654 217.507,167.551 217.340 C 167.368 217.043,165.556 216.898,165.556 217.180 M278.915 218.041 C 278.997 218.957,279.511 219.733,279.704 219.230 C 279.816 218.938,279.678 218.486,279.398 218.224 C 279.118 217.963,278.901 217.880,278.915 218.041 M244.760 219.353 C 244.947 219.540,245.494 219.630,245.976 219.555 C 246.717 219.438,246.665 219.386,245.637 219.215 C 244.901 219.093,244.555 219.148,244.760 219.353 M299.618 220.071 L 298.785 221.296 299.800 220.254 C 300.359 219.680,300.734 219.129,300.633 219.028 C 300.533 218.928,300.076 219.398,299.618 220.071 M190.370 220.185 C 190.370 220.694,190.514 221.111,190.689 221.111 C 190.865 221.111,190.929 220.694,190.831 220.185 C 190.734 219.676,190.590 219.259,190.512 219.259 C 190.434 219.259,190.370 219.676,190.370 220.185 M200.834 221.296 C 200.838 222.111,200.914 222.401,201.003 221.940 C 201.091 221.479,201.088 220.813,200.995 220.459 C 200.903 220.105,200.830 220.481,200.834 221.296 M235.174 220.761 C 234.950 221.180,234.822 221.687,234.889 221.888 C 234.956 222.090,235.202 221.747,235.436 221.127 C 235.923 219.838,235.777 219.635,235.174 220.761 M300.520 221.909 L 299.815 222.707 300.833 222.052 C 301.884 221.376,302.082 221.111,301.539 221.111 C 301.367 221.111,300.908 221.470,300.520 221.909 M178.333 222.222 C 178.063 222.660,178.425 222.660,179.444 222.222 C 180.159 221.915,180.156 221.903,179.374 221.878 C 178.927 221.864,178.459 222.019,178.333 222.222 M211.481 223.109 C 211.991 223.422,212.907 223.664,213.519 223.648 C 214.610 223.619,214.607 223.614,213.333 223.341 C 212.620 223.188,211.704 222.946,211.296 222.802 C 210.811 222.631,210.875 222.737,211.481 223.109 M313.599 223.548 C 313.102 224.212,313.072 224.379,313.478 224.224 C 313.774 224.110,314.117 223.756,314.239 223.437 C 314.586 222.534,314.323 222.580,313.599 223.548 M278.635 223.611 C 278.508 223.968,278.337 224.384,278.254 224.537 C 278.172 224.690,278.262 224.815,278.453 224.815 C 278.645 224.815,278.882 224.398,278.980 223.889 C 279.183 222.823,278.975 222.656,278.635 223.611 M293.279 223.797 C 293.466 223.984,294.012 224.075,294.494 223.999 C 295.236 223.882,295.184 223.830,294.155 223.660 C 293.419 223.538,293.074 223.592,293.279 223.797 M220.741 229.444 C 221.250 229.736,221.833 229.974,222.037 229.974 C 222.241 229.974,221.991 229.736,221.481 229.444 C 220.972 229.153,220.389 228.915,220.185 228.915 C 219.981 228.915,220.231 229.153,220.741 229.444 M213.056 229.885 C 213.412 229.978,213.995 229.978,214.352 229.885 C 214.708 229.792,214.417 229.716,213.704 229.716 C 212.991 229.716,212.699 229.792,213.056 229.885 M321.111 230.000 C 320.367 230.238,320.330 230.299,320.926 230.307 C 321.333 230.313,322.000 230.175,322.407 230.000 C 323.351 229.594,322.377 229.594,321.111 230.000 M189.505 230.833 C 189.719 231.186,191.073 231.148,192.037 230.763 C 192.552 230.557,192.254 230.480,191.057 230.511 C 190.110 230.536,189.412 230.681,189.505 230.833 " stroke="none" fill="#0c0c0c" fill-rule="evenodd"></path><path id="path6" d="M217.995 172.685 C 217.904 173.144,217.859 180.269,217.896 188.519 L 217.963 203.519 221.568 203.624 C 224.832 203.720,225.149 203.671,224.931 203.101 C 224.767 202.675,224.829 202.558,225.122 202.739 C 225.385 202.901,225.556 202.771,225.556 202.407 C 225.556 202.078,225.410 201.898,225.232 202.008 C 225.053 202.119,225.067 201.462,225.262 200.549 C 225.487 199.493,225.487 198.284,225.262 197.229 C 225.067 196.316,225.040 195.651,225.201 195.751 C 225.461 195.911,225.331 188.529,225.036 186.400 C 224.973 185.948,225.064 185.666,225.239 185.774 C 225.413 185.882,225.556 185.626,225.556 185.207 C 225.556 184.788,225.417 184.444,225.247 184.444 C 225.077 184.444,224.938 184.202,224.938 183.905 C 224.938 183.609,225.068 183.446,225.226 183.544 C 225.486 183.705,225.324 179.264,225.012 177.685 C 224.942 177.328,225.035 177.129,225.220 177.244 C 225.404 177.358,225.556 177.181,225.556 176.852 C 225.556 176.510,225.380 176.361,225.148 176.504 C 224.861 176.682,224.848 176.552,225.103 176.063 C 225.397 175.503,225.476 173.207,225.237 172.186 C 225.143 171.784,220.075 171.801,219.826 172.204 C 219.694 172.418,219.336 172.593,219.030 172.593 C 218.725 172.593,218.578 172.426,218.704 172.222 C 218.830 172.019,218.759 171.852,218.547 171.852 C 218.336 171.852,218.087 172.227,217.995 172.685 M173.022 211.498 C 172.214 211.990,171.858 212.445,171.997 212.807 C 172.114 213.112,171.973 213.452,171.684 213.563 C 171.383 213.679,171.254 214.015,171.383 214.351 C 171.531 214.738,171.461 214.846,171.174 214.669 C 170.918 214.510,170.741 214.624,170.741 214.947 C 170.741 215.248,170.949 215.564,171.204 215.649 C 171.570 215.772,171.565 215.995,171.180 216.719 C 170.912 217.222,170.745 217.791,170.809 217.983 C 170.945 218.390,170.660 218.519,169.630 218.519 C 169.218 218.519,168.889 218.272,168.889 217.963 C 168.889 217.398,168.393 217.276,166.574 217.396 C 166.014 217.433,165.556 217.284,165.556 217.065 C 165.556 216.829,164.719 216.667,163.497 216.667 C 162.364 216.667,161.530 216.816,161.643 216.998 C 161.756 217.181,161.182 217.296,160.368 217.255 C 159.555 217.213,158.889 217.296,158.889 217.439 C 158.889 217.582,158.630 217.798,158.314 217.919 C 157.948 218.060,157.832 217.989,157.995 217.725 C 158.149 217.476,158.046 217.380,157.737 217.483 C 157.454 217.577,157.222 217.849,157.222 218.086 C 157.222 218.324,157.056 218.533,156.852 218.550 C 156.045 218.619,155.489 219.359,156.001 219.684 C 156.367 219.916,156.338 219.990,155.882 219.994 C 155.415 219.999,155.273 220.413,155.240 221.870 C 155.217 222.898,155.344 223.649,155.523 223.539 C 155.702 223.428,155.940 223.576,156.051 223.867 C 156.163 224.158,156.088 224.452,155.884 224.520 C 155.681 224.588,156.065 225.271,156.739 226.038 C 157.937 227.403,161.852 228.517,161.852 227.493 C 161.852 227.306,163.144 227.197,164.722 227.252 C 166.919 227.327,167.745 227.213,168.241 226.766 C 168.597 226.444,168.889 226.287,168.889 226.415 C 168.889 226.543,169.271 226.503,169.739 226.325 C 170.454 226.053,170.598 226.127,170.648 226.792 C 170.681 227.226,170.883 227.640,171.097 227.711 C 171.311 227.783,171.407 227.969,171.310 228.126 C 171.213 228.283,171.545 228.797,172.048 229.270 C 172.691 229.874,172.966 229.972,172.975 229.602 C 172.984 229.169,173.068 229.178,173.438 229.648 C 173.983 230.342,177.407 230.648,177.407 230.003 C 177.407 229.740,177.705 229.674,178.195 229.830 C 178.724 229.998,178.899 229.945,178.728 229.669 C 178.589 229.444,178.693 229.234,178.960 229.203 C 179.226 229.172,179.611 229.126,179.815 229.100 C 180.019 229.075,180.375 228.936,180.606 228.791 C 180.859 228.632,181.112 228.852,181.239 229.340 C 181.356 229.787,181.568 230.037,181.710 229.894 C 181.853 229.752,182.193 229.822,182.466 230.049 C 182.739 230.275,182.963 230.337,182.963 230.185 C 182.963 230.033,183.184 230.092,183.453 230.316 C 184.047 230.809,185.572 230.568,185.986 229.916 C 186.219 229.548,186.286 229.560,186.291 229.969 C 186.294 230.258,186.402 230.389,186.530 230.260 C 186.659 230.131,187.074 230.192,187.452 230.394 C 188.203 230.796,191.867 231.065,191.643 230.702 C 191.567 230.579,192.345 230.485,193.373 230.494 C 194.607 230.504,195.355 230.328,195.578 229.977 C 195.827 229.582,195.916 229.569,195.920 229.924 C 195.926 230.391,198.721 230.351,201.028 229.851 C 201.507 229.747,201.778 229.820,201.655 230.019 C 201.535 230.212,201.688 230.370,201.993 230.370 C 202.299 230.370,202.645 230.214,202.763 230.024 C 203.031 229.590,204.444 229.669,204.444 230.118 C 204.444 230.301,204.694 230.354,205.000 230.236 C 205.306 230.119,205.556 230.149,205.556 230.303 C 205.556 230.457,206.068 230.622,206.693 230.670 C 207.494 230.731,207.751 230.626,207.559 230.315 C 207.373 230.015,207.483 229.950,207.902 230.111 C 208.726 230.427,209.686 230.029,209.383 229.498 C 209.250 229.265,209.272 229.193,209.434 229.339 C 209.595 229.484,210.027 229.443,210.393 229.247 C 210.852 229.002,211.212 229.035,211.548 229.353 C 211.958 229.740,213.532 229.856,215.855 229.669 C 216.122 229.647,216.238 229.465,216.114 229.264 C 215.984 229.054,216.133 228.991,216.462 229.118 C 216.812 229.252,217.037 229.137,217.037 228.823 C 217.037 228.539,217.329 228.295,217.685 228.281 C 218.042 228.267,218.625 228.130,218.981 227.977 C 219.387 227.803,219.630 227.860,219.630 228.130 C 219.630 228.368,219.437 228.443,219.202 228.298 C 218.937 228.134,218.875 228.196,219.039 228.461 C 219.184 228.696,219.636 228.889,220.044 228.889 C 220.451 228.889,220.683 229.054,220.558 229.255 C 220.424 229.472,220.590 229.522,220.967 229.377 C 221.396 229.213,221.517 229.273,221.338 229.562 C 221.165 229.843,221.272 229.915,221.647 229.771 C 221.964 229.650,222.222 229.706,222.222 229.897 C 222.222 230.404,226.434 230.046,227.386 229.458 C 227.602 229.324,227.778 229.411,227.778 229.651 C 227.778 229.904,228.088 230.005,228.519 229.893 C 228.927 229.786,229.167 229.850,229.053 230.035 C 228.939 230.219,229.063 230.384,229.330 230.401 C 229.597 230.418,230.231 230.481,230.741 230.540 C 231.250 230.600,231.875 230.482,232.130 230.279 C 232.384 230.076,232.593 230.025,232.593 230.166 C 232.593 230.308,232.861 230.155,233.189 229.827 C 233.738 229.278,233.829 229.283,234.328 229.893 C 234.626 230.257,234.742 230.306,234.586 230.000 C 234.364 229.565,234.418 229.530,234.836 229.838 C 235.584 230.390,237.953 230.501,238.842 230.025 C 239.307 229.776,239.667 229.760,239.804 229.983 C 239.925 230.178,240.296 230.234,240.628 230.106 C 240.986 229.969,241.139 230.026,241.003 230.246 C 240.869 230.462,241.230 230.617,241.868 230.617 C 242.470 230.617,242.963 230.514,242.963 230.388 C 242.963 230.262,243.255 230.147,243.611 230.133 C 243.968 230.119,244.551 229.982,244.907 229.829 C 245.348 229.640,245.556 229.716,245.556 230.067 C 245.556 230.450,246.057 230.569,247.500 230.528 C 249.960 230.457,250.083 230.433,249.861 230.074 C 249.760 229.911,250.073 229.778,250.556 229.778 C 251.039 229.778,251.335 229.937,251.214 230.132 C 251.088 230.338,251.331 230.399,251.794 230.278 C 252.233 230.163,252.670 230.195,252.764 230.349 C 252.950 230.649,255.244 230.600,255.784 230.284 C 256.071 230.115,257.862 230.201,260.185 230.493 C 260.593 230.545,261.336 230.330,261.838 230.015 C 262.517 229.590,262.670 229.573,262.439 229.947 C 262.202 230.333,262.313 230.391,262.917 230.200 C 263.417 230.041,263.704 230.110,263.704 230.389 C 263.704 230.645,264.012 230.747,264.444 230.633 C 264.852 230.527,265.185 230.567,265.185 230.723 C 265.185 231.041,267.716 230.928,268.883 230.557 C 269.300 230.425,269.549 230.169,269.438 229.989 C 269.326 229.809,269.740 229.400,270.358 229.080 C 271.374 228.555,271.654 228.131,271.525 227.315 C 271.431 226.719,272.218 227.078,272.610 227.809 C 272.837 228.234,273.107 228.498,273.209 228.396 C 273.311 228.294,273.730 228.545,274.139 228.954 C 274.575 229.390,275.176 229.621,275.590 229.513 C 275.979 229.412,276.220 229.453,276.126 229.606 C 275.914 229.948,278.258 229.835,278.839 229.475 C 279.070 229.332,279.426 229.319,279.630 229.444 C 279.833 229.570,280.000 229.497,280.000 229.281 C 280.000 229.065,280.208 228.931,280.463 228.981 C 280.718 229.032,280.884 228.866,280.833 228.611 C 280.782 228.356,280.943 228.190,281.190 228.241 C 281.437 228.292,281.810 227.958,282.019 227.500 C 282.227 227.042,282.618 226.667,282.887 226.667 C 283.157 226.667,283.301 226.542,283.207 226.389 C 283.114 226.236,283.594 226.082,284.274 226.046 C 285.116 226.002,285.455 226.126,285.337 226.435 C 285.190 226.817,286.977 228.927,287.159 228.587 C 287.194 228.523,287.513 228.582,287.868 228.719 C 288.224 228.855,288.406 229.142,288.273 229.356 C 288.121 229.603,288.321 229.671,288.817 229.541 C 289.275 229.421,289.789 229.561,290.051 229.877 C 290.328 230.210,290.831 230.335,291.361 230.202 C 291.840 230.082,292.222 230.153,292.222 230.363 C 292.222 230.822,295.217 230.845,297.127 230.401 C 297.889 230.224,298.432 230.210,298.333 230.371 C 298.082 230.777,304.835 230.553,305.131 230.145 C 305.503 229.631,306.307 229.578,306.204 230.073 C 306.063 230.748,310.274 230.784,310.533 230.111 C 310.642 229.827,310.941 229.622,311.199 229.656 C 312.347 229.807,312.994 229.605,312.772 229.167 C 312.643 228.912,312.758 228.954,313.028 229.259 C 313.933 230.284,315.351 230.666,318.321 230.682 C 320.432 230.694,321.117 230.591,320.728 230.320 C 320.316 230.033,320.427 229.981,321.192 230.103 C 321.747 230.191,322.112 230.121,322.004 229.946 C 321.896 229.772,322.151 229.609,322.571 229.583 C 323.740 229.512,323.828 229.482,324.762 228.823 C 325.301 228.443,325.528 228.032,325.353 227.750 C 325.159 227.435,325.224 227.387,325.561 227.596 C 325.911 227.812,325.988 227.733,325.829 227.320 C 325.593 226.702,326.120 226.647,327.002 227.197 C 327.388 227.438,327.443 227.388,327.216 227.002 C 327.047 226.716,327.300 226.815,327.778 227.222 C 328.294 227.663,328.516 227.738,328.326 227.407 C 328.069 226.962,328.111 226.935,328.540 227.274 C 329.124 227.735,331.111 227.848,331.111 227.419 C 331.111 227.273,332.069 227.164,333.241 227.177 C 334.412 227.190,335.704 227.065,336.111 226.899 C 336.695 226.661,336.735 226.681,336.296 226.996 C 335.991 227.216,335.894 227.399,336.082 227.402 C 336.270 227.405,336.757 227.116,337.164 226.759 C 337.572 226.403,337.784 226.318,337.637 226.570 C 337.456 226.879,337.555 226.957,337.942 226.809 C 338.257 226.688,338.434 226.459,338.335 226.299 C 338.237 226.140,338.446 226.032,338.800 226.060 C 339.155 226.088,339.403 225.903,339.352 225.648 C 339.301 225.394,339.491 225.185,339.775 225.185 C 340.438 225.185,340.742 224.381,340.498 223.276 C 340.345 222.585,340.387 222.521,340.703 222.963 C 341.019 223.406,341.101 223.282,341.105 222.354 C 341.109 221.642,340.889 221.105,340.538 220.971 C 340.223 220.850,339.993 220.540,340.027 220.283 C 340.154 219.306,339.983 218.919,339.504 219.103 C 339.231 219.207,338.773 219.003,338.485 218.649 C 338.030 218.089,338.035 218.048,338.519 218.333 C 338.986 218.609,338.999 218.567,338.599 218.074 C 338.027 217.368,336.535 216.888,336.922 217.535 C 337.064 217.770,336.898 217.735,336.555 217.456 C 336.211 217.178,335.596 217.037,335.187 217.144 C 334.779 217.251,334.444 217.187,334.444 217.002 C 334.444 216.521,330.834 216.586,330.534 217.073 C 330.396 217.296,329.802 217.408,329.215 217.322 C 328.628 217.236,328.148 217.303,328.148 217.472 C 328.148 217.640,327.903 217.778,327.604 217.778 C 327.273 217.778,327.144 217.561,327.273 217.222 C 327.391 216.917,327.307 216.667,327.088 216.667 C 326.869 216.667,326.784 216.421,326.900 216.120 C 327.034 215.771,326.765 215.416,326.159 215.140 C 325.636 214.901,325.285 214.583,325.378 214.432 C 325.471 214.281,325.267 213.931,324.925 213.653 C 324.389 213.219,324.348 213.226,324.630 213.704 C 324.901 214.165,324.860 214.181,324.389 213.800 C 324.076 213.547,323.711 213.449,323.577 213.583 C 323.443 213.717,323.333 213.667,323.333 213.471 C 323.333 213.096,320.817 213.005,320.185 213.357 C 319.981 213.471,319.398 213.517,318.889 213.459 C 317.763 213.332,315.185 214.068,315.185 214.516 C 315.185 214.882,313.501 214.736,313.100 214.335 C 312.957 214.191,312.441 214.074,311.953 214.074 C 311.466 214.074,311.165 213.916,311.284 213.723 C 311.404 213.530,311.163 213.437,310.751 213.517 C 310.338 213.596,310.000 213.521,310.000 213.349 C 310.000 212.934,307.388 212.948,306.604 213.367 C 306.205 213.580,305.937 213.551,305.848 213.285 C 305.631 212.632,301.852 212.526,301.852 213.173 C 301.852 213.550,301.513 213.653,300.648 213.540 C 299.986 213.454,299.319 213.372,299.167 213.358 C 299.014 213.345,298.889 213.146,298.889 212.918 C 298.889 212.646,299.113 212.677,299.537 213.010 C 300.124 213.471,300.138 213.458,299.677 212.870 C 299.397 212.514,298.929 212.222,298.636 212.222 C 298.329 212.222,298.216 212.042,298.369 211.795 C 298.526 211.539,298.471 211.467,298.231 211.615 C 298.010 211.752,297.728 211.700,297.604 211.501 C 297.179 210.812,292.549 211.276,291.960 212.066 C 291.668 212.458,291.269 212.734,291.074 212.681 C 290.878 212.628,290.358 212.920,289.919 213.330 C 289.479 213.739,288.849 214.074,288.518 214.074 C 287.747 214.074,285.825 216.063,286.199 216.474 C 286.354 216.645,286.292 216.677,286.060 216.545 C 285.829 216.413,285.434 216.553,285.182 216.856 C 284.839 217.269,284.834 217.407,285.162 217.407 C 285.402 217.407,285.497 217.573,285.371 217.776 C 285.041 218.311,282.945 217.146,283.172 216.553 C 283.273 216.291,282.907 215.667,282.359 215.167 C 281.810 214.668,281.485 214.509,281.634 214.815 C 281.784 215.120,281.637 215.037,281.307 214.630 C 280.499 213.632,277.498 213.580,276.610 214.548 C 276.151 215.049,275.950 215.096,275.806 214.737 C 275.688 214.443,275.603 214.518,275.585 214.932 C 275.564 215.416,275.361 215.544,274.864 215.386 C 274.009 215.115,272.099 215.797,272.391 216.270 C 272.509 216.460,272.435 216.720,272.228 216.848 C 272.021 216.976,271.852 216.878,271.852 216.631 C 271.852 216.347,271.589 216.420,271.136 216.829 C 270.739 217.189,270.507 217.750,270.615 218.090 C 270.778 218.601,270.747 218.613,270.430 218.166 C 270.220 217.870,270.127 217.502,270.222 217.348 C 270.317 217.195,269.840 216.520,269.162 215.849 C 268.033 214.733,268.025 214.708,269.057 215.555 C 270.153 216.454,270.150 216.442,268.937 215.121 C 268.207 214.326,267.470 213.845,267.162 213.963 C 266.873 214.074,266.663 214.020,266.695 213.842 C 266.835 213.078,266.629 212.903,266.103 213.340 C 265.631 213.732,265.577 213.709,265.772 213.201 C 266.100 212.346,263.109 212.345,262.166 213.199 C 261.589 213.721,261.407 213.734,260.862 213.292 C 260.313 212.847,260.271 212.852,260.548 213.333 C 260.755 213.692,260.590 213.645,260.080 213.198 C 259.484 212.676,258.951 212.561,257.887 212.725 C 255.123 213.154,254.444 213.186,254.444 212.892 C 254.444 212.309,247.538 212.544,247.040 213.144 C 246.789 213.447,246.459 213.619,246.308 213.526 C 246.157 213.432,245.098 213.325,243.956 213.288 C 242.813 213.250,241.965 213.079,242.072 212.906 C 242.179 212.734,241.527 212.593,240.623 212.593 C 239.592 212.593,238.802 212.379,238.505 212.020 C 238.243 211.705,237.798 211.537,237.514 211.646 C 237.231 211.754,237.100 211.679,237.225 211.477 C 237.488 211.051,237.413 211.033,235.123 210.963 C 234.172 210.933,233.480 211.049,233.586 211.220 C 233.692 211.391,233.473 211.478,233.101 211.414 C 232.699 211.344,232.421 211.520,232.416 211.847 C 232.411 212.150,232.096 212.457,231.715 212.531 C 231.237 212.623,231.112 212.520,231.310 212.199 C 231.518 211.863,231.377 211.793,230.798 211.944 C 230.359 212.059,230.092 212.002,230.207 211.817 C 230.526 211.301,229.194 211.423,228.060 212.015 C 227.166 212.482,227.008 212.475,226.720 211.961 C 226.244 211.109,222.497 210.889,221.719 211.667 C 221.399 211.987,221.007 212.230,220.847 212.207 C 220.687 212.184,220.389 212.470,220.185 212.842 C 219.981 213.214,219.599 213.656,219.336 213.824 C 219.049 214.006,218.953 214.434,219.098 214.889 C 219.275 215.447,219.214 215.571,218.866 215.356 C 218.522 215.144,218.463 215.246,218.649 215.732 C 218.875 216.322,218.832 216.340,218.285 215.886 C 217.943 215.602,217.565 215.395,217.443 215.426 C 217.322 215.456,217.257 215.351,217.300 215.192 C 217.607 214.053,212.475 212.705,211.822 213.754 C 211.704 213.944,211.330 213.993,210.991 213.863 C 210.652 213.733,210.467 213.477,210.580 213.295 C 210.837 212.878,210.961 212.893,206.197 212.756 C 204.003 212.693,202.287 212.768,202.383 212.924 C 202.598 213.271,201.226 213.201,200.872 212.847 C 200.452 212.427,198.077 212.548,198.341 212.976 C 198.495 213.224,198.211 213.274,197.530 213.118 C 195.323 212.612,193.605 212.504,193.841 212.885 C 193.981 213.112,193.795 213.191,193.378 213.082 C 192.953 212.971,192.352 213.238,191.841 213.765 C 191.380 214.240,191.109 214.440,191.239 214.207 C 191.369 213.975,191.066 213.516,190.565 213.189 C 189.505 212.494,186.296 212.370,186.296 213.025 C 186.296 213.262,186.188 213.348,186.055 213.216 C 185.923 213.083,185.577 213.264,185.287 213.617 C 184.936 214.045,184.840 214.074,185.001 213.704 C 185.133 213.398,184.911 213.523,184.506 213.981 C 183.729 214.862,182.963 215.080,182.963 214.423 C 182.963 214.207,183.155 214.149,183.391 214.295 C 183.664 214.464,183.717 214.396,183.538 214.106 C 183.384 213.857,183.017 213.746,182.721 213.859 C 182.426 213.973,182.274 213.920,182.384 213.741 C 182.677 213.268,181.639 212.524,180.599 212.461 C 180.105 212.432,179.767 212.300,179.848 212.168 C 179.929 212.037,179.733 211.829,179.412 211.705 C 178.536 211.369,178.261 211.446,178.889 211.852 C 179.277 212.103,179.302 212.213,178.970 212.217 C 178.709 212.220,178.406 211.991,178.298 211.708 C 178.189 211.424,177.797 211.272,177.425 211.369 C 177.054 211.467,176.638 211.365,176.501 211.143 C 176.105 210.501,174.366 210.678,173.022 211.498 M175.920 215.994 C 175.924 215.660,176.190 215.586,176.759 215.758 C 177.218 215.897,177.755 216.034,177.954 216.061 C 178.153 216.089,178.540 216.319,178.814 216.574 C 179.088 216.829,179.643 217.037,180.048 217.037 C 180.453 217.037,180.700 217.174,180.596 217.341 C 180.385 217.684,181.884 219.108,182.315 218.975 C 182.468 218.928,182.593 219.212,182.593 219.608 C 182.593 220.003,182.749 220.423,182.939 220.541 C 183.130 220.659,183.262 221.074,183.233 221.463 C 183.204 221.852,183.087 222.114,182.975 222.044 C 182.862 221.975,182.448 222.153,182.055 222.440 C 181.662 222.728,181.478 222.963,181.646 222.963 C 182.660 222.963,178.523 225.242,177.281 225.368 C 176.906 225.406,176.489 225.594,176.355 225.786 C 176.070 226.195,175.196 226.235,175.161 225.840 C 175.148 225.691,174.993 225.066,174.817 224.451 C 174.606 223.715,174.629 223.333,174.884 223.333 C 175.098 223.333,175.192 222.918,175.095 222.407 C 174.976 221.787,175.084 221.481,175.422 221.481 C 175.699 221.481,175.926 221.305,175.926 221.089 C 175.926 220.874,175.772 220.792,175.584 220.908 C 175.389 221.029,175.404 220.533,175.621 219.748 C 175.936 218.608,175.896 218.302,175.385 217.928 C 175.040 217.676,174.927 217.382,175.128 217.257 C 175.325 217.136,175.404 216.661,175.303 216.203 C 175.157 215.534,175.199 215.480,175.518 215.926 C 175.813 216.339,175.916 216.356,175.920 215.994 M235.782 215.839 C 236.299 216.180,236.653 218.484,236.229 218.746 C 236.055 218.853,236.010 219.095,236.127 219.285 C 236.244 219.474,236.080 219.630,235.763 219.630 C 235.445 219.630,235.185 219.806,235.185 220.022 C 235.185 220.238,235.338 220.320,235.524 220.204 C 235.711 220.089,235.676 220.491,235.447 221.098 C 235.167 221.839,234.936 222.053,234.743 221.749 C 234.541 221.430,234.440 221.488,234.404 221.944 C 234.315 223.047,234.280 223.127,233.519 223.920 C 233.111 224.345,232.540 225.044,232.249 225.472 C 231.958 225.901,231.553 226.221,231.349 226.182 C 230.567 226.033,229.324 224.707,229.511 224.220 C 229.618 223.939,229.440 223.608,229.115 223.483 C 228.789 223.358,228.628 223.085,228.757 222.876 C 228.888 222.665,228.764 222.573,228.477 222.668 C 228.194 222.762,227.955 223.076,227.946 223.364 C 227.937 223.653,227.729 223.847,227.483 223.796 C 227.238 223.745,227.037 223.853,227.037 224.035 C 227.037 224.218,226.204 224.803,225.185 225.335 C 224.167 225.868,223.333 226.175,223.333 226.018 C 223.333 225.861,222.875 225.238,222.315 224.633 C 221.755 224.028,221.331 223.426,221.373 223.296 C 221.619 222.535,221.953 220.784,222.023 219.893 C 222.067 219.324,222.297 218.666,222.533 218.430 C 222.770 218.193,222.960 217.825,222.957 217.611 C 222.954 217.397,222.790 217.472,222.593 217.778 C 222.342 218.166,222.232 218.191,222.228 217.859 C 222.225 217.598,222.462 217.292,222.754 217.180 C 223.047 217.068,223.196 216.740,223.085 216.451 C 222.850 215.837,224.262 215.702,224.633 216.302 C 224.761 216.509,225.021 216.583,225.211 216.466 C 225.730 216.145,225.625 218.022,225.093 218.585 C 224.838 218.854,224.573 219.407,224.503 219.815 C 224.434 220.222,224.218 220.613,224.025 220.684 C 223.821 220.759,223.854 221.031,224.104 221.332 C 224.366 221.648,224.387 221.852,224.159 221.852 C 223.691 221.852,223.258 222.912,223.540 223.368 C 223.858 223.882,225.165 223.042,225.628 222.026 C 225.851 221.535,226.177 221.222,226.350 221.330 C 226.524 221.437,226.667 221.265,226.667 220.948 C 226.667 220.630,226.843 220.370,227.059 220.370 C 227.275 220.370,227.348 220.204,227.222 220.000 C 227.096 219.796,227.170 219.630,227.386 219.630 C 227.601 219.630,227.778 219.380,227.778 219.074 C 227.778 218.769,227.927 218.519,228.109 218.519 C 228.290 218.519,228.539 218.260,228.660 217.944 C 228.798 217.584,228.729 217.463,228.476 217.619 C 228.253 217.756,228.369 217.414,228.734 216.858 C 229.355 215.909,229.427 215.888,229.883 216.513 C 230.151 216.879,230.373 217.022,230.376 216.830 C 230.379 216.638,230.528 216.712,230.706 216.994 C 230.885 217.276,230.907 217.943,230.756 218.476 C 230.604 219.008,230.524 219.736,230.578 220.093 C 230.631 220.449,230.512 220.741,230.312 220.741 C 229.571 220.741,230.177 222.407,230.926 222.431 C 231.971 222.465,233.136 221.450,232.509 221.051 C 232.152 220.825,232.147 220.751,232.490 220.746 C 233.011 220.740,233.960 218.975,233.888 218.148 C 233.862 217.843,234.011 217.259,234.221 216.852 C 234.430 216.444,234.566 215.986,234.523 215.833 C 234.423 215.479,235.243 215.483,235.782 215.839 M296.694 215.941 C 297.627 216.440,297.597 217.126,296.603 217.998 C 296.086 218.452,295.907 218.505,296.102 218.148 C 296.348 217.697,296.312 217.679,295.906 218.056 C 295.632 218.310,295.042 218.519,294.595 218.519 C 294.148 218.519,293.687 218.769,293.570 219.074 C 293.453 219.380,293.101 219.630,292.789 219.630 C 292.168 219.630,291.187 220.540,290.460 221.791 C 290.155 222.315,290.131 222.593,290.389 222.593 C 290.607 222.593,290.689 222.747,290.572 222.936 C 290.298 223.380,291.711 223.835,292.276 223.485 C 292.544 223.319,292.607 223.380,292.443 223.646 C 292.285 223.902,292.419 224.074,292.778 224.074 C 293.107 224.074,293.290 223.933,293.183 223.759 C 293.076 223.586,293.806 223.607,294.805 223.804 C 295.876 224.016,296.715 224.406,296.849 224.756 C 296.974 225.081,296.958 225.229,296.813 225.085 C 296.490 224.762,295.496 225.530,295.735 225.917 C 295.829 226.069,295.119 226.141,294.157 226.076 C 291.448 225.893,290.314 225.650,289.861 225.158 C 289.544 224.814,289.577 224.770,290.000 224.974 C 290.306 225.121,290.181 224.911,289.722 224.506 C 289.264 224.101,288.889 223.503,288.889 223.176 C 288.889 222.850,288.681 222.230,288.426 221.798 C 288.056 221.171,288.056 220.981,288.426 220.847 C 288.681 220.754,288.889 220.516,288.889 220.318 C 288.889 220.119,288.696 220.075,288.461 220.221 C 288.196 220.384,288.134 220.322,288.298 220.057 C 288.443 219.822,288.810 219.630,289.112 219.630 C 289.430 219.630,289.616 219.357,289.553 218.981 C 289.479 218.538,289.651 218.368,290.098 218.443 C 290.457 218.504,290.850 218.295,290.971 217.980 C 291.091 217.665,291.357 217.407,291.560 217.407 C 291.764 217.407,292.379 217.030,292.927 216.568 C 294.043 215.629,295.621 215.366,296.694 215.941 M188.333 217.037 C 188.207 217.241,188.364 217.407,188.682 217.407 C 188.999 217.407,189.259 217.584,189.259 217.800 C 189.259 218.015,189.408 218.100,189.591 217.987 C 189.773 217.874,190.021 218.040,190.142 218.355 C 190.287 218.731,190.205 218.848,189.903 218.695 C 189.651 218.568,189.707 218.684,190.028 218.954 C 191.062 219.822,191.119 220.982,190.153 221.499 C 189.675 221.754,189.365 222.093,189.462 222.251 C 189.659 222.570,188.439 223.049,187.853 222.883 C 187.485 222.779,187.407 222.932,187.407 223.765 C 187.407 224.003,187.519 224.086,187.655 223.950 C 187.791 223.814,188.203 223.973,188.569 224.305 C 188.937 224.638,189.565 224.821,189.974 224.714 C 191.075 224.426,191.839 225.489,190.983 226.115 C 190.206 226.683,189.825 226.643,188.288 225.828 C 187.651 225.491,187.000 225.333,186.839 225.478 C 186.679 225.622,186.668 225.532,186.814 225.278 C 186.961 225.023,186.946 224.802,186.781 224.786 C 186.616 224.771,186.201 224.704,185.859 224.638 C 185.517 224.572,185.143 224.760,185.030 225.056 C 184.914 225.357,184.985 225.494,185.189 225.368 C 185.583 225.124,185.701 225.657,185.334 226.024 C 184.984 226.374,184.074 225.896,184.074 225.362 C 184.074 225.095,183.866 224.806,183.611 224.721 C 183.250 224.599,183.260 224.429,183.656 223.949 C 183.936 223.610,184.041 223.333,183.889 223.333 C 183.737 223.333,183.819 223.085,184.070 222.782 C 184.322 222.480,184.427 221.971,184.305 221.652 C 184.160 221.275,184.231 221.164,184.507 221.335 C 184.795 221.513,184.865 221.344,184.726 220.812 C 184.609 220.364,184.743 219.843,185.038 219.598 C 185.323 219.362,185.556 219.298,185.556 219.456 C 185.556 219.615,185.882 219.449,186.282 219.087 C 186.681 218.726,186.973 218.295,186.930 218.130 C 186.887 217.965,187.185 217.574,187.593 217.260 C 188.468 216.587,188.644 216.534,188.333 217.037 M253.493 217.456 C 253.983 218.079,254.975 218.337,254.611 217.747 C 254.434 217.461,254.600 217.407,255.135 217.577 C 255.567 217.714,256.110 217.708,256.342 217.564 C 256.935 217.198,259.270 217.091,259.054 217.440 C 258.957 217.598,259.046 217.831,259.253 217.959 C 259.841 218.323,259.695 218.891,259.074 218.652 C 258.769 218.535,258.519 218.596,258.519 218.788 C 258.519 218.979,258.310 219.154,258.056 219.176 C 257.213 219.249,256.488 219.461,255.961 219.790 C 255.605 220.012,255.524 219.980,255.705 219.687 C 256.017 219.183,255.583 219.136,254.860 219.594 C 254.051 220.106,254.794 220.828,255.956 220.657 C 256.601 220.563,257.080 220.690,257.194 220.986 C 257.297 221.255,257.673 221.378,258.042 221.264 C 258.438 221.142,258.365 221.264,257.859 221.568 C 257.394 221.847,257.102 222.164,257.211 222.272 C 257.319 222.381,257.199 222.479,256.944 222.491 C 254.452 222.609,253.700 222.788,253.867 223.225 C 253.968 223.488,253.880 223.704,253.670 223.704 C 253.461 223.704,253.394 223.872,253.521 224.078 C 253.763 224.470,256.716 224.428,257.037 224.028 C 257.139 223.901,257.635 223.951,258.139 224.140 C 258.887 224.419,258.955 224.546,258.510 224.828 C 258.054 225.116,258.050 225.175,258.488 225.180 C 258.776 225.183,258.922 225.276,258.811 225.387 C 258.491 225.706,256.654 225.987,254.444 226.054 L 252.407 226.115 251.960 224.644 C 251.714 223.835,251.634 223.084,251.783 222.975 C 252.603 222.378,253.263 220.818,252.865 220.420 C 252.634 220.189,252.587 220.000,252.761 220.000 C 252.935 220.000,252.781 219.672,252.418 219.271 C 251.907 218.706,251.601 218.627,251.057 218.918 C 250.671 219.125,250.192 219.193,249.992 219.069 C 249.793 218.946,249.630 219.188,249.630 219.608 C 249.630 220.027,249.463 220.370,249.259 220.370 C 249.056 220.370,248.907 220.495,248.929 220.648 C 249.012 221.226,248.418 222.593,248.083 222.593 C 247.891 222.593,247.837 222.759,247.963 222.963 C 248.089 223.167,247.974 223.336,247.707 223.339 C 247.355 223.343,247.374 223.443,247.778 223.704 C 248.148 223.943,248.179 224.065,247.870 224.068 C 247.616 224.072,247.407 224.417,247.407 224.837 C 247.407 225.339,247.565 225.510,247.870 225.338 C 248.187 225.159,248.216 225.201,247.963 225.470 C 246.379 227.154,245.420 224.154,246.877 222.074 C 247.531 221.141,247.562 220.619,246.944 220.932 C 246.690 221.061,246.773 220.927,247.130 220.635 C 248.205 219.753,247.888 219.299,246.249 219.374 C 244.924 219.435,244.702 219.333,244.584 218.611 C 244.453 217.805,244.766 217.625,246.204 217.678 C 246.458 217.688,246.669 217.506,246.672 217.274 C 246.676 217.036,246.825 217.084,247.014 217.384 C 247.274 217.794,247.469 217.817,247.870 217.485 C 248.155 217.248,248.775 217.129,249.247 217.220 C 249.719 217.311,250.362 217.242,250.676 217.066 C 251.459 216.628,253.010 216.842,253.493 217.456 M264.628 217.040 C 264.501 217.245,264.648 217.509,264.954 217.626 C 265.261 217.744,265.788 218.263,266.127 218.780 C 266.466 219.298,266.561 219.608,266.339 219.471 C 266.086 219.315,266.017 219.436,266.154 219.793 C 266.275 220.108,266.523 220.274,266.705 220.161 C 267.385 219.741,267.008 220.772,266.255 221.393 C 265.825 221.747,265.280 222.219,265.044 222.442 C 264.807 222.664,264.325 222.804,263.972 222.752 C 263.619 222.700,263.424 222.810,263.539 222.995 C 263.653 223.181,263.564 223.333,263.341 223.333 C 263.079 223.333,263.104 223.518,263.411 223.850 C 263.674 224.134,264.002 224.298,264.141 224.214 C 264.280 224.131,264.498 224.232,264.626 224.439 C 264.755 224.647,265.440 224.744,266.150 224.656 C 267.289 224.515,267.414 224.580,267.214 225.211 C 267.074 225.654,267.161 225.926,267.444 225.926 C 268.248 225.926,267.509 226.350,266.514 226.460 C 265.987 226.517,265.556 226.437,265.556 226.280 C 265.556 226.123,265.222 226.082,264.815 226.189 C 264.384 226.302,264.074 226.200,264.074 225.947 C 264.074 225.708,263.918 225.609,263.726 225.727 C 263.535 225.845,263.207 225.646,262.997 225.286 C 262.787 224.925,262.610 224.775,262.604 224.953 C 262.598 225.130,262.354 225.078,262.063 224.836 C 261.638 224.484,261.448 224.556,261.103 225.201 C 260.794 225.777,260.559 225.892,260.272 225.606 C 259.790 225.123,259.661 223.333,260.108 223.333 C 260.283 223.333,260.389 222.875,260.343 222.315 C 260.233 220.967,260.733 219.211,261.153 219.470 C 261.337 219.584,261.586 219.417,261.708 219.100 C 261.830 218.782,262.047 218.595,262.190 218.684 C 262.334 218.773,262.856 218.355,263.351 217.756 C 264.190 216.741,265.143 216.206,264.628 217.040 M195.264 219.138 C 195.137 219.803,195.211 220.028,195.498 219.851 C 195.768 219.684,195.839 219.796,195.697 220.166 C 195.576 220.482,195.318 220.741,195.124 220.741 C 194.930 220.741,194.874 220.907,195.000 221.111 C 195.126 221.315,195.072 221.481,194.881 221.481 C 194.690 221.481,194.567 222.190,194.609 223.056 C 194.713 225.217,194.479 225.926,193.661 225.926 C 193.277 225.926,192.949 225.801,192.932 225.648 C 192.772 224.217,192.828 221.213,193.013 221.327 C 193.374 221.551,193.702 219.938,193.478 219.043 C 193.345 218.516,193.483 218.170,193.885 218.016 C 194.246 217.877,194.381 217.595,194.219 217.317 C 194.069 217.061,194.285 217.148,194.698 217.509 C 195.222 217.968,195.393 218.461,195.264 219.138 M209.056 217.678 C 209.165 217.962,209.422 218.091,209.627 217.965 C 209.832 217.838,210.000 217.994,210.000 218.311 C 210.000 218.629,209.806 218.889,209.568 218.889 C 209.330 218.889,209.245 218.999,209.380 219.133 C 209.514 219.267,209.434 219.604,209.203 219.882 C 208.972 220.161,208.913 220.509,209.072 220.657 C 209.231 220.805,209.435 220.718,209.526 220.463 C 209.617 220.208,209.919 220.000,210.198 220.000 C 210.477 220.000,211.287 219.401,211.999 218.668 C 213.199 217.432,213.348 217.376,214.071 217.882 L 214.849 218.427 213.758 219.491 C 213.159 220.077,212.156 220.966,211.531 221.468 L 210.394 222.380 211.401 222.862 C 211.954 223.127,212.107 223.261,211.740 223.158 C 211.370 223.054,211.170 223.129,211.291 223.325 C 211.412 223.520,212.014 223.579,212.629 223.456 C 214.246 223.132,215.786 223.987,214.899 224.715 C 214.547 225.004,214.493 225.119,214.779 224.970 C 215.103 224.802,215.208 224.849,215.056 225.094 C 214.922 225.311,214.054 225.477,213.128 225.463 C 212.092 225.447,211.629 225.320,211.925 225.132 C 212.285 224.904,212.241 224.825,211.756 224.820 C 211.397 224.817,210.818 224.481,210.470 224.074 C 209.800 223.292,208.889 223.079,208.889 223.704 C 208.889 223.907,208.739 224.032,208.556 223.981 C 208.372 223.931,208.212 224.020,208.198 224.180 C 208.185 224.340,207.917 224.728,207.602 225.043 C 207.288 225.358,207.104 225.734,207.193 225.879 C 207.283 226.024,207.038 226.167,206.648 226.196 C 206.259 226.225,205.828 226.067,205.691 225.845 C 205.531 225.586,205.615 225.549,205.926 225.741 C 206.279 225.959,206.321 225.899,206.081 225.520 C 205.586 224.738,205.673 222.256,206.204 222.053 C 206.458 221.955,206.664 221.662,206.661 221.401 C 206.657 221.069,206.547 221.093,206.296 221.481 C 206.099 221.787,205.940 221.870,205.943 221.667 C 205.947 221.463,206.189 220.980,206.481 220.594 C 206.774 220.207,206.910 219.723,206.783 219.518 C 206.656 219.313,206.728 219.254,206.944 219.387 C 207.317 219.618,208.260 217.643,207.933 217.315 C 207.848 217.230,208.021 217.160,208.317 217.160 C 208.614 217.160,208.946 217.393,209.056 217.678 M242.053 217.685 C 242.207 218.042,242.364 218.667,242.401 219.075 C 242.438 219.483,242.657 220.169,242.888 220.600 C 243.119 221.031,243.223 221.469,243.119 221.572 C 243.016 221.676,243.197 221.862,243.522 221.987 C 243.907 222.135,244.022 222.067,243.851 221.790 C 243.690 221.530,243.753 221.469,244.017 221.631 C 244.634 222.013,244.543 222.963,243.889 222.963 C 243.268 222.963,243.131 223.905,243.701 224.258 C 244.058 224.478,242.397 226.296,241.837 226.296 C 241.685 226.296,241.461 226.038,241.340 225.722 C 241.219 225.405,241.267 225.238,241.447 225.349 C 241.627 225.460,241.873 225.294,241.994 224.979 C 242.143 224.590,242.066 224.495,241.755 224.681 C 241.451 224.864,241.467 224.746,241.804 224.331 C 242.258 223.772,242.211 223.713,241.368 223.783 C 240.849 223.826,240.499 223.982,240.590 224.130 C 240.682 224.278,240.431 224.375,240.034 224.345 C 239.636 224.315,239.392 224.159,239.492 223.997 C 239.592 223.836,239.487 223.704,239.259 223.704 C 239.032 223.704,238.948 223.537,239.074 223.333 C 239.200 223.130,239.167 222.963,239.000 222.963 C 238.643 222.963,237.601 224.464,237.584 225.000 C 237.563 225.711,237.010 226.262,236.511 226.071 C 236.214 225.957,236.080 225.546,236.184 225.069 C 236.327 224.414,236.285 224.366,235.964 224.815 C 235.724 225.150,235.565 225.197,235.561 224.934 C 235.558 224.694,235.817 224.235,236.138 223.915 C 236.458 223.595,236.583 223.328,236.415 223.322 C 236.248 223.315,236.435 223.065,236.830 222.766 C 237.310 222.403,237.379 222.222,237.037 222.222 C 236.670 222.222,236.707 222.089,237.168 221.752 C 237.522 221.494,237.838 220.922,237.871 220.481 C 237.904 220.041,238.022 219.722,238.132 219.772 C 238.243 219.822,238.702 219.477,239.153 219.005 C 239.604 218.534,239.854 218.142,239.709 218.135 C 239.406 218.120,241.172 217.070,241.534 217.050 C 241.665 217.043,241.899 217.329,242.053 217.685 M304.209 217.489 C 304.109 217.651,304.288 217.883,304.606 218.005 C 304.925 218.127,305.185 218.386,305.185 218.580 C 305.185 218.774,305.019 218.830,304.815 218.704 C 304.231 218.343,304.383 219.118,304.996 219.626 C 305.299 219.878,305.462 220.221,305.359 220.390 C 305.255 220.558,305.438 220.845,305.766 221.029 C 306.094 221.213,306.348 221.473,306.329 221.607 C 306.205 222.522,306.352 222.972,306.704 222.755 C 306.992 222.576,307.003 222.705,306.740 223.196 C 306.536 223.577,306.353 224.056,306.333 224.259 C 306.313 224.463,306.137 224.630,305.942 224.630 C 305.747 224.630,305.318 224.963,304.988 225.370 C 304.659 225.778,304.495 225.903,304.624 225.648 C 304.753 225.394,304.682 225.185,304.466 225.185 C 304.251 225.185,304.074 225.362,304.074 225.577 C 304.074 225.793,303.922 225.875,303.735 225.760 C 303.549 225.645,303.341 225.711,303.272 225.906 C 302.933 226.878,300.199 226.724,299.081 225.670 C 298.474 225.098,297.842 224.674,297.677 224.728 C 297.511 224.781,297.548 224.503,297.759 224.109 C 298.037 223.589,298.019 223.352,297.694 223.244 C 297.406 223.148,297.540 222.843,298.067 222.391 C 298.519 222.004,298.893 221.516,298.897 221.307 C 298.908 220.819,300.233 219.084,300.627 219.042 C 301.377 218.962,302.198 218.409,302.013 218.109 C 301.900 217.927,302.068 217.778,302.386 217.778 C 302.703 217.778,302.963 217.647,302.963 217.487 C 302.963 217.327,303.284 217.196,303.677 217.196 C 304.069 217.196,304.308 217.328,304.209 217.489 M309.825 217.487 C 309.987 217.341,309.983 217.457,309.816 217.744 C 309.584 218.144,309.699 218.216,310.313 218.056 C 310.753 217.941,311.019 217.998,310.905 218.183 C 310.790 218.367,311.008 218.519,311.389 218.519 C 311.769 218.519,312.404 218.781,312.800 219.102 C 313.195 219.422,313.269 219.564,312.963 219.417 C 312.630 219.257,312.704 219.462,313.148 219.928 C 314.577 221.427,314.861 221.852,314.434 221.852 C 314.209 221.852,314.115 222.144,314.226 222.500 C 314.509 223.411,313.940 224.161,312.911 224.230 C 312.430 224.263,312.079 224.491,312.130 224.737 C 312.181 224.984,311.889 225.206,311.481 225.231 C 310.616 225.286,310.400 225.339,309.559 225.711 C 307.978 226.411,306.914 225.051,307.988 223.704 C 308.555 222.991,308.561 218.822,307.994 219.161 C 307.724 219.323,307.729 219.226,308.008 218.867 C 308.236 218.574,308.377 218.044,308.319 217.690 C 308.237 217.179,308.351 217.119,308.874 217.399 C 309.236 217.593,309.664 217.633,309.825 217.487 M323.096 217.798 C 323.421 218.151,323.397 218.187,322.993 217.957 C 322.623 217.745,322.526 217.811,322.668 218.180 C 322.805 218.538,322.576 218.722,321.941 218.760 C 321.432 218.791,320.911 218.963,320.785 219.143 C 320.659 219.322,320.264 219.484,319.907 219.503 C 319.551 219.522,318.954 219.558,318.580 219.583 C 318.207 219.609,317.901 219.864,317.901 220.149 C 317.901 220.492,318.196 220.616,318.767 220.512 C 319.243 220.426,320.049 220.628,320.557 220.961 C 321.569 221.624,321.738 222.064,321.019 222.162 C 319.321 222.393,316.915 222.873,317.222 222.919 C 317.426 222.949,317.343 223.136,317.037 223.333 C 316.633 223.594,316.614 223.694,316.966 223.698 C 317.233 223.701,317.345 223.875,317.216 224.084 C 317.060 224.336,317.786 224.400,319.374 224.272 C 321.539 224.099,321.786 224.151,321.960 224.818 C 322.066 225.224,322.002 225.463,321.817 225.349 C 321.633 225.235,321.481 225.290,321.481 225.472 C 321.481 225.654,321.273 225.818,321.019 225.837 C 320.284 225.891,318.411 226.319,318.120 226.499 C 317.760 226.721,315.479 226.250,315.725 226.004 C 315.832 225.897,315.778 225.627,315.606 225.404 C 314.935 224.539,314.881 223.333,315.497 222.973 C 315.835 222.776,315.966 222.610,315.788 222.604 C 315.610 222.598,315.694 222.311,315.973 221.966 C 316.253 221.621,316.315 221.438,316.111 221.558 C 315.887 221.691,315.731 221.077,315.715 220.000 C 315.695 218.664,315.811 218.270,316.182 218.412 C 316.454 218.516,316.924 218.396,317.227 218.144 C 317.530 217.893,317.778 217.782,317.778 217.898 C 317.778 218.014,318.378 217.901,319.113 217.647 C 320.707 217.095,322.511 217.164,323.096 217.798 M176.667 217.716 C 176.667 217.886,176.767 218.125,176.889 218.247 C 177.225 218.583,177.280 222.257,176.952 222.460 C 176.795 222.557,176.667 222.778,176.667 222.952 C 176.667 223.489,177.751 223.141,178.265 222.438 C 178.533 222.071,179.075 221.834,179.469 221.911 C 180.318 222.076,181.481 221.186,181.481 220.370 C 181.481 219.619,180.289 218.607,179.653 218.819 C 179.323 218.929,179.256 218.823,179.454 218.504 C 179.665 218.162,179.580 218.088,179.162 218.248 C 178.838 218.373,178.373 218.234,178.130 217.941 C 177.651 217.364,176.667 217.213,176.667 217.716 M200.883 217.928 C 201.186 217.812,201.244 218.520,201.088 220.457 C 200.883 222.992,201.006 224.096,201.378 223.056 C 201.469 222.801,201.799 222.593,202.111 222.593 C 202.497 222.593,202.617 222.355,202.485 221.851 C 202.379 221.444,202.431 221.196,202.602 221.302 C 202.772 221.407,203.016 221.324,203.144 221.117 C 203.272 220.910,203.191 220.741,202.963 220.741 C 202.735 220.741,202.658 220.565,202.791 220.349 C 202.924 220.134,203.080 219.532,203.137 219.011 C 203.256 217.921,204.042 217.290,204.651 217.796 C 204.881 217.986,205.149 218.061,205.248 217.961 C 205.348 217.862,205.416 218.155,205.400 218.613 C 205.384 219.070,205.162 219.578,204.907 219.741 C 204.653 219.904,204.444 220.205,204.444 220.411 C 204.444 220.616,204.628 220.671,204.852 220.533 C 205.138 220.356,205.153 220.487,204.902 220.974 C 204.705 221.355,204.619 221.875,204.711 222.130 C 204.802 222.384,204.677 222.593,204.432 222.593 C 204.173 222.593,204.067 222.896,204.178 223.321 C 204.283 223.721,204.261 224.013,204.129 223.969 C 203.997 223.925,203.858 224.027,203.821 224.195 C 203.474 225.748,201.391 226.225,200.711 224.907 C 200.423 224.347,200.019 223.766,199.815 223.617 C 199.274 223.219,198.808 223.274,199.074 223.704 C 199.200 223.907,199.117 224.074,198.889 224.074 C 198.661 224.074,198.578 224.241,198.704 224.444 C 198.830 224.648,198.761 224.815,198.552 224.815 C 198.343 224.815,198.267 225.065,198.385 225.370 C 198.680 226.140,197.785 226.072,197.182 225.278 C 196.530 224.418,196.538 223.160,197.200 222.611 C 197.494 222.367,197.642 221.930,197.531 221.640 C 197.419 221.349,197.513 221.111,197.738 221.111 C 197.964 221.111,198.148 220.788,198.148 220.392 C 198.148 219.997,198.318 219.569,198.525 219.441 C 198.732 219.313,198.789 219.027,198.653 218.806 C 198.493 218.548,198.579 218.512,198.895 218.707 C 199.254 218.929,199.320 218.840,199.141 218.375 C 198.996 217.997,199.046 217.831,199.264 217.966 C 199.465 218.090,199.630 217.982,199.630 217.726 C 199.630 217.381,199.738 217.368,200.045 217.675 C 200.274 217.903,200.651 218.017,200.883 217.928 M279.484 218.333 C 279.725 218.537,279.845 218.831,279.750 218.988 C 279.010 220.209,279.288 221.067,280.460 221.180 C 281.124 221.244,281.611 221.444,281.542 221.625 C 281.474 221.806,281.641 222.114,281.913 222.308 C 282.297 222.584,282.277 222.621,281.819 222.477 C 280.517 222.066,278.697 222.768,278.820 223.633 C 279.037 225.156,277.325 226.046,276.641 224.766 C 276.345 224.214,276.342 224.059,276.630 224.236 C 276.875 224.388,277.037 224.188,277.037 223.733 C 277.037 223.112,276.840 223.000,275.926 223.107 C 275.315 223.178,274.815 223.082,274.815 222.893 C 274.815 222.704,274.644 222.654,274.435 222.783 C 274.227 222.912,274.102 222.797,274.157 222.528 C 274.213 222.258,274.068 222.073,273.834 222.117 C 273.235 222.230,273.656 220.838,274.296 220.593 C 274.581 220.483,274.815 220.134,274.815 219.817 C 274.815 219.298,274.923 219.296,275.908 219.805 C 277.392 220.573,277.904 220.522,277.670 219.629 C 277.564 219.221,277.628 218.981,277.812 219.095 C 277.997 219.210,278.148 218.960,278.148 218.540 C 278.148 217.760,278.703 217.674,279.484 218.333 M186.749 220.006 C 185.827 221.482,187.487 222.018,188.452 220.556 L 188.940 219.815 188.707 220.556 C 188.540 221.090,188.587 221.184,188.879 220.895 C 189.102 220.675,189.191 220.252,189.077 219.957 C 188.765 219.142,187.268 219.174,186.749 220.006 M263.333 219.837 C 263.333 220.194,263.157 220.312,262.870 220.148 C 262.616 220.001,262.531 220.018,262.682 220.184 C 262.833 220.351,262.771 220.711,262.544 220.984 C 262.216 221.379,262.325 221.465,263.076 221.402 C 263.596 221.360,263.922 221.165,263.801 220.970 C 263.679 220.772,263.838 220.713,264.158 220.836 C 264.587 221.001,264.720 220.829,264.681 220.158 C 264.624 219.156,263.333 218.848,263.333 219.837 M309.459 219.907 C 309.888 220.905,309.919 222.725,309.516 223.250 C 309.317 223.509,309.261 223.829,309.392 223.960 C 309.523 224.090,309.630 224.003,309.630 223.765 C 309.630 223.528,309.806 223.333,310.022 223.333 C 310.238 223.333,310.312 223.498,310.188 223.699 C 310.058 223.909,310.206 223.972,310.534 223.846 C 310.849 223.725,311.015 223.477,310.902 223.295 C 310.697 222.962,311.229 222.815,312.167 222.944 C 312.442 222.982,312.556 222.834,312.421 222.615 C 312.286 222.396,312.408 222.128,312.693 222.018 C 312.977 221.909,313.210 221.584,313.210 221.297 C 313.210 221.009,313.071 220.859,312.901 220.964 C 312.731 221.069,312.593 220.900,312.593 220.589 C 312.593 220.213,312.385 220.103,311.976 220.260 C 311.526 220.433,311.443 220.363,311.667 220.000 C 311.891 219.637,311.807 219.567,311.357 219.740 C 311.018 219.870,310.741 219.815,310.741 219.618 C 310.741 219.421,310.390 219.259,309.960 219.259 C 309.358 219.259,309.244 219.407,309.459 219.907 M239.962 220.401 C 239.678 220.582,239.611 220.737,239.815 220.747 C 240.019 220.756,239.935 220.968,239.630 221.217 C 238.699 221.975,238.891 222.406,240.174 222.433 C 241.206 222.455,241.387 222.334,241.346 221.648 C 241.280 220.575,240.623 219.983,239.962 220.401 M300.833 221.253 C 299.659 222.379,299.156 223.645,300.093 223.116 C 300.463 222.907,300.463 222.954,300.093 223.353 C 299.330 224.175,299.550 224.352,301.204 224.248 C 302.069 224.193,303.079 224.132,303.448 224.111 C 303.816 224.091,304.016 223.909,303.892 223.708 C 303.757 223.490,303.924 223.441,304.304 223.587 C 304.800 223.777,304.888 223.688,304.698 223.193 C 304.552 222.813,304.601 222.646,304.819 222.780 C 305.020 222.905,305.185 222.747,305.185 222.429 C 305.185 222.112,304.977 221.894,304.722 221.944 C 304.455 221.998,304.309 221.747,304.377 221.352 C 304.446 220.945,304.335 220.764,304.103 220.908 C 303.865 221.055,303.799 220.924,303.933 220.575 C 304.189 219.907,303.154 219.762,302.753 220.410 C 302.595 220.666,302.413 220.685,302.269 220.460 C 302.141 220.261,301.495 220.619,300.833 221.253 M275.062 220.988 C 274.926 221.123,274.817 221.415,274.820 221.636 C 274.824 221.856,274.988 221.787,275.185 221.481 C 275.425 221.111,275.546 221.080,275.550 221.389 C 275.553 221.644,275.717 221.852,275.914 221.852 C 276.112 221.852,276.177 221.602,276.060 221.296 C 275.832 220.702,275.462 220.588,275.062 220.988 M335.144 221.322 C 335.370 221.182,335.556 221.254,335.556 221.481 C 335.556 221.709,335.722 221.793,335.926 221.667 C 336.130 221.541,336.296 221.684,336.296 221.986 C 336.296 222.899,329.190 223.750,328.665 222.900 C 328.493 222.621,328.570 222.581,328.895 222.781 C 329.246 222.998,329.321 222.918,329.160 222.499 C 328.862 221.721,329.723 221.403,332.130 221.403 C 333.339 221.403,334.076 221.243,334.080 220.979 C 334.083 220.725,334.215 220.760,334.409 221.066 C 334.587 221.347,334.917 221.462,335.144 221.322 M166.385 221.637 C 166.270 221.824,166.452 221.871,166.791 221.741 C 167.130 221.611,167.407 221.660,167.407 221.850 C 167.407 222.476,165.978 222.977,163.805 223.112 C 162.629 223.186,161.333 223.364,160.926 223.510 C 160.308 223.730,160.277 223.701,160.741 223.336 C 161.203 222.972,161.155 222.930,160.454 223.084 C 159.391 223.317,159.454 222.223,160.535 221.667 C 161.445 221.199,166.673 221.172,166.385 221.637 M301.852 221.254 C 301.852 221.332,301.394 221.691,300.833 222.052 L 299.815 222.707 300.520 221.909 C 301.145 221.203,301.852 220.855,301.852 221.254 " stroke="none" fill="#040c0c" fill-rule="evenodd"></path></g></svg>