<svg id="svg" version="1.1" xmlns="http://www.w3.org/2000/svg" xmlns:xlink="http://www.w3.org/1999/xlink" width="400" height="400" viewBox="0, 0, 400,400"><g id="svgg"><path id="path0" d="M175.432 172.099 C 175.296 172.235,175.185 173.725,175.185 175.410 L 175.185 178.474 176.574 178.589 L 177.963 178.704 177.963 185.926 L 177.963 193.148 176.667 193.333 L 175.370 193.519 175.263 196.574 L 175.155 199.630 182.578 199.630 L 190.000 199.630 190.000 196.503 L 190.000 193.376 188.426 193.262 C 186.855 193.148,186.852 193.145,186.852 191.667 L 186.852 190.185 190.093 190.078 L 193.333 189.971 193.333 186.550 L 193.333 183.130 190.093 183.139 L 186.852 183.148 186.742 181.050 L 186.632 178.951 189.334 178.816 C 192.430 178.661,192.876 178.863,193.034 180.491 C 193.148 181.665,193.151 181.667,195.544 181.779 C 199.821 181.980,199.630 182.220,199.630 176.660 L 199.630 171.852 187.654 171.852 C 181.068 171.852,175.568 171.963,175.432 172.099 M217.898 172.315 C 217.606 172.774,217.426 202.351,217.710 203.241 C 217.814 203.570,218.907 203.704,221.481 203.704 C 224.050 203.704,225.152 203.569,225.264 203.241 C 225.397 202.853,225.364 172.965,225.230 172.130 C 225.150 171.631,218.221 171.806,217.898 172.315 M243.951 172.099 C 243.587 172.462,243.661 177.507,244.039 178.104 C 244.245 178.430,244.782 178.553,245.523 178.444 C 247.057 178.219,247.086 178.377,246.957 186.296 L 246.852 192.778 245.370 192.963 L 243.889 193.148 243.782 196.389 L 243.675 199.630 250.912 199.630 L 258.148 199.630 258.148 196.296 L 258.148 192.963 256.852 192.963 L 255.556 192.963 255.556 189.780 L 255.556 186.597 256.759 188.083 C 257.421 188.901,259.630 191.838,261.667 194.610 L 265.370 199.650 269.074 199.547 L 272.778 199.444 272.876 189.198 L 272.975 178.952 274.450 178.703 L 275.926 178.453 275.926 175.144 L 275.926 171.836 268.981 171.936 L 262.037 172.037 261.835 175.000 C 261.578 178.779,261.655 178.993,263.201 178.812 L 264.444 178.667 264.444 181.786 C 264.444 185.308,264.159 185.384,262.242 182.374 C 261.712 181.541,260.495 179.874,259.537 178.670 C 258.580 177.466,257.043 175.440,256.121 174.167 L 254.446 171.852 249.322 171.852 C 246.503 171.852,244.086 171.963,243.951 172.099 " stroke="none" fill="#fcfcfc" fill-rule="evenodd"></path><path id="path1" d="M175.035 215.463 C 174.924 215.819,174.900 217.028,174.979 218.148 C 175.059 219.269,174.905 221.029,174.637 222.061 C 173.441 226.668,174.711 227.465,179.533 225.134 C 185.085 222.450,184.302 217.978,177.856 215.552 C 175.466 214.652,175.287 214.647,175.035 215.463 M233.695 217.315 C 231.780 221.710,230.263 223.698,231.130 220.675 C 231.859 218.133,231.206 215.926,229.724 215.926 C 229.188 215.926,226.998 218.810,225.873 220.998 C 225.643 221.445,225.233 221.896,224.962 222.000 C 224.367 222.229,224.634 220.385,225.423 218.815 C 226.116 217.437,226.053 216.526,225.213 215.766 C 223.378 214.105,221.811 216.584,220.899 222.593 C 220.355 226.171,223.784 227.534,226.902 224.979 L 228.510 223.661 229.137 224.975 C 230.734 228.325,233.565 226.396,236.209 220.156 C 237.547 216.999,237.034 214.815,234.954 214.815 C 234.861 214.815,234.294 215.940,233.695 217.315 M292.407 216.154 C 287.257 219.104,286.184 223.428,290.037 225.704 C 291.413 226.517,295.583 226.614,296.718 225.861 C 297.454 225.372,297.607 225.385,298.214 225.991 C 299.399 227.177,303.939 226.713,305.991 225.195 C 306.893 224.529,307.075 224.498,307.228 224.985 C 307.327 225.299,307.486 225.806,307.581 226.111 C 307.894 227.113,311.745 225.983,313.575 224.353 C 314.370 223.644,314.373 223.646,314.617 224.759 C 315.011 226.551,315.600 226.803,318.768 226.535 C 320.320 226.404,321.816 226.109,322.092 225.881 C 323.421 224.777,321.898 223.052,320.173 223.708 C 318.679 224.276,317.390 224.180,317.644 223.519 C 317.787 223.145,318.374 222.963,319.439 222.963 C 322.277 222.963,322.714 220.787,319.962 220.361 C 318.582 220.148,319.539 219.646,321.348 219.635 C 321.784 219.632,322.534 219.309,323.015 218.916 L 323.889 218.203 323.056 217.420 C 322.239 216.654,322.163 216.649,319.201 217.211 C 315.580 217.898,315.096 218.223,315.386 219.774 C 315.505 220.407,315.435 221.343,315.232 221.852 L 314.862 222.778 314.838 221.702 C 314.809 220.372,312.416 217.961,310.765 217.598 C 310.145 217.462,309.543 217.197,309.427 217.009 C 308.410 215.364,307.594 216.975,307.724 220.370 C 307.751 221.083,307.625 222.250,307.443 222.963 C 307.226 223.814,307.100 223.983,307.075 223.457 C 307.054 223.015,306.677 221.849,306.238 220.864 C 305.798 219.880,305.469 218.819,305.507 218.506 C 305.576 217.932,304.284 216.296,303.761 216.296 C 302.147 216.296,297.407 221.713,297.407 223.558 C 297.407 224.480,297.356 224.514,296.759 223.994 C 296.398 223.679,295.069 223.340,293.753 223.227 C 292.457 223.116,291.244 222.873,291.058 222.687 C 290.275 221.905,293.792 219.237,296.759 218.362 C 297.729 218.077,297.613 216.112,296.584 215.391 C 295.454 214.600,294.965 214.689,292.407 216.154 M186.245 217.963 C 185.572 218.676,184.845 219.259,184.628 219.259 C 184.125 219.259,182.850 224.831,183.165 225.652 C 183.510 226.551,184.793 226.847,185.458 226.182 C 185.959 225.682,186.195 225.697,187.670 226.329 C 190.413 227.505,191.852 227.316,191.852 225.781 C 191.852 224.576,191.780 224.512,190.112 224.207 C 188.381 223.890,187.875 223.267,189.147 223.017 C 191.522 222.552,191.748 219.232,189.532 217.382 C 188.330 216.379,187.620 216.505,186.245 217.963 M193.698 217.229 C 193.248 217.772,192.888 219.099,192.250 222.570 C 191.817 224.928,192.610 226.757,193.996 226.597 C 194.956 226.487,195.010 226.367,195.225 223.889 C 195.349 222.463,195.617 220.880,195.820 220.370 C 196.206 219.404,196.143 218.890,195.466 217.500 C 194.994 216.531,194.358 216.434,193.698 217.229 M197.858 219.737 C 196.281 222.978,196.183 223.296,196.252 224.894 C 196.336 226.816,198.669 227.116,199.134 225.265 L 199.372 224.316 200.224 225.306 C 202.052 227.432,204.179 225.955,205.097 221.922 C 205.360 220.763,205.679 219.417,205.804 218.930 C 206.032 218.045,204.857 216.695,203.841 216.675 C 203.335 216.665,202.726 218.188,202.452 220.153 C 202.112 222.581,201.346 222.778,201.609 220.370 C 201.732 219.250,201.711 218.150,201.564 217.926 C 201.315 217.547,199.883 216.667,199.515 216.667 C 199.425 216.667,198.679 218.048,197.858 219.737 M207.270 217.685 C 205.269 221.556,204.637 225.685,205.924 226.480 C 206.501 226.837,208.148 226.374,208.148 225.855 C 208.148 224.490,209.285 224.114,210.637 225.031 C 212.840 226.526,215.926 226.148,215.926 224.383 C 215.926 223.682,214.641 222.798,214.104 223.129 C 213.579 223.454,211.481 222.909,211.481 222.448 C 211.481 222.215,212.315 221.480,213.333 220.813 C 216.638 218.649,215.090 216.177,211.688 218.185 C 210.590 218.833,210.370 218.867,210.370 218.391 C 210.370 216.806,208.003 216.267,207.270 217.685 M239.855 217.583 C 239.518 218.098,238.988 218.519,238.678 218.519 C 237.728 218.519,235.048 224.774,235.538 225.849 C 236.051 226.977,237.406 226.818,238.036 225.556 C 238.626 224.375,239.881 224.504,240.978 225.859 C 242.018 227.144,243.695 226.694,244.210 224.993 C 244.393 224.386,244.722 223.503,244.940 223.031 C 245.343 222.160,244.875 221.501,243.844 221.487 C 243.616 221.484,243.321 220.666,243.188 219.669 C 242.940 217.795,242.594 217.298,241.253 216.888 C 240.667 216.709,240.313 216.885,239.855 217.583 M247.778 217.118 C 247.778 217.277,246.861 217.407,245.741 217.407 C 243.862 217.407,243.704 217.474,243.704 218.259 C 243.704 219.398,244.370 220.000,245.630 220.000 C 246.825 220.000,246.867 220.172,246.111 221.980 C 244.799 225.121,246.402 228.360,248.320 226.442 C 248.779 225.983,248.817 225.730,248.486 225.331 C 248.161 224.940,248.170 224.526,248.523 223.611 C 249.618 220.775,250.212 219.648,250.618 219.639 C 250.856 219.634,251.314 219.528,251.636 219.405 C 252.416 219.106,252.430 221.361,251.655 222.386 C 250.937 223.335,250.965 224.812,251.723 225.894 C 252.368 226.815,257.729 226.863,258.636 225.956 C 258.860 225.732,259.184 225.798,259.521 226.135 C 260.185 226.799,260.944 226.814,261.541 226.175 C 261.922 225.767,262.306 225.799,263.782 226.360 C 265.971 227.192,267.166 227.219,267.804 226.450 C 268.525 225.582,267.804 224.699,266.011 224.257 C 264.105 223.786,263.786 223.471,264.879 223.139 C 267.754 222.266,268.020 219.418,265.423 217.323 C 263.642 215.886,260.255 218.553,259.622 221.892 C 259.215 224.041,258.984 224.457,258.572 223.790 C 258.369 223.462,257.955 223.440,257.021 223.708 C 255.108 224.257,254.056 224.183,254.311 223.519 C 254.454 223.145,255.041 222.963,256.105 222.963 C 258.946 222.963,259.376 220.806,256.628 220.344 L 255.370 220.133 256.852 219.858 C 259.119 219.437,260.000 218.973,260.000 218.201 C 260.000 216.871,259.151 216.578,256.695 217.061 C 255.015 217.392,254.322 217.397,253.942 217.081 C 253.375 216.611,247.778 216.644,247.778 217.118 M277.482 218.485 C 276.976 219.317,276.687 219.485,276.217 219.222 C 275.471 218.805,273.704 219.524,273.704 220.245 C 273.704 220.517,273.526 220.741,273.309 220.741 C 272.143 220.741,273.201 222.791,274.537 223.121 C 275.717 223.412,275.926 223.615,275.926 224.470 C 275.926 225.488,276.488 225.926,277.795 225.926 C 278.572 225.926,279.259 224.895,279.259 223.728 C 279.259 223.085,279.491 222.963,280.710 222.963 C 281.535 222.963,282.232 222.763,282.326 222.500 C 282.612 221.705,281.865 220.741,280.963 220.741 C 280.299 220.741,280.114 220.549,280.159 219.907 C 280.311 217.698,278.535 216.754,277.482 218.485 M179.512 219.352 C 181.139 220.460,180.909 221.088,178.500 222.109 L 177.555 222.509 177.574 220.514 C 177.595 218.276,177.774 218.169,179.512 219.352 M311.500 220.565 C 312.837 221.257,312.870 221.653,311.655 222.449 C 310.545 223.177,310.536 223.170,310.261 221.389 C 310.017 219.806,310.024 219.802,311.500 220.565 M303.849 221.327 C 304.418 222.809,303.080 224.074,300.944 224.074 C 299.717 224.074,299.753 223.785,301.188 222.119 C 302.444 220.662,303.476 220.354,303.849 221.327 " stroke="none" fill="#04b4fc" fill-rule="evenodd"></path><path id="path2" d="M115.450 176.294 C 110.212 185.459,105.926 193.126,105.926 193.331 C 105.926 193.576,112.511 193.704,125.185 193.704 C 142.796 193.704,144.444 193.652,144.444 193.096 C 144.444 192.260,125.835 159.633,125.357 159.631 C 125.146 159.630,120.688 167.129,115.450 176.294 M67.960 162.966 L 65.385 165.561 70.929 171.114 L 76.472 176.667 70.929 182.220 L 65.385 187.772 67.963 190.371 L 70.541 192.969 76.109 187.410 L 81.676 181.851 87.037 187.222 C 93.278 193.474,92.555 193.213,95.474 190.268 C 98.384 187.331,98.663 188.096,92.407 181.852 L 87.037 176.491 92.492 171.026 L 97.948 165.562 95.559 163.151 C 92.548 160.114,93.301 159.858,87.134 166.014 L 81.852 171.287 76.384 165.829 C 69.950 159.405,71.104 159.797,67.960 162.966 M125.477 186.212 C 121.795 186.268,118.711 186.242,118.623 186.154 C 118.536 186.066,120.009 183.325,121.896 180.062 L 125.329 174.128 128.750 180.120 L 132.171 186.111 125.477 186.212 M122.778 206.664 C 113.372 208.138,107.142 216.581,108.482 226.041 C 110.803 242.427,133.527 245.898,140.600 230.946 C 146.505 218.465,136.290 204.548,122.778 206.664 M64.815 225.185 L 64.815 240.370 80.185 240.370 L 95.556 240.370 95.556 225.185 L 95.556 210.000 80.185 210.000 L 64.815 210.000 64.815 225.185 M129.548 215.029 C 135.925 218.206,136.737 226.993,131.036 231.123 C 121.376 238.120,110.465 225.434,118.643 216.714 C 121.267 213.917,125.885 213.203,129.548 215.029 M88.148 225.185 L 88.148 233.333 80.000 233.333 L 71.852 233.333 71.852 225.185 L 71.852 217.037 80.000 217.037 L 88.148 217.037 88.148 225.185 M160.278 221.006 C 159.522 221.120,159.261 221.369,159.265 221.969 C 159.278 223.835,159.706 223.905,166.204 223.110 C 167.888 222.904,168.205 222.332,167.196 221.323 C 166.627 220.754,163.030 220.589,160.278 221.006 M329.331 221.005 C 328.620 221.141,328.495 221.366,328.590 222.343 L 328.704 223.519 331.296 223.425 C 336.872 223.222,337.941 222.785,336.360 221.354 C 335.698 220.755,331.681 220.556,329.331 221.005 " stroke="none" fill="#fc4404" fill-rule="evenodd"></path><path id="path3" d="" stroke="none" fill="#bc100c0" fill-rule="evenodd"></path><path id="path4" d="" stroke="none" fill="#bca440" fill-rule="evenodd"></path></g></svg>