<svg id="svg" version="1.1" xmlns="http://www.w3.org/2000/svg" xmlns:xlink="http://www.w3.org/1999/xlink" width="400" height="400" viewBox="0, 0, 400,400"><g id="svgg"><path id="path0" d="M175.432 172.099 C 175.296 172.235,175.185 173.725,175.185 175.410 L 175.185 178.474 176.574 178.589 L 177.963 178.704 177.963 185.926 L 177.963 193.148 176.667 193.333 L 175.370 193.519 175.263 196.574 L 175.155 199.630 182.578 199.630 L 190.000 199.630 190.000 196.503 L 190.000 193.376 188.426 193.262 C 186.855 193.148,186.852 193.145,186.852 191.667 L 186.852 190.185 190.093 190.078 L 193.333 189.971 193.333 186.550 L 193.333 183.130 190.093 183.139 L 186.852 183.148 186.742 181.050 L 186.632 178.951 189.334 178.816 C 192.430 178.661,192.876 178.863,193.034 180.491 C 193.148 181.665,193.151 181.667,195.544 181.779 C 199.821 181.980,199.630 182.220,199.630 176.660 L 199.630 171.852 187.654 171.852 C 181.068 171.852,175.568 171.963,175.432 172.099 M217.898 172.315 C 217.606 172.774,217.426 202.351,217.710 203.241 C 217.814 203.570,218.907 203.704,221.481 203.704 C 224.050 203.704,225.152 203.569,225.264 203.241 C 225.397 202.853,225.364 172.965,225.230 172.130 C 225.150 171.631,218.221 171.806,217.898 172.315 M243.951 172.099 C 243.587 172.462,243.661 177.507,244.039 178.104 C 244.245 178.430,244.782 178.553,245.523 178.444 C 247.057 178.219,247.086 178.377,246.957 186.296 L 246.852 192.778 245.370 192.963 L 243.889 193.148 243.782 196.389 L 243.675 199.630 250.912 199.630 L 258.148 199.630 258.148 196.296 L 258.148 192.963 256.852 192.963 L 255.556 192.963 255.556 189.780 L 255.556 186.597 256.759 188.083 C 257.421 188.901,259.630 191.838,261.667 194.610 L 265.370 199.650 269.074 199.547 L 272.778 199.444 272.876 189.198 L 272.975 178.952 274.450 178.703 L 275.926 178.453 275.926 175.144 L 275.926 171.836 268.981 171.936 L 262.037 172.037 261.835 175.000 C 261.578 178.779,261.655 178.993,263.201 178.812 L 264.444 178.667 264.444 181.786 C 264.444 185.308,264.159 185.384,262.242 182.374 C 261.712 181.541,260.495 179.874,259.537 178.670 C 258.580 177.466,257.043 175.440,256.121 174.167 L 254.446 171.852 249.322 171.852 C 246.503 171.852,244.086 171.963,243.951 172.099 M92.222 182.037 C 95.171 184.991,97.666 187.407,97.768 187.407 C 97.870 187.407,95.541 184.991,92.593 182.037 C 89.644 179.083,87.148 176.667,87.047 176.667 C 86.945 176.667,89.274 179.083,92.222 182.037 M95.174 190.278 L 92.778 192.778 95.278 190.381 C 96.653 189.063,97.778 187.938,97.778 187.881 C 97.778 187.608,97.401 187.956,95.174 190.278 " stroke="none" fill="#fcfcfc" fill-rule="evenodd"></path><path id="path1" d="M175.086 215.280 C 174.976 215.566,174.939 216.826,175.004 218.080 C 175.068 219.334,174.909 221.163,174.651 222.143 C 173.566 226.254,174.579 227.213,178.365 225.661 C 183.590 223.519,184.783 220.630,181.600 217.828 C 179.362 215.858,175.451 214.328,175.086 215.280 M233.882 216.944 C 231.674 221.714,231.400 222.222,231.038 222.222 C 230.831 222.222,230.763 221.958,230.887 221.635 C 231.600 219.777,231.553 217.215,230.794 216.529 C 229.692 215.533,229.117 215.927,227.135 219.042 C 226.164 220.568,225.151 221.906,224.883 222.017 C 224.349 222.237,224.398 221.947,225.455 218.627 C 226.721 214.648,223.560 213.671,222.111 217.593 C 219.433 224.840,222.078 228.932,226.891 224.988 L 228.487 223.680 229.110 224.895 C 230.687 227.974,232.964 226.899,235.386 221.931 C 237.145 218.323,237.396 216.656,236.339 215.599 C 235.202 214.461,234.975 214.586,233.882 216.944 M292.230 216.330 C 287.189 219.281,286.204 223.440,290.015 225.691 C 291.307 226.454,295.842 226.525,296.837 225.797 C 297.424 225.368,297.616 225.394,298.205 225.982 C 299.399 227.177,303.930 226.719,305.991 225.195 C 306.893 224.529,307.075 224.498,307.228 224.985 C 307.327 225.299,307.486 225.806,307.581 226.111 C 307.892 227.108,311.929 225.865,313.760 224.208 C 314.317 223.704,314.397 223.756,314.618 224.764 C 315.178 227.314,322.593 227.402,322.593 224.859 C 322.593 223.894,321.301 223.280,320.173 223.708 C 318.679 224.276,317.390 224.180,317.644 223.519 C 317.787 223.145,318.374 222.963,319.439 222.963 C 322.277 222.963,322.714 220.787,319.962 220.361 C 318.582 220.148,319.539 219.646,321.348 219.635 C 321.784 219.632,322.534 219.309,323.015 218.916 L 323.889 218.203 323.056 217.420 C 322.239 216.654,322.163 216.649,319.201 217.211 C 315.580 217.898,315.096 218.223,315.386 219.774 C 315.505 220.407,315.435 221.343,315.232 221.852 L 314.862 222.778 314.838 221.702 C 314.806 220.235,312.541 218.153,310.035 217.287 C 307.660 216.467,307.691 216.439,307.708 219.334 C 307.721 221.554,307.158 225.218,307.075 223.457 C 307.054 223.015,306.676 221.849,306.236 220.864 C 305.795 219.880,305.472 218.917,305.519 218.724 C 305.668 218.108,304.745 216.735,304.062 216.556 C 302.429 216.129,297.407 221.390,297.407 223.527 C 297.407 224.478,297.357 224.515,296.759 223.994 C 296.398 223.679,295.069 223.340,293.753 223.227 C 292.457 223.116,291.244 222.873,291.058 222.687 C 290.275 221.905,293.792 219.237,296.759 218.362 C 297.578 218.121,297.636 216.206,296.844 215.549 C 295.830 214.707,294.667 214.904,292.230 216.330 M186.245 217.963 C 185.572 218.676,184.846 219.259,184.632 219.259 C 184.122 219.259,182.934 224.437,183.205 225.474 C 183.477 226.516,184.730 226.910,185.458 226.182 C 185.959 225.682,186.195 225.697,187.670 226.329 C 190.413 227.505,191.852 227.316,191.852 225.781 C 191.852 224.576,191.780 224.512,190.112 224.207 C 188.381 223.890,187.875 223.267,189.147 223.017 C 191.522 222.552,191.748 219.232,189.532 217.382 C 188.330 216.379,187.620 216.505,186.245 217.963 M193.698 217.229 C 193.248 217.772,192.888 219.099,192.250 222.570 C 191.817 224.928,192.610 226.757,193.996 226.597 C 194.956 226.487,195.010 226.367,195.225 223.889 C 195.349 222.463,195.622 220.878,195.831 220.366 C 196.617 218.442,194.849 215.842,193.698 217.229 M197.858 219.737 C 196.281 222.978,196.183 223.296,196.252 224.894 C 196.335 226.789,198.667 227.123,199.124 225.305 L 199.352 224.395 200.344 225.346 C 202.336 227.254,204.186 225.921,205.097 221.922 C 205.360 220.763,205.679 219.417,205.804 218.930 C 206.034 218.038,204.855 216.694,203.825 216.675 C 203.365 216.666,202.806 218.173,202.424 220.450 C 202.031 222.796,201.330 222.641,201.609 220.270 C 201.836 218.339,201.787 218.151,200.876 217.434 C 199.497 216.350,199.511 216.339,197.858 219.737 M206.991 218.426 C 205.369 222.176,204.811 224.520,205.297 225.538 C 205.984 226.976,207.122 226.926,208.282 225.404 L 209.273 224.106 210.614 225.016 C 212.157 226.063,214.814 226.264,215.541 225.388 C 216.048 224.778,215.729 223.360,215.068 223.281 C 214.465 223.209,213.311 223.102,212.315 223.026 C 210.973 222.924,211.347 222.114,213.333 220.813 C 215.184 219.601,215.605 218.716,214.741 217.852 C 214.090 217.201,212.907 217.323,211.852 218.148 C 210.741 219.017,210.370 219.069,210.370 218.354 C 210.370 217.758,208.991 216.667,208.238 216.667 C 207.970 216.667,207.409 217.458,206.991 218.426 M239.855 217.583 C 239.518 218.098,238.988 218.519,238.678 218.519 C 237.728 218.519,235.048 224.774,235.538 225.849 C 236.051 226.977,237.406 226.818,238.036 225.556 C 238.626 224.375,239.881 224.504,240.978 225.859 C 242.018 227.144,243.695 226.694,244.210 224.993 C 244.393 224.386,244.722 223.503,244.940 223.031 C 245.343 222.160,244.875 221.501,243.844 221.487 C 243.616 221.484,243.321 220.666,243.188 219.669 C 242.940 217.795,242.594 217.298,241.253 216.888 C 240.667 216.709,240.313 216.885,239.855 217.583 M247.778 217.118 C 247.778 217.277,246.861 217.407,245.741 217.407 C 243.862 217.407,243.704 217.474,243.704 218.259 C 243.704 219.398,244.370 220.000,245.630 220.000 C 246.825 220.000,246.867 220.172,246.111 221.980 C 244.799 225.121,246.402 228.360,248.320 226.442 C 248.779 225.983,248.817 225.730,248.486 225.331 C 248.161 224.940,248.170 224.526,248.523 223.611 C 249.618 220.775,250.212 219.648,250.618 219.639 C 250.856 219.634,251.314 219.528,251.636 219.405 C 252.416 219.106,252.430 221.361,251.655 222.386 C 250.937 223.335,250.965 224.812,251.723 225.894 C 252.368 226.815,257.729 226.863,258.636 225.956 C 258.860 225.732,259.184 225.798,259.521 226.135 C 260.193 226.807,260.899 226.813,261.448 226.151 C 261.811 225.714,262.156 225.742,263.720 226.336 C 265.969 227.191,267.161 227.224,267.804 226.450 C 268.525 225.582,267.804 224.699,266.011 224.257 C 264.105 223.786,263.786 223.471,264.879 223.139 C 267.754 222.266,268.020 219.418,265.423 217.323 C 263.654 215.897,260.251 218.575,259.623 221.888 C 259.215 224.041,258.984 224.457,258.572 223.790 C 258.369 223.462,257.955 223.440,257.021 223.708 C 255.108 224.257,254.056 224.183,254.311 223.519 C 254.454 223.145,255.041 222.963,256.105 222.963 C 258.946 222.963,259.376 220.806,256.628 220.344 L 255.370 220.133 256.852 219.858 C 259.119 219.437,260.000 218.973,260.000 218.201 C 260.000 216.871,259.151 216.578,256.695 217.061 C 255.015 217.392,254.322 217.397,253.942 217.081 C 253.375 216.611,247.778 216.644,247.778 217.118 M277.477 218.494 C 276.988 219.297,276.676 219.492,276.278 219.240 C 275.474 218.732,275.277 218.795,274.071 219.948 C 272.347 221.594,273.024 223.333,275.388 223.333 C 275.734 223.333,275.926 223.715,275.926 224.405 C 275.926 225.491,276.460 225.926,277.795 225.926 C 278.572 225.926,279.259 224.895,279.259 223.728 C 279.259 223.085,279.491 222.963,280.710 222.963 C 281.535 222.963,282.232 222.763,282.326 222.500 C 282.618 221.688,281.856 220.741,280.913 220.741 C 280.180 220.741,280.000 220.554,280.000 219.790 C 280.000 217.437,278.567 216.701,277.477 218.494 M179.776 219.485 C 180.976 220.539,180.644 221.213,178.479 222.123 L 177.513 222.528 177.513 220.524 C 177.513 218.188,178.031 217.950,179.776 219.485 M311.500 220.565 C 312.808 221.241,312.864 221.620,311.769 222.386 C 310.507 223.271,310.187 223.090,310.167 221.480 C 310.146 219.778,310.074 219.828,311.500 220.565 M160.278 221.006 C 159.522 221.120,159.261 221.369,159.265 221.969 C 159.278 223.835,159.706 223.905,166.204 223.110 C 167.888 222.904,168.205 222.332,167.196 221.323 C 166.627 220.754,163.030 220.589,160.278 221.006 M303.849 221.327 C 304.418 222.809,303.080 224.074,300.944 224.074 C 299.728 224.074,299.755 223.799,301.138 222.121 C 302.333 220.672,303.470 220.338,303.849 221.327 M329.331 221.005 C 328.620 221.141,328.495 221.366,328.590 222.343 L 328.704 223.519 331.296 223.425 C 336.872 223.222,337.941 222.785,336.360 221.354 C 335.698 220.755,331.681 220.556,329.331 221.005 " stroke="none" fill="#ffa500" fill-rule="evenodd"></path><path id="path2" d="M115.450 176.294 C 110.212 185.459,105.926 193.126,105.926 193.331 C 105.926 193.576,112.524 193.704,125.225 193.704 L 144.525 193.704 144.303 192.821 C 143.965 191.473,125.795 159.651,125.357 159.640 C 125.146 159.634,120.688 167.129,115.450 176.294 M67.960 162.966 L 65.385 165.561 70.929 171.114 L 76.472 176.667 70.925 182.223 L 65.378 187.779 67.971 190.372 L 70.563 192.964 76.110 187.408 L 81.658 181.852 87.122 187.307 L 92.587 192.763 95.185 190.185 L 97.783 187.607 92.322 182.137 L 86.861 176.667 92.404 171.114 L 97.948 165.562 95.559 163.151 C 92.548 160.114,93.301 159.858,87.134 166.014 L 81.852 171.287 76.384 165.829 C 69.950 159.405,71.104 159.797,67.960 162.966 M131.165 184.352 L 132.277 186.296 125.225 186.296 L 118.174 186.296 121.538 180.463 C 123.389 177.255,124.984 174.491,125.084 174.322 C 125.184 174.153,126.343 175.903,127.660 178.211 C 128.976 180.519,130.554 183.282,131.165 184.352 M122.778 206.672 C 113.399 208.104,107.142 216.581,108.482 226.041 C 110.976 243.652,135.633 245.619,141.496 228.674 C 145.511 217.070,135.069 204.795,122.778 206.672 M64.815 225.189 L 64.815 240.379 80.093 240.282 L 95.370 240.185 95.467 225.093 L 95.564 210.000 80.189 210.000 L 64.815 210.000 64.815 225.189 M129.548 215.029 C 135.925 218.206,136.737 226.993,131.036 231.123 C 122.563 237.261,111.949 227.994,116.929 218.805 C 119.318 214.397,124.917 212.721,129.548 215.029 M88.148 225.185 L 88.148 233.333 80.000 233.333 L 71.852 233.333 71.852 225.185 L 71.852 217.037 80.000 217.037 L 88.148 217.037 88.148 225.185 " stroke="none" fill="#00B6FD" fill-rule="evenodd"></path><path id="path3" d="" stroke="none" fill="#e410098" fill-rule="evenodd"></path><path id="path4" d="" stroke="none" fill="#7cc8cc" fill-rule="evenodd"></path></g></svg>