<svg id="svg" version="1.1" xmlns="http://www.w3.org/2000/svg" xmlns:xlink="http://www.w3.org/1999/xlink" width="400" height="400" viewBox="0, 0, 400,400"><g id="svgg"><path id="path0" d="M67.303 162.511 C 64.603 165.239,64.282 164.478,70.926 171.111 L 76.667 176.843 70.926 182.592 C 64.279 189.250,64.607 188.469,67.303 191.193 C 70.013 193.932,69.299 194.230,75.926 187.592 L 81.658 181.852 87.407 187.592 C 94.058 194.234,93.324 193.927,96.030 191.193 C 98.730 188.464,99.051 189.226,92.407 182.592 L 86.666 176.861 92.407 171.111 C 99.049 164.460,98.742 165.194,96.008 162.488 C 93.279 159.788,94.041 159.467,87.407 166.111 L 81.675 171.852 75.926 166.111 C 69.275 159.470,70.009 159.776,67.303 162.511 M124.176 162.870 C 111.239 185.268,108.148 190.704,108.148 191.060 C 108.148 191.369,112.921 191.481,126.111 191.481 C 135.991 191.481,144.074 191.376,144.074 191.246 C 144.074 190.619,126.424 160.397,126.051 160.385 C 125.814 160.377,124.970 161.495,124.176 162.870 M175.432 172.099 C 175.296 172.235,175.185 173.725,175.185 175.410 L 175.185 178.474 176.574 178.589 L 177.963 178.704 177.963 185.926 L 177.963 193.148 176.667 193.333 L 175.370 193.519 175.263 196.574 L 175.155 199.630 182.578 199.630 L 190.000 199.630 190.000 196.503 L 190.000 193.376 188.426 193.262 C 186.855 193.148,186.852 193.145,186.852 191.667 L 186.852 190.185 190.093 190.078 L 193.333 189.971 193.333 186.550 L 193.333 183.130 190.093 183.139 L 186.852 183.148 186.742 181.050 L 186.632 178.951 189.334 178.816 C 192.430 178.661,192.876 178.863,193.034 180.491 C 193.148 181.665,193.151 181.667,195.544 181.779 C 199.821 181.980,199.630 182.220,199.630 176.660 L 199.630 171.852 187.654 171.852 C 181.068 171.852,175.568 171.963,175.432 172.099 M243.951 172.099 C 243.587 172.462,243.661 177.507,244.039 178.104 C 244.245 178.430,244.782 178.553,245.523 178.444 C 247.057 178.219,247.086 178.377,246.957 186.296 L 246.852 192.778 245.370 192.963 L 243.889 193.148 243.782 196.389 L 243.675 199.630 250.912 199.630 L 258.148 199.630 258.148 196.296 L 258.148 192.963 256.852 192.963 L 255.556 192.963 255.556 189.780 L 255.556 186.597 256.759 188.083 C 257.421 188.901,259.630 191.838,261.667 194.610 L 265.370 199.650 269.074 199.547 L 272.778 199.444 272.876 189.198 L 272.975 178.952 274.450 178.703 L 275.926 178.453 275.926 175.144 L 275.926 171.836 268.981 171.936 L 262.037 172.037 261.835 175.000 C 261.578 178.779,261.655 178.993,263.201 178.812 L 264.444 178.667 264.444 181.786 C 264.444 185.308,264.159 185.384,262.242 182.374 C 261.712 181.541,260.495 179.874,259.537 178.670 C 258.580 177.466,257.043 175.440,256.121 174.167 L 254.446 171.852 249.322 171.852 C 246.503 171.852,244.086 171.963,243.951 172.099 M118.765 209.267 C 107.654 213.191,104.177 227.570,112.269 236.126 C 120.170 244.480,134.388 242.094,139.370 231.577 C 145.395 218.857,132.167 204.533,118.765 209.267 M65.185 225.000 L 65.185 240.370 80.556 240.370 L 95.926 240.370 95.926 225.000 L 95.926 209.630 80.556 209.630 L 65.185 209.630 65.185 225.000 " stroke="none" fill="#fcfcfc" fill-rule="evenodd"></path><path id="path1" d="M244.444 209.634 C 241.922 210.492,240.063 210.640,239.006 210.068 C 235.203 208.008,228.139 210.466,226.433 214.444 C 225.326 217.024,224.444 219.809,224.443 220.728 C 224.443 221.244,224.101 223.333,223.685 225.370 C 222.854 229.433,222.766 232.701,223.398 236.111 C 223.624 237.333,223.795 238.637,223.777 239.008 C 223.589 243.009,229.913 246.808,234.478 245.435 C 235.812 245.034,236.315 245.031,237.222 245.418 C 240.022 246.613,244.324 245.544,247.062 242.974 L 248.848 241.296 262.777 241.372 C 270.438 241.414,277.081 241.306,277.539 241.132 C 278.053 240.936,278.649 240.970,279.094 241.219 C 280.667 242.101,285.586 241.742,287.500 240.605 C 289.778 239.251,289.758 239.315,288.489 237.425 C 287.890 236.534,287.206 235.124,286.967 234.291 C 286.728 233.459,286.487 232.716,286.432 232.641 C 286.376 232.565,285.674 233.023,284.871 233.659 C 281.893 236.018,280.002 234.186,281.876 230.758 C 283.472 227.840,283.372 226.963,281.459 227.108 C 280.134 227.209,279.859 227.398,279.144 228.704 C 278.698 229.519,278.232 230.269,278.107 230.370 C 277.983 230.472,277.604 231.097,277.264 231.759 C 276.925 232.421,276.563 232.963,276.459 232.963 C 276.355 232.963,276.449 232.630,276.667 232.222 C 277.212 231.204,276.859 231.292,275.256 232.576 C 271.951 235.222,268.957 235.063,268.330 232.208 C 268.198 231.605,267.944 231.111,267.766 231.111 C 267.588 231.111,267.713 230.569,268.045 229.907 C 268.376 229.245,268.894 228.204,269.196 227.593 C 270.316 225.327,272.823 223.749,274.068 224.527 C 275.599 225.483,274.417 227.399,270.602 230.144 C 268.814 231.431,269.773 233.704,272.103 233.704 C 274.795 233.704,280.286 227.708,279.195 225.961 C 278.852 225.411,278.928 225.059,279.596 224.122 C 280.878 222.321,282.166 222.878,281.633 225.003 C 281.440 225.770,281.559 225.888,282.623 225.993 C 284.551 226.182,284.821 227.640,283.365 230.007 C 281.865 232.444,281.834 233.704,283.276 233.704 C 285.057 233.704,286.185 232.357,286.669 229.650 C 287.116 227.152,288.028 225.044,289.498 223.113 C 290.558 221.720,290.580 221.481,289.647 221.481 C 289.208 221.481,288.478 220.832,287.785 219.826 C 285.412 216.376,280.331 214.819,277.176 216.575 C 276.516 216.943,276.279 216.892,275.702 216.254 C 275.324 215.836,274.495 215.277,273.860 215.012 C 273.225 214.747,272.341 213.939,271.894 213.217 C 270.372 210.754,266.089 209.660,262.198 210.741 C 260.794 211.131,258.519 212.926,258.519 213.644 C 258.519 213.881,258.115 214.074,257.623 214.074 C 257.130 214.074,256.472 214.172,256.160 214.292 C 255.764 214.444,255.434 214.129,255.067 213.253 C 253.459 209.402,249.295 207.984,244.444 209.634 M248.519 218.720 C 248.519 224.835,245.292 234.338,242.148 237.481 C 239.935 239.694,238.691 238.626,238.286 234.167 C 237.999 231.012,237.768 230.876,236.715 233.241 C 234.096 239.121,231.564 240.068,230.182 235.684 C 229.300 232.885,229.269 228.392,230.121 226.852 C 230.460 226.241,230.737 225.402,230.738 224.987 C 230.740 224.572,231.169 222.989,231.693 221.468 C 232.216 219.948,232.738 218.315,232.853 217.840 C 233.058 216.989,234.608 215.966,235.040 216.398 C 235.162 216.520,234.843 217.505,234.331 218.587 C 230.438 226.827,229.635 237.350,232.929 236.958 C 234.747 236.742,238.102 228.779,238.515 223.704 C 238.798 220.226,239.378 218.483,240.484 217.792 C 241.292 217.288,241.179 220.677,240.314 222.905 C 238.445 227.719,238.624 237.037,240.586 237.037 C 243.353 237.037,246.384 228.804,246.445 221.123 C 246.474 217.381,246.589 216.433,247.037 216.230 C 248.370 215.626,248.519 215.876,248.519 218.720 M265.963 217.500 C 265.984 217.755,265.971 218.505,265.935 219.167 C 265.873 220.306,265.938 220.370,267.151 220.370 C 267.857 220.370,268.994 220.614,269.680 220.911 C 270.920 221.450,270.912 221.453,268.148 221.470 L 265.370 221.488 264.660 223.799 C 263.969 226.049,263.656 226.879,262.438 229.686 C 260.904 233.224,264.410 235.239,266.407 231.967 C 266.570 231.700,266.904 231.488,267.148 231.497 C 267.874 231.521,264.412 234.444,263.656 234.444 C 262.285 234.444,261.377 233.038,261.580 231.230 C 261.739 229.823,261.678 229.614,261.161 229.793 C 260.651 229.969,260.658 229.922,261.204 229.497 C 261.560 229.220,261.854 228.677,261.856 228.293 C 261.858 227.908,262.108 226.774,262.411 225.774 C 263.334 222.734,263.188 221.853,261.759 221.847 C 261.097 221.844,260.182 221.742,259.726 221.620 C 258.260 221.226,259.238 220.741,261.496 220.741 C 263.588 220.741,263.700 220.694,263.911 219.722 C 264.377 217.571,265.841 215.987,265.963 217.500 M255.730 224.576 C 256.150 224.883,256.326 225.314,256.183 225.687 C 255.891 226.449,255.185 226.487,255.185 225.741 C 255.185 224.026,252.881 225.706,251.523 228.411 C 249.958 231.530,250.692 233.563,253.061 232.669 C 254.125 232.267,254.140 232.277,253.526 232.955 C 251.502 235.191,249.401 234.427,249.523 231.499 C 249.679 227.749,253.793 223.160,255.730 224.576 M271.153 226.177 C 268.993 228.797,269.155 230.656,271.402 229.041 C 273.154 227.781,273.996 226.169,273.324 225.359 C 272.665 224.566,272.399 224.666,271.153 226.177 M256.895 226.872 C 256.446 228.043,255.907 232.320,256.123 233.000 C 256.430 233.967,257.131 233.882,258.583 232.703 L 259.815 231.702 258.889 232.743 C 257.195 234.648,255.185 234.660,255.185 232.765 C 255.185 232.154,254.978 231.852,254.559 231.852 C 254.006 231.852,253.998 231.797,254.492 231.389 C 254.800 231.134,255.273 230.009,255.542 228.889 C 255.960 227.148,256.419 226.326,256.984 226.302 C 257.057 226.299,257.017 226.555,256.895 226.872 M294.641 227.694 C 293.406 229.561,293.031 232.081,293.830 233.148 C 294.559 234.122,294.771 233.841,295.174 231.364 C 295.360 230.225,295.687 228.965,295.902 228.563 C 296.857 226.779,295.751 226.017,294.641 227.694 " stroke="none" fill="#04b3fb" fill-rule="evenodd"></path><path id="path2" d="M218.704 172.222 C 218.578 172.426,218.725 172.593,219.030 172.593 C 219.336 172.593,219.689 172.426,219.815 172.222 C 219.941 172.019,219.794 171.852,219.488 171.852 C 219.183 171.852,218.830 172.019,218.704 172.222 M217.884 179.815 C 217.886 180.833,217.958 181.206,218.044 180.643 C 218.129 180.080,218.126 179.247,218.038 178.791 C 217.951 178.336,217.881 178.796,217.884 179.815 M225.141 201.030 C 225.019 201.766,225.074 202.112,225.279 201.906 C 225.466 201.720,225.556 201.173,225.480 200.691 C 225.364 199.950,225.312 200.002,225.141 201.030 M164.801 212.207 C 164.096 212.810,163.696 213.310,163.912 213.318 C 164.129 213.327,164.785 212.833,165.370 212.222 C 166.730 210.803,166.452 210.796,164.801 212.207 M311.164 215.515 C 310.859 215.708,310.806 215.923,311.030 216.061 C 311.232 216.186,311.604 216.040,311.855 215.737 C 312.355 215.134,311.963 215.009,311.164 215.515 M162.065 217.147 C 161.899 217.717,161.866 218.286,161.993 218.412 C 162.407 218.827,162.651 218.235,162.507 217.163 L 162.366 216.111 162.065 217.147 M216.042 218.426 C 215.916 218.782,215.751 219.188,215.678 219.326 C 215.604 219.465,215.755 219.700,216.012 219.849 C 216.270 219.997,216.367 219.992,216.227 219.836 C 216.088 219.681,216.125 219.154,216.311 218.666 C 216.496 218.177,216.564 217.778,216.461 217.778 C 216.357 217.778,216.169 218.069,216.042 218.426 M336.481 218.889 C 336.015 219.090,335.946 219.207,336.296 219.207 C 336.602 219.207,337.185 219.064,337.593 218.889 C 338.059 218.688,338.128 218.571,337.778 218.571 C 337.472 218.571,336.889 218.714,336.481 218.889 M153.611 219.157 C 154.273 219.239,155.356 219.239,156.019 219.157 C 156.681 219.075,156.139 219.007,154.815 219.007 C 153.491 219.007,152.949 219.075,153.611 219.157 M368.436 219.161 C 369.307 219.239,370.640 219.238,371.399 219.158 C 372.157 219.079,371.444 219.015,369.815 219.016 C 368.185 219.017,367.565 219.082,368.436 219.161 M298.380 221.898 C 298.249 222.549,298.212 223.150,298.296 223.234 C 298.379 223.318,298.563 222.862,298.704 222.222 C 298.844 221.582,298.882 220.981,298.788 220.887 C 298.693 220.792,298.510 221.247,298.380 221.898 M317.460 222.633 C 317.024 223.684,316.674 224.729,316.682 224.957 C 316.691 225.184,317.107 224.384,317.608 223.179 C 318.108 221.973,318.459 220.928,318.386 220.855 C 318.313 220.783,317.897 221.583,317.460 222.633 M213.194 221.681 C 213.067 222.012,212.980 222.644,213.001 223.086 C 213.025 223.594,213.151 223.413,213.343 222.595 C 213.666 221.219,213.578 220.679,213.194 221.681 M301.178 222.410 C 300.736 222.918,300.504 223.333,300.661 223.333 C 301.026 223.333,302.324 221.830,302.128 221.634 C 302.047 221.553,301.619 221.902,301.178 222.410 M200.857 225.463 C 200.730 225.819,200.559 226.236,200.477 226.389 C 200.394 226.542,200.484 226.667,200.676 226.667 C 200.868 226.667,201.104 226.250,201.202 225.741 C 201.405 224.675,201.197 224.507,200.857 225.463 M154.352 225.817 C 154.810 225.905,155.560 225.905,156.019 225.817 C 156.477 225.729,156.102 225.656,155.185 225.656 C 154.269 225.656,153.894 225.729,154.352 225.817 M369.541 225.818 C 370.002 225.906,370.669 225.903,371.023 225.810 C 371.377 225.717,371.000 225.645,370.185 225.649 C 369.370 225.653,369.081 225.729,369.541 225.818 M143.210 226.543 C 142.871 226.883,142.897 228.889,143.241 228.889 C 143.394 228.889,143.519 228.306,143.519 227.593 C 143.519 226.880,143.505 226.296,143.488 226.296 C 143.471 226.296,143.346 226.407,143.210 226.543 M213.796 226.542 C 213.542 226.644,213.333 226.887,213.333 227.081 C 213.333 227.298,213.600 227.291,214.025 227.063 C 214.406 226.859,214.849 226.812,215.011 226.957 C 215.172 227.103,215.184 227.014,215.038 226.759 C 214.757 226.272,214.553 226.236,213.796 226.542 M334.030 227.488 C 334.201 228.517,334.253 228.569,334.369 227.828 C 334.445 227.346,334.354 226.799,334.168 226.612 C 333.962 226.407,333.908 226.752,334.030 227.488 M152.508 227.475 C 152.416 227.751,152.832 228.131,153.489 228.371 C 154.116 228.601,154.963 228.920,155.370 229.081 L 156.111 229.373 155.370 228.629 C 154.963 228.220,154.414 227.964,154.152 228.062 C 153.889 228.159,153.722 228.020,153.781 227.753 C 153.922 227.116,152.716 226.853,152.508 227.475 M213.561 228.320 C 212.761 229.541,213.377 230.147,214.341 229.087 C 214.500 228.913,214.421 228.890,214.167 229.037 C 213.603 229.361,213.578 229.074,214.087 228.124 C 214.634 227.101,214.271 227.237,213.561 228.320 M216.732 228.254 C 216.427 228.622,216.565 228.739,217.335 228.768 C 217.884 228.789,218.040 228.729,217.681 228.634 C 217.322 228.540,217.123 228.308,217.240 228.120 C 217.555 227.609,217.187 227.707,216.732 228.254 M315.639 229.056 C 315.725 230.093,316.038 229.979,316.118 228.881 C 316.148 228.478,316.036 228.148,315.868 228.148 C 315.701 228.148,315.598 228.557,315.639 229.056 M199.299 229.479 C 198.839 230.007,198.541 230.517,198.636 230.611 C 198.731 230.706,199.171 230.274,199.614 229.651 C 200.600 228.267,200.432 228.176,199.299 229.479 M192.490 229.634 C 191.783 230.459,191.652 230.908,192.220 230.557 C 192.583 230.332,193.469 228.889,193.243 228.889 C 193.180 228.889,192.841 229.224,192.490 229.634 M347.512 231.336 C 346.445 232.534,346.754 233.626,347.867 232.589 C 348.287 232.198,348.789 231.975,348.982 232.095 C 349.243 232.256,348.804 231.101,348.371 230.490 C 348.346 230.453,347.959 230.834,347.512 231.336 M348.519 231.468 C 348.519 231.665,348.185 232.004,347.778 232.222 C 346.888 232.698,346.825 232.487,347.619 231.693 C 348.290 231.022,348.519 230.965,348.519 231.468 M191.057 232.477 C 190.985 232.642,190.371 233.236,189.694 233.796 C 189.016 234.356,188.599 234.810,188.768 234.805 C 189.307 234.787,191.671 232.659,191.425 232.413 C 191.295 232.282,191.129 232.311,191.057 232.477 M344.128 233.116 C 344.624 233.660,344.864 233.703,345.424 233.346 C 346.090 232.920,346.090 232.914,345.416 233.127 C 345.034 233.247,344.450 233.144,344.120 232.897 C 343.581 232.495,343.582 232.517,344.128 233.116 M180.257 233.466 C 180.133 233.787,180.203 234.156,180.411 234.284 C 180.988 234.641,181.222 234.206,180.830 233.506 C 180.518 232.949,180.457 232.944,180.257 233.466 M363.148 235.185 C 362.777 235.595,362.557 236.014,362.659 236.116 C 362.761 236.218,363.148 235.965,363.519 235.556 C 363.889 235.146,364.110 234.727,364.008 234.625 C 363.906 234.523,363.519 234.775,363.148 235.185 M160.741 241.481 C 161.176 242.093,161.615 242.593,161.717 242.593 C 161.819 242.593,161.546 242.093,161.111 241.481 C 160.676 240.870,160.237 240.370,160.135 240.370 C 160.033 240.370,160.306 240.870,160.741 241.481 M183.867 240.905 C 184.263 241.222,184.846 241.468,185.163 241.452 C 185.662 241.427,185.665 241.395,185.185 241.217 C 184.880 241.104,184.296 240.858,183.889 240.670 C 183.160 240.335,183.160 240.339,183.867 240.905 M326.296 241.667 C 326.035 241.982,325.904 242.323,326.006 242.425 C 326.107 242.527,326.405 242.352,326.667 242.037 C 326.928 241.722,327.059 241.380,326.957 241.278 C 326.856 241.177,326.558 241.351,326.296 241.667 " stroke="none" fill="#0c0c0c" fill-rule="evenodd"></path><path id="path3" d="M217.995 172.685 C 217.904 173.144,217.859 180.269,217.896 188.519 L 217.963 203.519 221.568 203.624 C 224.832 203.720,225.149 203.671,224.931 203.101 C 224.767 202.675,224.829 202.558,225.122 202.739 C 225.385 202.901,225.556 202.771,225.556 202.407 C 225.556 202.078,225.410 201.898,225.232 202.008 C 225.053 202.119,225.067 201.462,225.262 200.549 C 225.487 199.493,225.487 198.284,225.262 197.229 C 225.067 196.316,225.040 195.651,225.201 195.751 C 225.461 195.911,225.331 188.529,225.036 186.400 C 224.973 185.948,225.064 185.666,225.239 185.774 C 225.413 185.882,225.556 185.626,225.556 185.207 C 225.556 184.788,225.417 184.444,225.247 184.444 C 225.077 184.444,224.938 184.202,224.938 183.905 C 224.938 183.609,225.068 183.446,225.226 183.544 C 225.486 183.705,225.324 179.264,225.012 177.685 C 224.942 177.328,225.035 177.129,225.220 177.244 C 225.404 177.358,225.556 177.181,225.556 176.852 C 225.556 176.510,225.380 176.361,225.148 176.504 C 224.861 176.682,224.848 176.552,225.103 176.063 C 225.397 175.503,225.476 173.207,225.237 172.186 C 225.143 171.784,220.075 171.801,219.826 172.204 C 219.694 172.418,219.336 172.593,219.030 172.593 C 218.725 172.593,218.578 172.426,218.704 172.222 C 218.830 172.019,218.759 171.852,218.547 171.852 C 218.336 171.852,218.087 172.227,217.995 172.685 M300.212 209.453 C 299.994 209.662,299.565 209.817,299.259 209.799 C 298.416 209.747,296.676 210.827,296.933 211.242 C 297.063 211.453,296.910 211.512,296.569 211.381 C 295.909 211.128,295.040 211.938,295.466 212.408 C 295.617 212.575,295.544 212.599,295.303 212.461 C 295.063 212.323,294.761 212.380,294.633 212.587 C 294.505 212.794,294.619 212.970,294.886 212.978 C 295.152 212.986,294.932 213.231,294.396 213.522 C 293.860 213.813,293.314 214.330,293.184 214.671 C 292.976 215.213,293.024 215.226,293.575 214.775 C 294.134 214.316,294.130 214.372,293.541 215.278 C 293.176 215.838,292.730 216.296,292.550 216.296 C 292.370 216.296,292.222 216.473,292.222 216.689 C 292.222 216.904,292.431 216.959,292.685 216.810 C 292.940 216.661,292.840 216.891,292.464 217.320 C 292.087 217.750,291.889 218.279,292.023 218.495 C 292.156 218.712,292.109 218.889,291.917 218.889 C 291.725 218.889,291.488 219.306,291.391 219.815 C 291.293 220.324,291.364 220.741,291.547 220.741 C 291.731 220.741,291.700 220.949,291.479 221.204 C 289.669 223.285,288.076 225.941,287.578 227.706 C 287.251 228.866,286.849 230.259,286.684 230.803 C 286.519 231.346,286.506 231.930,286.656 232.099 C 286.805 232.269,287.143 233.207,287.406 234.184 C 287.669 235.162,288.361 236.620,288.944 237.425 C 289.527 238.230,289.894 238.889,289.760 238.889 C 289.625 238.889,289.826 239.232,290.206 239.652 C 290.597 240.085,291.184 240.341,291.560 240.243 C 291.925 240.147,292.130 240.220,292.016 240.405 C 291.902 240.590,291.985 240.762,292.200 240.787 C 292.938 240.874,293.148 240.937,293.548 241.192 C 293.768 241.333,294.893 241.369,296.048 241.274 C 297.456 241.158,298.148 241.237,298.148 241.516 C 298.148 241.744,298.407 241.832,298.723 241.711 C 299.039 241.589,299.208 241.635,299.098 241.813 C 298.988 241.991,299.802 242.123,300.908 242.107 C 302.211 242.088,302.835 241.940,302.684 241.687 C 302.555 241.472,302.732 241.525,303.077 241.805 C 303.519 242.163,303.704 242.184,303.704 241.875 C 303.704 241.635,303.870 241.541,304.074 241.667 C 304.278 241.793,304.444 241.735,304.444 241.538 C 304.444 241.341,304.778 241.268,305.185 241.374 C 305.599 241.482,305.926 241.386,305.926 241.154 C 305.926 240.927,306.176 240.741,306.481 240.741 C 306.787 240.741,307.037 240.607,307.037 240.444 C 307.037 240.281,307.443 240.148,307.939 240.148 C 308.435 240.148,308.752 240.293,308.643 240.469 C 308.533 240.646,308.794 240.882,309.222 240.994 C 309.665 241.110,310.000 241.498,310.000 241.895 C 310.000 242.279,310.177 242.593,310.392 242.593 C 310.608 242.593,310.681 242.426,310.556 242.222 C 310.430 242.019,310.424 241.852,310.543 241.852 C 310.662 241.852,310.916 242.265,311.108 242.771 C 311.327 243.346,311.655 243.614,311.987 243.487 C 312.286 243.372,312.773 243.651,313.110 244.132 C 313.436 244.598,313.704 244.839,313.704 244.667 C 313.704 244.495,313.942 244.552,314.234 244.794 C 314.884 245.333,319.630 245.587,319.630 245.082 C 319.630 244.885,319.880 244.932,320.185 245.185 C 320.552 245.489,320.741 245.509,320.741 245.242 C 320.741 245.020,320.983 244.931,321.279 245.044 C 321.574 245.158,322.033 245.116,322.297 244.951 C 322.561 244.786,323.023 244.613,323.323 244.568 C 323.623 244.523,324.089 244.185,324.358 243.817 C 324.627 243.449,324.962 243.212,325.103 243.289 C 325.244 243.366,325.625 242.950,325.951 242.363 C 326.529 241.319,326.606 241.297,329.551 241.327 C 331.393 241.346,332.474 241.220,332.340 241.001 C 332.218 240.805,332.351 240.727,332.634 240.827 C 332.917 240.927,333.590 240.787,334.129 240.515 C 334.996 240.078,335.219 240.105,336.040 240.751 C 336.955 241.470,340.000 241.810,340.000 241.192 C 340.000 241.033,340.426 240.867,340.946 240.824 C 341.467 240.781,341.803 240.891,341.693 241.068 C 341.584 241.245,342.736 241.386,344.253 241.381 C 345.771 241.375,346.936 241.247,346.842 241.095 C 346.748 240.943,346.948 240.712,347.287 240.582 C 347.626 240.452,348.023 240.539,348.170 240.776 C 348.318 241.016,348.643 241.078,348.905 240.916 C 349.188 240.741,349.281 240.776,349.140 241.005 C 348.759 241.621,354.875 241.480,355.602 240.856 C 355.933 240.572,356.349 240.366,356.528 240.399 C 357.484 240.574,358.211 240.251,359.304 239.167 C 359.971 238.505,360.374 238.197,360.201 238.483 C 359.981 238.846,360.021 238.919,360.336 238.725 C 360.584 238.572,360.942 238.038,361.131 237.540 C 361.348 236.970,361.718 236.674,362.127 236.742 C 362.521 236.809,362.735 236.651,362.670 236.343 C 362.537 235.714,363.683 234.388,364.124 234.660 C 364.300 234.769,364.444 234.724,364.444 234.559 C 364.444 234.394,364.986 234.280,365.648 234.304 C 366.310 234.329,367.050 234.192,367.293 234.000 C 367.535 233.807,368.035 233.681,368.404 233.719 C 370.374 233.924,376.050 233.654,375.612 233.376 C 375.259 233.153,375.491 232.988,376.394 232.819 C 377.868 232.542,379.246 231.315,378.449 230.989 C 378.138 230.862,378.274 230.696,378.828 230.529 C 379.476 230.333,379.569 230.189,379.198 229.954 C 378.847 229.732,378.834 229.639,379.154 229.635 C 379.401 229.632,379.793 229.276,380.024 228.844 C 380.364 228.209,380.349 228.115,379.944 228.352 C 379.669 228.514,379.736 228.312,380.093 227.905 C 380.740 227.165,381.036 224.219,380.425 224.596 C 380.251 224.704,379.915 224.338,379.678 223.785 C 379.278 222.849,379.287 222.829,379.809 223.497 C 380.118 223.892,380.370 224.027,380.370 223.795 C 380.370 223.564,380.069 223.158,379.700 222.891 C 379.331 222.625,378.882 222.157,378.703 221.852 C 378.414 221.361,378.460 221.360,379.096 221.841 C 379.571 222.201,379.511 222.044,378.917 221.378 C 377.865 220.197,377.730 220.144,378.005 221.019 C 378.117 221.375,377.906 221.208,377.537 220.648 C 377.158 220.073,376.527 219.630,376.087 219.630 C 375.659 219.630,375.205 219.526,375.079 219.400 C 374.743 219.064,364.405 219.024,364.198 219.358 C 364.102 219.514,363.868 219.546,363.678 219.429 C 363.488 219.311,363.333 219.387,363.333 219.596 C 363.333 219.805,363.056 219.870,362.717 219.740 C 362.303 219.581,362.188 219.646,362.369 219.937 C 362.541 220.216,362.356 220.370,361.852 220.370 C 361.353 220.370,361.164 220.526,361.332 220.798 C 361.497 221.065,361.433 221.125,361.162 220.958 C 360.924 220.810,360.810 220.559,360.908 220.399 C 361.176 219.966,359.377 218.402,358.930 218.678 C 358.718 218.809,358.235 218.606,357.856 218.227 C 357.448 217.818,356.703 217.559,356.028 217.591 C 355.270 217.626,354.947 217.493,355.063 217.193 C 355.158 216.945,355.040 216.621,354.801 216.473 C 354.477 216.273,354.494 216.124,354.866 215.894 C 355.267 215.647,355.226 215.482,354.663 215.070 C 354.275 214.787,353.935 214.233,353.906 213.840 C 353.825 212.742,351.838 210.695,351.085 210.934 C 350.735 211.045,350.212 210.900,349.923 210.611 C 349.338 210.026,345.678 209.872,345.340 210.419 C 345.227 210.603,344.979 210.657,344.789 210.540 C 344.600 210.423,344.444 210.521,344.444 210.759 C 344.444 210.996,344.194 211.094,343.889 210.977 C 343.529 210.839,343.331 210.988,343.328 211.401 C 343.323 211.904,343.255 211.931,343.001 211.530 C 342.734 211.109,342.624 211.120,342.358 211.596 C 342.182 211.911,341.870 212.181,341.667 212.196 C 341.463 212.210,341.296 212.389,341.296 212.593 C 341.296 212.796,341.148 212.949,340.967 212.931 C 340.398 212.877,340.010 213.851,340.483 214.151 C 340.790 214.346,340.740 214.435,340.321 214.439 C 339.988 214.442,339.629 214.778,339.522 215.186 C 339.416 215.593,339.479 215.834,339.664 215.719 C 339.849 215.605,340.000 215.688,340.000 215.904 C 340.000 216.120,339.750 216.296,339.444 216.296 C 339.139 216.296,338.889 216.546,338.889 216.852 C 338.889 217.157,339.076 217.407,339.305 217.407 C 339.599 217.407,339.592 217.563,339.278 217.941 C 339.034 218.234,338.570 218.373,338.245 218.248 C 337.823 218.086,337.742 218.161,337.960 218.514 C 338.188 218.883,338.064 218.953,337.465 218.797 C 337.025 218.682,336.759 218.739,336.873 218.923 C 336.987 219.108,336.821 219.259,336.503 219.259 C 336.186 219.259,335.926 219.120,335.926 218.951 C 335.926 218.781,335.718 218.635,335.463 218.627 C 333.987 218.581,333.128 217.617,333.301 216.204 C 333.344 215.847,333.193 215.556,332.964 215.556 C 332.736 215.556,332.639 215.409,332.750 215.231 C 332.988 214.846,331.389 212.362,330.996 212.508 C 330.633 212.643,329.669 211.730,329.853 211.425 C 330.098 211.020,327.697 209.688,326.974 209.827 C 326.601 209.899,326.296 209.828,326.296 209.670 C 326.296 209.360,326.312 209.363,323.426 209.168 C 322.356 209.096,321.481 209.137,321.481 209.259 C 321.481 209.381,321.106 209.499,320.648 209.520 C 318.856 209.601,316.667 210.462,316.667 211.085 C 316.667 211.259,316.393 211.507,316.059 211.636 C 315.526 211.840,315.515 211.788,315.966 211.219 C 316.250 210.862,315.773 211.122,314.907 211.797 C 314.042 212.473,313.333 213.251,313.333 213.528 C 313.333 213.804,313.141 214.149,312.906 214.295 C 312.615 214.474,312.579 214.392,312.792 214.039 C 313.059 213.595,313.011 213.595,312.462 214.041 C 312.108 214.328,311.899 214.774,311.998 215.032 C 312.236 215.651,311.269 216.481,310.937 215.944 C 310.805 215.730,310.907 215.556,311.163 215.556 C 311.508 215.556,311.521 215.447,311.214 215.140 C 310.986 214.912,310.887 214.495,310.994 214.214 C 311.102 213.933,310.996 213.704,310.759 213.704 C 310.521 213.704,310.431 213.536,310.557 213.330 C 310.684 213.125,310.403 212.802,309.931 212.613 C 309.440 212.416,309.311 212.254,309.630 212.234 C 310.009 212.210,309.853 211.906,309.140 211.279 C 308.565 210.774,307.936 210.458,307.742 210.578 C 307.548 210.698,307.435 210.600,307.491 210.360 C 307.745 209.273,301.250 208.463,300.212 209.453 M170.741 209.673 C 170.741 209.877,170.567 209.936,170.354 209.805 C 170.142 209.673,169.693 209.789,169.357 210.061 C 168.847 210.475,168.796 210.474,169.048 210.056 C 169.299 209.639,169.202 209.636,168.471 210.038 C 167.988 210.303,167.355 210.559,167.065 210.607 C 166.774 210.655,166.389 210.958,166.209 211.281 C 166.028 211.603,165.698 211.755,165.476 211.617 C 165.249 211.477,165.175 211.536,165.309 211.753 C 165.559 212.158,164.882 212.856,163.610 213.504 C 163.195 213.716,162.715 214.272,162.544 214.741 C 162.314 215.370,162.352 215.532,162.690 215.362 C 162.942 215.234,162.856 215.369,162.500 215.662 C 162.144 215.954,161.854 216.424,161.858 216.707 C 161.862 217.120,161.935 217.111,162.222 216.667 C 162.496 216.243,162.583 216.390,162.587 217.284 C 162.590 217.929,162.384 218.541,162.130 218.644 C 161.759 218.793,161.759 218.836,162.130 218.860 C 162.384 218.876,162.573 219.264,162.550 219.722 C 162.513 220.428,162.479 220.448,162.327 219.854 C 162.180 219.281,162.081 219.247,161.786 219.668 C 161.522 220.047,161.377 220.067,161.244 219.743 C 161.145 219.500,160.841 219.386,160.569 219.491 C 160.297 219.595,159.989 219.541,159.884 219.371 C 159.532 218.802,149.394 219.058,148.661 219.654 C 148.087 220.119,148.047 220.116,148.333 219.630 C 148.605 219.168,148.564 219.152,148.093 219.534 C 147.780 219.787,147.439 219.908,147.334 219.803 C 147.229 219.698,146.911 219.898,146.627 220.247 C 146.185 220.791,146.186 220.838,146.631 220.569 C 146.977 220.361,147.066 220.394,146.897 220.667 C 146.757 220.894,146.398 220.985,146.099 220.870 C 145.722 220.725,145.556 220.913,145.556 221.481 C 145.556 222.073,145.394 222.240,144.976 222.079 C 144.534 221.909,144.450 222.028,144.625 222.579 C 144.782 223.072,144.617 223.451,144.107 223.769 C 143.558 224.112,143.420 224.475,143.586 225.136 C 143.742 225.761,143.682 225.956,143.387 225.774 C 143.135 225.618,142.963 225.755,142.963 226.111 C 142.963 226.441,143.088 226.633,143.241 226.539 C 143.394 226.444,143.519 226.934,143.519 227.628 C 143.519 228.321,143.394 228.889,143.241 228.889 C 143.088 228.889,142.963 229.065,142.963 229.281 C 142.963 229.497,143.114 229.580,143.299 229.466 C 143.483 229.352,143.547 229.592,143.441 229.999 C 143.328 230.430,143.429 230.741,143.682 230.741 C 143.922 230.741,144.039 230.868,143.944 231.023 C 143.848 231.178,144.005 231.626,144.292 232.019 C 144.580 232.412,144.815 232.582,144.815 232.396 C 144.815 232.210,145.082 232.439,145.409 232.905 C 145.735 233.372,146.231 233.666,146.509 233.559 C 146.788 233.452,147.229 233.566,147.489 233.812 C 147.963 234.259,151.851 234.524,151.853 234.109 C 151.853 233.988,153.286 233.835,155.037 233.768 C 156.788 233.702,158.537 233.586,158.925 233.512 C 159.313 233.437,159.630 233.565,159.630 233.796 C 159.630 234.027,159.874 233.892,160.173 233.497 C 160.472 233.101,160.722 232.977,160.729 233.220 C 160.735 233.463,160.436 233.879,160.064 234.146 C 159.142 234.806,159.115 239.868,160.031 240.381 C 160.354 240.561,161.090 241.390,161.666 242.222 C 162.347 243.204,162.809 243.582,162.984 243.299 C 163.167 243.003,163.394 243.126,163.692 243.682 C 163.957 244.177,164.347 244.419,164.677 244.292 C 165.028 244.158,165.129 244.236,164.958 244.512 C 164.781 244.798,164.898 244.862,165.310 244.704 C 165.649 244.574,165.926 244.614,165.926 244.792 C 165.926 244.970,166.285 245.022,166.725 244.907 C 167.184 244.787,167.431 244.848,167.306 245.050 C 167.178 245.257,167.919 245.398,169.099 245.391 C 170.206 245.385,171.111 245.232,171.111 245.052 C 171.111 244.872,171.346 244.919,171.634 245.158 C 171.997 245.459,172.231 245.471,172.400 245.197 C 172.534 244.980,172.806 244.903,173.005 245.026 C 173.203 245.149,173.796 244.967,174.321 244.623 C 174.847 244.279,175.162 244.182,175.022 244.409 C 174.841 244.701,175.039 244.697,175.706 244.393 C 176.221 244.158,176.557 243.825,176.451 243.654 C 176.345 243.482,176.495 243.433,176.785 243.544 C 177.075 243.655,177.415 243.476,177.542 243.146 C 177.669 242.816,177.945 242.652,178.155 242.782 C 178.365 242.912,178.491 242.805,178.435 242.545 C 178.379 242.285,178.667 242.064,179.074 242.054 C 179.481 242.045,179.775 241.833,179.726 241.584 C 179.663 241.266,179.983 241.200,180.802 241.364 C 181.708 241.545,181.900 241.489,181.666 241.111 C 181.442 240.748,181.569 240.677,182.164 240.833 C 182.603 240.948,183.051 240.898,183.160 240.722 C 183.268 240.546,183.601 240.496,183.899 240.611 C 184.196 240.725,184.374 240.926,184.292 241.057 C 184.211 241.189,184.504 241.328,184.943 241.367 C 185.382 241.406,186.532 241.513,187.500 241.604 C 188.468 241.695,189.259 241.644,189.259 241.492 C 189.259 241.339,189.701 241.298,190.240 241.401 C 190.985 241.544,191.149 241.472,190.920 241.102 C 190.703 240.750,190.790 240.680,191.236 240.851 C 191.602 240.992,191.854 240.905,191.858 240.637 C 191.861 240.325,191.964 240.344,192.186 240.696 C 192.364 240.976,192.695 241.091,192.922 240.952 C 193.148 240.812,193.333 240.874,193.333 241.089 C 193.333 241.305,193.708 241.479,194.167 241.476 C 194.796 241.472,194.873 241.390,194.480 241.141 C 194.106 240.904,194.225 240.828,194.908 240.869 C 195.429 240.900,195.778 241.051,195.683 241.204 C 195.589 241.356,195.674 241.481,195.873 241.481 C 196.072 241.481,196.319 241.273,196.421 241.019 C 196.571 240.648,196.614 240.648,196.637 241.019 C 196.654 241.273,196.843 241.481,197.059 241.481 C 197.275 241.481,197.326 241.273,197.173 241.019 C 196.960 240.665,197.021 240.653,197.429 240.971 C 198.089 241.485,201.965 241.326,202.148 240.777 C 202.233 240.525,202.485 240.581,202.834 240.929 C 203.485 241.580,204.235 241.672,203.854 241.054 C 203.674 240.763,203.754 240.728,204.103 240.943 C 204.787 241.367,207.847 241.407,208.410 241.000 C 208.655 240.822,209.072 240.810,209.335 240.973 C 209.950 241.353,211.068 241.372,212.151 241.020 C 212.664 240.854,212.919 240.883,212.788 241.094 C 212.661 241.300,213.149 241.389,213.965 241.310 C 214.732 241.236,215.509 241.268,215.692 241.381 C 216.252 241.727,218.532 241.759,218.739 241.424 C 218.847 241.250,219.341 241.210,219.838 241.335 C 220.409 241.478,220.741 241.403,220.741 241.129 C 220.741 240.892,220.896 240.793,221.086 240.910 C 221.276 241.028,221.692 240.750,222.012 240.294 C 222.334 239.834,222.593 239.686,222.593 239.963 C 222.593 240.352,222.708 240.365,223.120 240.024 C 223.650 239.583,223.628 239.064,222.951 236.111 C 222.764 235.296,222.607 233.600,222.602 232.342 C 222.594 230.479,222.472 230.023,221.944 229.885 C 221.379 229.737,221.374 229.710,221.911 229.673 C 222.377 229.640,222.634 228.983,222.975 226.944 C 223.222 225.468,223.654 223.437,223.934 222.433 C 224.551 220.225,224.549 220.262,224.011 220.594 C 223.723 220.773,223.654 220.663,223.807 220.265 C 223.952 219.887,223.873 219.730,223.592 219.839 C 223.269 219.963,223.182 219.403,223.274 217.783 C 223.358 216.281,223.261 215.556,222.974 215.556 C 222.740 215.556,222.652 215.389,222.777 215.186 C 223.020 214.793,222.284 213.530,221.674 213.291 C 221.474 213.212,221.307 212.917,221.303 212.634 C 221.299 212.352,220.963 211.935,220.556 211.708 C 220.148 211.482,219.728 211.181,219.622 211.041 C 219.329 210.654,217.420 210.326,215.556 210.343 C 213.139 210.364,212.593 210.453,212.593 210.827 C 212.593 211.011,212.259 211.055,211.852 210.926 C 211.410 210.786,211.111 210.859,211.111 211.108 C 211.111 211.337,210.973 211.440,210.804 211.335 C 210.294 211.020,207.713 213.370,207.934 213.948 C 208.045 214.237,207.874 214.573,207.555 214.695 C 207.087 214.875,207.070 214.978,207.469 215.231 C 207.847 215.471,207.811 215.546,207.315 215.550 C 206.818 215.554,206.667 215.868,206.667 216.891 C 206.667 217.930,206.542 218.180,206.108 218.013 C 205.801 217.895,205.134 217.956,204.626 218.149 C 204.034 218.375,203.704 218.371,203.704 218.139 C 203.704 217.940,203.870 217.778,204.074 217.778 C 204.278 217.778,204.444 217.528,204.444 217.222 C 204.444 216.917,204.175 216.667,203.846 216.667 C 203.445 216.667,203.306 216.440,203.427 215.979 C 203.657 215.100,203.043 213.981,202.513 214.309 C 202.290 214.446,202.211 214.392,202.338 214.187 C 202.591 213.777,200.929 212.157,200.596 212.490 C 200.482 212.605,200.123 212.478,199.800 212.210 C 198.998 211.544,195.970 211.481,194.722 212.103 C 193.914 212.506,193.701 212.514,193.692 212.139 C 193.684 211.839,193.500 211.904,193.188 212.315 C 192.918 212.671,192.496 212.963,192.252 212.963 C 192.008 212.963,191.911 213.130,192.037 213.333 C 192.163 213.537,192.006 213.704,191.689 213.704 C 191.371 213.704,191.111 213.880,191.111 214.096 C 191.111 214.312,190.946 214.386,190.745 214.262 C 190.533 214.131,190.474 214.284,190.605 214.626 C 190.752 215.008,190.653 215.178,190.323 215.108 C 190.015 215.042,189.858 215.258,189.925 215.654 C 189.989 216.033,189.833 216.267,189.555 216.210 C 189.290 216.155,189.118 216.327,189.172 216.590 C 189.245 216.948,189.094 216.975,188.573 216.696 C 188.189 216.490,187.770 216.428,187.641 216.556 C 187.513 216.685,187.407 216.596,187.407 216.358 C 187.407 216.120,186.898 215.926,186.274 215.926 C 185.613 215.926,185.237 215.772,185.370 215.556 C 185.496 215.352,185.298 215.172,184.929 215.156 C 184.486 215.137,184.427 215.060,184.756 214.929 C 185.336 214.697,182.752 211.852,181.962 211.852 C 181.698 211.852,181.135 211.506,180.712 211.082 C 180.289 210.659,179.697 210.407,179.397 210.523 C 179.096 210.638,178.941 210.585,179.053 210.405 C 179.307 209.994,178.590 209.719,177.500 209.808 C 177.042 209.845,176.667 209.779,176.666 209.660 C 176.666 209.542,175.333 209.412,173.703 209.373 C 171.924 209.330,170.741 209.450,170.741 209.673 M197.778 214.837 C 197.778 215.052,197.944 215.126,198.148 215.000 C 198.352 214.874,198.519 214.957,198.519 215.185 C 198.519 215.413,198.685 215.496,198.889 215.370 C 199.093 215.244,199.259 215.328,199.259 215.556 C 199.259 215.783,199.426 215.867,199.630 215.741 C 199.833 215.615,200.000 215.777,200.000 216.101 C 200.000 216.425,200.249 216.785,200.553 216.902 C 200.858 217.019,200.997 217.292,200.863 217.509 C 200.716 217.748,200.838 217.820,201.174 217.691 C 201.492 217.569,201.728 217.684,201.728 217.963 C 201.728 218.230,201.535 218.374,201.298 218.283 C 201.062 218.192,200.423 218.287,199.879 218.494 C 199.201 218.752,198.889 218.750,198.889 218.487 C 198.889 218.277,198.734 218.200,198.544 218.318 C 198.354 218.435,198.095 218.361,197.967 218.154 C 197.839 217.947,197.536 217.780,197.293 217.783 C 197.028 217.787,197.074 217.932,197.407 218.148 C 197.713 218.346,197.773 218.510,197.541 218.513 C 197.309 218.516,197.142 218.785,197.171 219.110 C 197.199 219.436,196.847 219.956,196.389 220.267 C 195.593 220.806,195.556 220.787,195.556 219.860 C 195.556 219.304,195.744 218.928,195.997 218.981 C 196.239 219.032,196.499 218.796,196.573 218.457 C 196.731 217.739,193.640 217.803,192.758 218.535 C 192.393 218.838,192.173 218.748,191.865 218.172 C 191.550 217.584,191.565 217.406,191.931 217.402 C 192.266 217.398,192.242 217.289,191.852 217.037 C 191.376 216.729,191.388 216.677,191.936 216.672 C 192.288 216.669,192.842 216.260,193.168 215.763 C 193.493 215.266,193.955 214.927,194.195 215.010 C 194.434 215.092,195.213 215.016,195.926 214.840 C 197.727 214.396,197.778 214.396,197.778 214.837 M174.210 216.005 C 174.053 216.260,175.184 216.447,176.574 216.396 C 176.829 216.386,177.037 216.537,177.037 216.730 C 177.037 216.923,177.192 216.985,177.381 216.868 C 177.570 216.752,177.832 216.994,177.963 217.407 C 178.094 217.821,178.337 218.075,178.503 217.972 C 178.947 217.698,179.508 218.536,179.802 219.911 C 179.957 220.633,180.220 221.019,180.458 220.872 C 180.684 220.732,180.748 220.799,180.607 221.028 C 180.470 221.249,180.516 221.528,180.709 221.647 C 181.214 221.959,180.858 227.075,180.266 228.022 C 180.118 228.258,180.089 228.690,180.201 228.981 C 180.313 229.273,180.156 229.717,179.854 229.968 C 179.551 230.219,179.394 230.661,179.505 230.950 C 179.616 231.239,179.439 231.578,179.113 231.703 C 178.786 231.829,178.519 232.163,178.519 232.447 C 178.519 232.731,178.342 232.963,178.126 232.963 C 177.911 232.963,177.838 233.131,177.965 233.336 C 178.091 233.541,177.935 233.809,177.618 233.930 C 177.301 234.052,177.134 234.301,177.246 234.483 C 177.359 234.666,177.201 234.815,176.896 234.815 C 176.590 234.815,176.221 235.007,176.076 235.242 C 175.901 235.525,175.975 235.569,176.296 235.370 C 176.617 235.172,176.692 235.215,176.517 235.498 C 176.372 235.734,176.022 235.926,175.740 235.926 C 175.458 235.926,174.968 236.296,174.651 236.749 C 174.334 237.202,174.074 237.420,174.074 237.235 C 174.074 237.049,173.747 237.248,173.348 237.677 C 172.858 238.202,172.356 238.387,171.808 238.244 C 171.296 238.110,171.083 238.174,171.233 238.417 C 171.510 238.864,169.695 238.849,168.981 238.397 C 168.727 238.236,168.363 238.200,168.174 238.318 C 167.984 238.435,167.723 238.358,167.593 238.148 C 167.463 237.938,167.223 237.848,167.060 237.949 C 166.670 238.190,166.762 235.807,167.154 235.518 C 167.321 235.396,167.492 235.063,167.535 234.778 C 167.578 234.493,167.724 234.083,167.858 233.868 C 167.993 233.653,168.087 232.929,168.068 232.259 C 168.049 231.582,168.265 230.894,168.554 230.711 C 168.840 230.530,168.929 230.379,168.751 230.376 C 168.573 230.373,168.621 230.137,168.858 229.852 C 169.094 229.568,169.251 228.776,169.207 228.093 C 169.163 227.410,169.300 226.519,169.513 226.111 C 169.725 225.704,169.835 224.870,169.756 224.259 C 169.646 223.411,169.702 223.280,169.993 223.704 C 170.273 224.113,170.349 223.783,170.279 222.456 C 170.198 220.898,170.308 220.572,171.095 220.049 C 171.849 219.548,171.951 219.540,171.689 220.000 C 171.432 220.452,171.466 220.469,171.872 220.093 C 172.799 219.232,173.341 220.318,172.510 221.373 C 172.317 221.618,172.266 221.993,172.397 222.206 C 172.529 222.419,172.469 222.593,172.265 222.593 C 172.061 222.593,171.959 222.926,172.037 223.333 C 172.115 223.741,172.058 224.074,171.909 224.074 C 171.761 224.074,171.600 224.532,171.551 225.093 C 171.413 226.703,171.274 227.368,171.024 227.618 C 170.896 227.746,170.881 228.084,170.991 228.370 C 171.101 228.655,171.042 228.889,170.860 228.889 C 170.678 228.889,170.499 229.181,170.462 229.537 C 170.287 231.229,170.102 231.898,169.698 232.302 C 169.457 232.543,169.262 232.916,169.265 233.130 C 169.268 233.344,169.432 233.269,169.630 232.963 C 169.845 232.629,169.991 232.583,169.994 232.849 C 169.997 233.091,169.831 233.394,169.624 233.522 C 169.417 233.650,169.336 233.899,169.444 234.074 C 169.553 234.250,169.480 234.493,169.281 234.616 C 169.083 234.738,169.026 235.111,169.153 235.443 C 169.308 235.847,169.241 235.959,168.952 235.780 C 168.312 235.384,168.416 236.491,169.070 237.034 C 169.663 237.526,172.222 237.248,172.222 236.691 C 172.222 236.519,172.514 236.402,172.870 236.430 C 173.242 236.460,173.473 236.264,173.411 235.973 C 173.342 235.650,173.511 235.544,173.874 235.684 C 174.262 235.833,174.444 235.682,174.444 235.213 C 174.444 234.834,174.705 234.424,175.023 234.302 C 175.342 234.179,175.496 233.907,175.366 233.697 C 175.236 233.487,175.329 233.361,175.571 233.417 C 176.100 233.539,177.511 231.208,177.207 230.716 C 177.089 230.526,177.189 230.370,177.429 230.370 C 177.682 230.370,177.783 230.060,177.670 229.629 C 177.564 229.221,177.607 228.969,177.767 229.068 C 178.488 229.513,179.094 222.465,178.412 221.574 C 178.179 221.270,178.196 221.111,178.462 221.111 C 178.684 221.111,178.770 220.862,178.653 220.558 C 178.536 220.253,178.292 220.096,178.109 220.209 C 177.794 220.404,177.715 220.231,177.630 219.167 C 177.576 218.492,176.366 217.691,175.868 217.999 C 175.592 218.170,175.542 218.099,175.728 217.798 C 176.151 217.115,172.383 217.428,170.741 218.212 C 169.122 218.985,168.674 218.174,170.015 216.898 C 170.470 216.465,170.712 216.361,170.552 216.667 C 170.316 217.118,170.355 217.135,170.760 216.759 C 171.035 216.505,171.736 216.296,172.318 216.296 C 172.901 216.296,173.296 216.165,173.197 216.005 C 173.098 215.845,173.326 215.714,173.704 215.714 C 174.081 215.714,174.309 215.845,174.210 216.005 M304.377 217.002 C 304.442 217.659,304.293 218.440,304.047 218.737 C 303.800 219.034,303.697 219.376,303.818 219.497 C 304.093 219.772,303.158 220.741,302.619 220.741 C 302.401 220.741,302.222 221.092,302.222 221.521 C 302.222 222.050,302.050 222.235,301.686 222.096 C 301.320 221.955,301.217 222.068,301.363 222.448 C 301.503 222.811,301.304 223.079,300.798 223.211 C 300.163 223.377,300.087 223.545,300.392 224.115 C 300.647 224.592,300.645 224.815,300.383 224.815 C 300.173 224.815,300.000 225.065,300.000 225.370 C 300.000 225.676,300.152 225.926,300.338 225.926 C 300.524 225.926,300.630 226.343,300.574 226.852 C 300.518 227.361,300.598 227.778,300.752 227.778 C 300.906 227.778,301.131 228.036,301.252 228.353 C 301.379 228.682,301.317 228.831,301.107 228.701 C 300.905 228.577,300.741 228.651,300.741 228.867 C 300.741 229.083,300.874 229.259,301.036 229.259 C 301.199 229.259,301.345 229.718,301.361 230.278 C 301.411 231.996,301.468 232.222,301.852 232.222 C 302.056 232.222,302.222 231.962,302.222 231.645 C 302.222 231.327,302.400 231.177,302.617 231.311 C 302.874 231.470,302.777 231.823,302.339 232.323 C 301.969 232.745,301.889 232.960,302.160 232.801 C 302.504 232.599,302.631 232.720,302.580 233.200 C 302.461 234.323,302.583 234.662,302.917 234.136 C 303.169 233.738,303.274 233.756,303.455 234.228 C 303.617 234.649,303.448 234.828,302.859 234.863 C 302.407 234.889,301.578 234.938,301.017 234.972 C 300.192 235.023,300.038 234.908,300.209 234.369 C 300.464 233.566,300.270 233.556,298.224 234.269 C 297.120 234.653,296.426 234.712,295.958 234.461 C 295.586 234.263,295.177 234.205,295.049 234.334 C 294.920 234.463,294.815 234.373,294.815 234.136 C 294.815 233.898,294.571 233.704,294.272 233.704 C 292.961 233.704,292.544 230.780,293.571 228.778 C 294.429 227.104,295.695 225.664,296.170 225.822 C 296.391 225.896,296.666 225.599,296.780 225.163 C 296.912 224.657,297.151 224.471,297.440 224.650 C 297.738 224.834,297.797 224.775,297.613 224.477 C 297.435 224.189,297.616 223.950,298.111 223.821 C 298.607 223.691,298.879 223.331,298.863 222.827 C 298.837 222.057,298.829 222.056,298.519 222.778 C 298.014 223.952,298.099 223.126,298.749 220.539 C 299.079 219.224,299.506 218.148,299.697 218.148 C 299.887 218.148,299.941 217.981,299.815 217.778 C 299.689 217.574,299.772 217.407,300.000 217.407 C 300.228 217.407,300.318 217.252,300.201 217.063 C 299.854 216.502,300.517 216.332,301.002 216.857 C 301.353 217.237,301.334 217.385,300.916 217.545 C 300.590 217.670,300.477 217.994,300.625 218.380 C 300.788 218.807,300.727 218.924,300.433 218.743 C 300.171 218.580,300.000 218.711,300.000 219.074 C 300.000 219.404,300.156 219.577,300.347 219.459 C 300.559 219.328,300.569 219.677,300.372 220.363 C 299.989 221.701,300.427 221.817,301.590 220.686 C 302.039 220.249,302.157 220.011,301.852 220.158 C 301.546 220.305,301.620 220.163,302.015 219.842 C 302.411 219.522,302.887 219.259,303.073 219.259 C 303.260 219.259,303.317 219.009,303.199 218.704 C 303.082 218.398,303.148 218.148,303.345 218.148 C 303.873 218.148,303.781 217.432,303.175 216.825 C 302.577 216.228,301.687 216.101,302.034 216.662 C 302.165 216.874,302.014 216.934,301.676 216.804 C 300.725 216.439,301.643 215.737,303.024 215.774 C 304.136 215.804,304.271 215.927,304.377 217.002 M324.202 216.019 C 324.108 216.171,324.485 216.296,325.040 216.296 C 325.595 216.296,325.938 216.408,325.801 216.545 C 325.665 216.681,325.777 217.139,326.051 217.563 C 326.722 218.600,327.129 221.751,326.632 222.058 C 326.420 222.190,326.332 222.522,326.437 222.796 C 326.561 223.118,326.438 223.222,326.092 223.090 C 325.636 222.915,325.423 223.256,325.481 224.074 C 325.488 224.176,325.024 224.259,324.449 224.259 C 323.874 224.259,323.481 224.134,323.576 223.981 C 323.670 223.829,323.565 223.704,323.342 223.704 C 323.050 223.704,323.049 223.494,323.339 222.953 C 323.560 222.539,323.917 222.310,324.132 222.443 C 324.384 222.599,324.438 222.415,324.284 221.929 C 324.152 221.514,324.220 221.065,324.435 220.932 C 324.651 220.798,324.738 220.546,324.630 220.370 C 324.521 220.195,324.566 219.969,324.730 219.867 C 325.079 219.652,325.027 218.242,324.637 217.312 C 324.362 216.660,322.222 216.486,322.222 217.116 C 322.222 217.276,322.097 217.372,321.944 217.329 C 321.349 217.160,320.000 218.365,319.994 219.071 C 319.990 219.638,319.912 219.694,319.665 219.304 C 319.426 218.926,319.217 219.137,318.863 220.118 C 318.599 220.846,318.266 221.369,318.123 221.281 C 317.979 221.192,317.869 221.326,317.878 221.578 C 317.921 222.767,317.746 223.357,317.412 223.151 C 317.194 223.016,317.145 223.183,317.289 223.560 C 317.454 223.988,317.393 224.109,317.104 223.930 C 316.818 223.754,316.753 223.869,316.910 224.277 C 317.039 224.614,316.981 224.998,316.781 225.130 C 316.257 225.476,315.494 227.875,315.829 228.124 C 316.081 228.311,316.139 229.137,315.934 229.630 C 315.675 230.254,315.645 235.640,315.903 235.222 C 316.130 234.856,316.283 235.023,316.460 235.830 C 316.724 237.032,321.073 237.588,320.833 236.389 C 320.750 235.971,321.201 235.765,321.944 235.882 C 322.097 235.906,322.222 235.777,322.222 235.595 C 322.222 234.927,323.183 234.908,323.233 235.575 C 323.267 236.023,323.103 236.185,322.753 236.050 C 322.393 235.912,322.222 236.104,322.222 236.649 C 322.222 237.093,322.056 237.348,321.849 237.220 C 321.644 237.094,321.215 237.250,320.897 237.569 C 320.578 237.888,320.070 238.148,319.767 238.148 C 319.463 238.148,319.322 238.320,319.452 238.531 C 319.606 238.780,319.322 238.830,318.641 238.673 C 318.064 238.541,317.231 238.410,316.790 238.383 C 316.349 238.356,316.044 238.277,316.112 238.209 C 316.388 237.933,314.676 236.338,314.331 236.551 C 314.126 236.678,314.074 236.597,314.215 236.369 C 314.355 236.142,314.297 235.616,314.087 235.200 C 313.876 234.785,313.571 234.153,313.409 233.796 C 312.977 232.848,313.214 228.182,313.726 227.565 C 313.967 227.275,314.041 227.037,313.889 227.037 C 313.737 227.037,313.842 226.755,314.121 226.410 C 314.560 225.870,314.553 225.829,314.074 226.111 C 313.595 226.393,313.588 226.352,314.027 225.812 C 314.306 225.467,314.390 225.183,314.212 225.180 C 314.034 225.176,314.056 225.051,314.259 224.902 C 314.740 224.548,315.556 223.086,315.556 222.576 C 315.556 222.357,315.347 222.284,315.093 222.413 C 314.838 222.542,314.932 222.400,315.302 222.098 C 315.672 221.796,316.006 221.409,316.043 221.237 C 316.081 221.066,316.230 220.966,316.376 221.014 C 316.521 221.063,316.534 220.827,316.405 220.490 C 316.248 220.080,316.313 219.967,316.604 220.146 C 316.994 220.387,317.206 219.945,317.078 219.159 C 317.053 219.001,317.451 218.713,317.963 218.519 C 318.475 218.324,318.851 217.967,318.799 217.726 C 318.747 217.485,319.120 217.165,319.630 217.014 C 320.139 216.864,320.389 216.721,320.185 216.698 C 319.981 216.674,320.065 216.495,320.370 216.299 C 320.676 216.103,321.238 216.040,321.620 216.159 C 322.002 216.278,322.227 216.233,322.119 216.058 C 322.011 215.884,322.474 215.741,323.148 215.741 C 323.822 215.741,324.296 215.866,324.202 216.019 M216.023 217.690 C 215.876 218.072,215.948 218.178,216.232 218.003 C 216.550 217.806,216.573 217.976,216.319 218.644 C 216.129 219.144,216.088 219.681,216.227 219.836 C 216.367 219.992,216.292 220.011,216.061 219.878 C 215.606 219.619,215.202 220.700,215.185 222.222 C 215.176 222.979,215.102 223.047,214.779 222.593 C 214.477 222.167,214.438 222.283,214.615 223.087 C 214.764 223.769,214.710 224.053,214.459 223.898 C 214.244 223.765,214.074 223.970,214.074 224.361 C 214.074 224.746,213.958 225.178,213.816 225.319 C 213.287 225.849,213.383 226.727,213.948 226.510 C 214.254 226.393,214.658 226.296,214.845 226.296 C 215.032 226.296,215.185 226.036,215.185 225.719 C 215.185 225.401,215.352 225.244,215.556 225.370 C 215.759 225.496,215.926 225.454,215.926 225.276 C 215.926 225.099,216.676 224.914,217.593 224.867 C 219.242 224.782,219.981 225.822,218.981 226.821 C 218.829 226.974,218.704 227.252,218.704 227.438 C 218.704 228.123,217.959 227.783,217.844 227.046 C 217.778 226.628,217.570 226.381,217.381 226.498 C 217.192 226.615,217.037 226.557,217.037 226.369 C 217.037 226.181,216.717 226.046,216.327 226.069 C 215.618 226.111,214.074 227.590,214.074 228.227 C 214.074 228.411,213.919 228.466,213.729 228.349 C 213.539 228.232,213.123 228.509,212.803 228.965 C 212.105 229.962,212.049 230.518,212.685 230.136 C 213.054 229.914,213.055 229.973,212.688 230.426 C 212.436 230.738,212.331 231.097,212.456 231.222 C 212.582 231.347,212.555 231.748,212.397 232.114 C 212.239 232.479,212.064 233.008,212.007 233.289 C 211.815 234.235,211.113 234.676,210.745 234.081 C 210.531 233.735,210.561 233.444,210.829 233.279 C 211.135 233.090,211.118 232.862,210.768 232.440 C 210.367 231.958,210.387 231.822,210.884 231.631 C 211.213 231.505,211.468 231.128,211.452 230.794 C 211.434 230.409,211.354 230.356,211.236 230.648 C 211.133 230.903,210.897 231.111,210.710 231.111 C 210.147 231.111,210.502 230.233,211.389 229.433 C 212.282 228.626,212.522 227.935,211.759 228.366 C 211.403 228.567,211.396 228.519,211.730 228.157 C 211.969 227.899,212.083 227.475,211.983 227.215 C 211.883 226.954,211.972 226.636,212.181 226.507 C 212.389 226.378,212.456 226.001,212.328 225.668 C 212.161 225.231,212.232 225.148,212.588 225.368 C 212.957 225.595,213.027 225.472,212.871 224.872 C 212.756 224.433,212.810 224.165,212.992 224.277 C 213.174 224.390,213.225 223.995,213.105 223.397 C 212.986 222.801,213.098 221.921,213.354 221.442 C 213.611 220.963,213.896 219.901,213.987 219.082 C 214.079 218.263,214.309 217.401,214.498 217.168 C 215.007 216.540,216.295 216.981,216.023 217.690 M348.068 216.870 C 347.956 216.982,348.001 217.682,348.169 218.424 C 348.336 219.166,348.366 219.947,348.235 220.160 C 348.104 220.372,347.968 221.094,347.934 221.765 C 347.900 222.436,347.603 223.283,347.274 223.647 C 346.945 224.010,346.570 224.836,346.441 225.481 C 346.312 226.127,346.062 226.565,345.885 226.456 C 345.709 226.347,345.663 226.516,345.785 226.833 C 345.913 227.167,345.808 227.407,345.533 227.407 C 345.274 227.407,345.170 227.516,345.303 227.649 C 345.436 227.781,345.271 228.090,344.936 228.334 C 344.602 228.578,344.296 229.095,344.255 229.482 C 344.214 229.869,344.055 230.646,343.901 231.209 C 343.529 232.567,344.189 233.330,345.583 233.154 C 347.028 232.971,346.949 233.174,345.233 234.050 C 343.936 234.711,343.733 234.727,343.103 234.215 C 342.721 233.904,342.644 233.772,342.933 233.922 C 343.324 234.125,343.395 234.029,343.211 233.549 C 343.075 233.193,342.963 232.666,342.963 232.377 C 342.963 232.088,342.786 231.852,342.571 231.852 C 342.355 231.852,342.264 231.991,342.369 232.160 C 342.474 232.330,342.317 232.469,342.019 232.469 C 341.572 232.469,341.585 232.352,342.093 231.790 C 342.431 231.417,342.566 231.111,342.394 231.111 C 342.222 231.111,342.388 230.886,342.764 230.612 C 343.139 230.337,343.328 229.920,343.183 229.686 C 343.038 229.451,343.073 229.259,343.262 229.259 C 343.450 229.259,343.585 228.634,343.562 227.870 C 343.533 226.947,343.672 226.512,343.977 226.573 C 344.232 226.623,344.439 226.293,344.442 225.832 C 344.454 224.139,344.697 222.996,345.164 222.433 C 345.427 222.116,345.556 221.522,345.449 221.113 C 345.342 220.705,345.406 220.370,345.590 220.370 C 345.775 220.370,345.906 220.245,345.882 220.093 C 345.858 219.940,345.879 219.690,345.928 219.537 C 345.978 219.384,346.048 219.134,346.083 218.981 C 346.363 217.776,346.797 217.060,347.332 216.919 C 347.679 216.827,348.032 216.733,348.117 216.710 C 348.202 216.686,348.180 216.758,348.068 216.870 M186.394 223.112 C 186.671 222.835,186.465 224.433,186.115 225.278 C 185.891 225.819,186.052 225.927,187.090 225.932 C 188.715 225.939,189.352 226.363,189.024 227.220 C 188.825 227.738,188.888 227.828,189.289 227.599 C 189.715 227.356,189.727 227.394,189.352 227.798 C 189.097 228.072,188.889 228.680,188.889 229.148 C 188.889 229.632,188.689 229.960,188.426 229.907 C 188.171 229.856,187.986 230.105,188.014 230.459 C 188.042 230.813,187.917 231.012,187.736 230.900 C 187.555 230.788,187.407 230.943,187.407 231.244 C 187.407 231.544,187.219 231.853,186.988 231.930 C 186.734 232.015,186.671 232.392,186.828 232.887 C 187.139 233.868,188.905 234.021,189.644 233.131 C 189.905 232.816,190.366 232.654,190.667 232.769 C 191.099 232.935,191.125 232.870,190.789 232.465 C 190.460 232.069,190.490 231.843,190.921 231.485 C 191.306 231.166,191.481 231.150,191.481 231.436 C 191.481 231.665,191.273 231.854,191.019 231.858 C 190.708 231.861,190.739 231.985,191.111 232.233 C 191.919 232.770,189.532 234.694,188.004 234.738 C 185.864 234.799,184.779 232.769,186.157 231.282 C 186.666 230.732,186.994 230.053,186.886 229.771 C 186.770 229.468,186.930 229.259,187.279 229.259 C 187.786 229.259,187.797 229.172,187.360 228.633 C 187.063 228.267,187.035 228.116,187.292 228.270 C 187.574 228.439,187.714 228.288,187.682 227.854 C 187.621 227.051,185.057 226.716,184.602 227.451 C 184.419 227.748,184.501 227.802,184.850 227.618 C 185.136 227.467,184.971 227.668,184.484 228.065 C 183.917 228.527,183.704 228.960,183.893 229.266 C 184.087 229.580,184.042 229.654,183.761 229.480 C 183.489 229.312,183.333 229.501,183.333 230.000 C 183.333 230.505,183.179 230.689,182.900 230.517 C 182.606 230.335,182.545 230.453,182.711 230.884 C 182.855 231.262,182.806 231.428,182.588 231.294 C 182.387 231.169,182.222 231.256,182.222 231.486 C 182.222 232.106,181.193 233.025,180.946 232.625 C 180.829 232.436,180.978 232.038,181.275 231.741 C 181.573 231.443,181.700 231.069,181.556 230.911 C 181.413 230.752,181.505 230.742,181.759 230.888 C 182.059 231.061,182.222 230.912,182.222 230.466 C 182.222 230.088,182.420 229.580,182.662 229.338 C 182.903 229.097,183.156 228.522,183.224 228.061 C 183.292 227.599,183.626 227.014,183.967 226.759 C 184.516 226.349,184.381 226.139,183.635 226.245 C 183.495 226.264,183.405 225.951,183.436 225.548 C 183.466 225.145,183.622 224.815,183.783 224.815 C 183.943 224.815,184.074 224.472,184.074 224.052 C 184.074 223.633,184.242 223.393,184.447 223.520 C 184.652 223.647,184.922 223.486,185.046 223.162 C 185.206 222.745,185.404 222.684,185.725 222.950 C 185.975 223.157,186.276 223.230,186.394 223.112 M355.185 224.509 C 355.185 224.701,355.353 224.755,355.557 224.629 C 355.785 224.488,355.893 224.898,355.835 225.686 C 355.783 226.395,355.574 226.947,355.370 226.913 C 355.167 226.879,354.996 227.102,354.990 227.407 C 354.974 228.303,354.463 228.873,353.877 228.648 C 353.533 228.516,353.333 228.666,353.333 229.056 C 353.333 229.396,353.175 229.576,352.982 229.456 C 352.788 229.336,352.442 229.589,352.212 230.018 C 351.978 230.456,351.569 230.711,351.280 230.600 C 350.503 230.303,350.349 230.864,350.909 231.945 C 351.185 232.476,351.336 232.985,351.245 233.076 C 351.154 233.167,351.345 233.344,351.670 233.469 C 352.075 233.624,352.174 233.551,351.985 233.236 C 351.786 232.905,351.875 232.912,352.307 233.262 C 352.749 233.620,353.106 233.644,353.675 233.355 C 354.098 233.139,354.796 232.784,355.225 232.564 C 355.837 232.252,355.972 232.272,355.847 232.657 C 355.759 232.927,355.151 233.405,354.496 233.720 C 353.840 234.034,353.412 234.400,353.545 234.532 C 353.677 234.665,353.309 234.711,352.726 234.634 C 352.143 234.558,351.500 234.478,351.296 234.457 C 351.093 234.435,350.426 233.989,349.815 233.465 C 349.204 232.940,348.954 232.645,349.259 232.808 C 349.719 233.054,349.735 233.007,349.355 232.537 C 349.102 232.225,348.969 231.895,349.060 231.805 C 349.150 231.714,348.806 231.606,348.295 231.563 C 347.749 231.518,347.462 231.640,347.598 231.860 C 347.725 232.066,347.984 232.138,348.174 232.021 C 348.764 231.656,348.552 232.029,347.807 232.667 C 346.669 233.641,346.500 232.441,347.606 231.247 C 348.108 230.705,348.524 230.412,348.532 230.594 C 348.539 230.777,348.775 230.510,349.056 230.002 C 349.337 229.495,349.419 228.988,349.239 228.876 C 349.058 228.764,349.331 228.220,349.845 227.665 C 350.358 227.111,350.689 226.512,350.579 226.334 C 350.469 226.156,350.607 225.820,350.887 225.588 C 351.540 225.046,352.056 226.159,351.476 226.858 C 351.007 227.424,350.632 230.003,351.021 229.992 C 351.172 229.987,351.713 229.639,352.222 229.219 C 352.731 228.798,352.898 228.574,352.593 228.721 C 352.287 228.867,352.557 228.494,353.193 227.891 C 354.356 226.789,354.742 224.961,353.796 225.037 C 352.740 225.122,352.558 225.200,352.740 225.494 C 352.845 225.664,352.688 225.802,352.391 225.802 C 352.095 225.802,351.852 225.697,351.852 225.568 C 351.852 225.092,352.761 224.444,353.429 224.444 C 353.808 224.444,354.024 224.293,353.910 224.109 C 353.796 223.924,354.036 223.860,354.444 223.967 C 354.852 224.073,355.185 224.318,355.185 224.509 M331.670 224.450 C 331.798 224.658,332.058 224.731,332.248 224.614 C 332.437 224.497,332.593 224.587,332.593 224.815 C 332.593 225.043,332.759 225.126,332.963 225.000 C 333.167 224.874,333.333 225.096,333.333 225.494 C 333.333 225.892,333.602 226.320,333.930 226.446 C 334.355 226.609,334.480 226.999,334.362 227.798 C 334.145 229.278,334.661 229.533,335.767 228.494 C 336.260 228.031,336.768 227.755,336.894 227.882 C 337.213 228.201,336.249 229.107,335.255 229.422 C 334.788 229.570,334.542 229.858,334.685 230.090 C 334.846 230.351,334.716 230.412,334.320 230.260 C 333.981 230.130,333.683 230.185,333.657 230.382 C 333.607 230.769,333.480 231.315,333.336 231.759 C 333.286 231.912,333.265 232.162,333.289 232.315 C 333.314 232.468,333.083 232.593,332.778 232.593 C 332.472 232.593,332.242 232.718,332.266 232.870 C 332.401 233.725,332.165 234.131,331.647 233.933 C 331.318 233.806,331.169 233.868,331.299 234.078 C 331.423 234.280,331.224 234.462,330.855 234.484 C 330.487 234.505,329.852 234.548,329.444 234.578 C 328.347 234.659,327.408 234.133,327.628 233.561 C 327.734 233.285,327.576 232.965,327.276 232.850 C 326.868 232.693,326.782 232.242,326.932 231.043 C 327.042 230.164,327.152 229.085,327.177 228.646 C 327.202 228.208,327.322 227.910,327.445 227.986 C 327.568 228.062,327.867 227.458,328.111 226.644 C 328.355 225.830,328.676 225.239,328.825 225.331 C 328.973 225.423,329.507 225.181,330.010 224.794 C 331.063 223.985,331.347 223.927,331.670 224.450 M196.173 225.063 C 196.173 225.316,196.039 225.440,195.875 225.339 C 195.711 225.238,195.599 225.748,195.627 226.474 C 195.660 227.366,195.457 227.953,195.000 228.287 C 194.553 228.614,194.412 229.010,194.582 229.454 C 194.728 229.836,194.653 230.241,194.408 230.393 C 194.131 230.564,194.064 231.126,194.221 231.962 C 194.472 233.301,195.004 233.511,196.015 232.672 C 196.309 232.428,196.659 232.338,196.793 232.472 C 196.927 232.606,197.037 232.450,197.037 232.124 C 197.037 231.798,197.370 231.426,197.778 231.296 C 198.185 231.167,198.519 230.899,198.519 230.700 C 198.519 230.502,198.876 229.971,199.314 229.522 C 199.751 229.072,199.974 228.954,199.810 229.259 C 199.645 229.565,199.635 229.704,199.786 229.568 C 199.938 229.432,200.044 229.222,200.023 229.101 C 200.002 228.980,200.236 228.396,200.543 227.803 C 200.849 227.210,200.956 226.670,200.780 226.603 C 200.604 226.536,200.597 226.119,200.763 225.677 C 201.189 224.545,202.544 224.903,202.317 226.087 C 202.150 226.962,203.108 227.701,203.529 227.021 C 203.649 226.826,203.564 226.667,203.341 226.667 C 203.079 226.667,203.104 226.482,203.411 226.148 C 203.674 225.863,203.956 225.694,204.037 225.772 C 204.119 225.850,204.388 225.638,204.634 225.301 C 205.950 223.503,208.151 225.441,207.450 227.781 C 207.204 228.602,207.120 229.463,207.262 229.694 C 207.416 229.944,207.357 230.013,207.117 229.864 C 206.882 229.719,206.709 229.890,206.706 230.270 C 206.703 230.631,206.630 231.471,206.543 232.136 C 206.396 233.267,206.450 233.336,207.360 233.185 C 207.895 233.097,208.468 233.010,208.633 232.993 C 208.798 232.977,208.827 232.792,208.698 232.583 C 208.569 232.375,208.677 232.250,208.937 232.306 C 209.198 232.362,209.418 232.213,209.428 231.975 C 209.437 231.738,209.547 231.441,209.672 231.315 C 210.055 230.933,209.835 232.362,209.395 233.111 C 209.128 233.567,208.723 233.747,208.244 233.621 C 207.730 233.487,207.519 233.604,207.549 234.006 C 207.595 234.616,205.308 234.942,204.958 234.376 C 204.578 233.762,204.506 231.846,204.871 232.072 C 205.084 232.203,205.196 232.005,205.132 231.615 C 205.070 231.236,205.170 230.684,205.355 230.389 C 206.066 229.252,205.883 225.926,205.108 225.926 C 204.719 225.926,204.503 226.091,204.627 226.292 C 204.761 226.510,204.595 226.559,204.218 226.414 C 203.818 226.261,203.672 226.316,203.824 226.562 C 204.058 226.940,203.077 228.033,202.628 227.895 C 202.507 227.857,202.460 228.082,202.525 228.395 C 202.589 228.707,202.489 228.869,202.303 228.754 C 201.790 228.437,201.079 230.063,201.284 231.084 C 201.383 231.578,201.287 232.196,201.071 232.456 C 200.854 232.717,200.773 233.086,200.890 233.275 C 201.145 233.688,200.219 234.540,199.882 234.203 C 199.753 234.074,199.377 234.193,199.046 234.467 C 198.502 234.919,198.504 234.829,199.067 233.502 C 199.955 231.411,200.146 229.788,199.435 230.378 C 199.139 230.624,198.977 230.954,199.074 231.111 C 199.171 231.268,198.903 231.488,198.477 231.600 C 198.051 231.711,197.801 231.961,197.922 232.155 C 198.042 232.349,197.804 232.596,197.393 232.704 C 196.982 232.811,196.692 233.122,196.749 233.394 C 196.805 233.666,196.602 233.889,196.296 233.889 C 195.991 233.889,195.645 234.018,195.528 234.176 C 195.411 234.334,194.744 234.216,194.046 233.913 C 193.349 233.610,192.923 233.356,193.101 233.348 C 193.279 233.340,193.195 233.051,192.916 232.707 C 192.636 232.362,192.574 232.179,192.778 232.300 C 192.990 232.426,193.168 232.021,193.194 231.353 C 193.219 230.711,193.165 230.477,193.074 230.833 C 192.983 231.190,192.629 231.468,192.288 231.452 C 191.840 231.431,191.808 231.367,192.172 231.222 C 192.574 231.062,192.581 230.962,192.204 230.730 C 191.831 230.499,191.852 230.317,192.303 229.866 C 192.618 229.552,192.992 229.412,193.135 229.555 C 193.278 229.698,193.361 229.648,193.320 229.444 C 193.077 228.239,193.376 225.789,193.704 226.296 C 193.954 226.683,194.079 226.711,194.115 226.389 C 194.205 225.588,194.264 225.381,194.516 224.987 C 194.860 224.447,196.173 224.508,196.173 225.063 M343.153 225.200 C 343.289 225.630,343.302 226.080,343.182 226.201 C 343.062 226.321,342.963 226.215,342.963 225.966 C 342.963 225.716,342.796 225.615,342.593 225.741 C 342.389 225.867,342.222 225.710,342.222 225.392 C 342.222 225.075,341.962 224.815,341.645 224.815 C 341.327 224.815,341.177 224.993,341.312 225.210 C 341.458 225.447,341.282 225.558,340.871 225.488 C 340.475 225.420,340.224 225.566,340.278 225.833 C 340.329 226.088,340.162 226.255,339.907 226.204 C 339.653 226.153,339.468 226.403,339.496 226.759 C 339.524 227.116,339.371 227.407,339.156 227.407 C 338.941 227.407,338.863 227.505,338.981 227.623 C 339.100 227.742,338.858 228.179,338.444 228.593 C 337.888 229.149,337.809 229.420,338.144 229.627 C 338.471 229.829,338.482 229.979,338.184 230.163 C 337.780 230.413,337.733 232.559,338.132 232.523 C 338.864 232.457,339.270 232.646,339.074 232.963 C 338.948 233.167,339.022 233.333,339.237 233.333 C 339.453 233.333,339.630 233.172,339.630 232.975 C 339.630 232.777,339.907 232.722,340.246 232.852 C 340.705 233.029,340.784 232.955,340.557 232.563 C 340.389 232.273,340.394 232.167,340.569 232.326 C 341.055 232.768,341.078 233.571,340.606 233.658 C 338.269 234.091,337.037 233.966,337.037 233.296 C 337.037 232.909,336.905 232.593,336.744 232.593 C 336.373 232.593,336.409 230.707,336.792 230.093 C 336.951 229.838,336.962 229.437,336.816 229.202 C 336.653 228.937,336.715 228.875,336.980 229.039 C 337.246 229.203,337.407 229.036,337.407 228.597 C 337.407 228.209,337.741 227.507,338.148 227.037 C 338.556 226.567,338.889 225.958,338.889 225.684 C 338.889 225.410,339.139 225.185,339.444 225.185 C 339.750 225.185,340.000 225.051,340.000 224.887 C 340.000 224.128,342.904 224.416,343.153 225.200 M331.111 225.574 C 331.111 225.720,330.757 225.932,330.325 226.045 C 329.665 226.218,329.583 226.419,329.815 227.292 C 329.968 227.865,330.100 228.534,330.108 228.780 C 330.117 229.026,330.262 229.141,330.432 229.036 C 330.602 228.931,330.741 228.997,330.741 229.182 C 330.741 230.302,332.785 229.374,332.897 228.203 C 332.964 227.495,332.866 227.053,332.668 227.176 C 332.477 227.294,332.321 227.103,332.322 226.751 C 332.325 225.539,332.221 225.309,331.667 225.309 C 331.361 225.309,331.111 225.428,331.111 225.574 M158.886 226.019 C 158.888 226.171,158.712 226.296,158.497 226.296 C 158.281 226.296,158.186 226.428,158.286 226.590 C 158.386 226.751,158.107 226.910,157.667 226.944 C 157.226 226.977,156.676 227.264,156.443 227.582 C 156.200 227.915,155.763 228.063,155.417 227.930 C 155.086 227.803,154.815 227.869,154.815 228.078 C 154.815 228.286,155.009 228.521,155.245 228.600 C 155.695 228.750,156.038 230.001,155.614 229.945 C 155.480 229.927,155.287 229.945,155.185 229.984 C 154.508 230.249,153.732 230.254,153.893 229.993 C 153.999 229.821,153.905 229.569,153.684 229.433 C 153.464 229.296,153.372 228.951,153.482 228.666 C 153.610 228.332,153.426 228.148,152.963 228.148 C 152.477 228.148,152.314 227.969,152.459 227.593 C 152.620 227.173,152.393 227.037,151.533 227.037 C 149.765 227.037,150.460 225.998,152.347 225.820 C 154.790 225.589,158.883 225.714,158.886 226.019 M297.889 225.790 C 298.018 225.919,297.735 226.329,297.262 226.702 C 296.030 227.671,294.860 232.242,295.677 232.899 C 296.519 233.576,299.841 233.314,299.841 232.570 C 299.841 232.205,299.705 231.991,299.538 232.094 C 299.371 232.197,299.309 231.870,299.400 231.367 C 299.491 230.864,299.358 230.053,299.105 229.564 C 298.852 229.076,298.671 227.974,298.703 227.116 C 298.746 225.953,298.620 225.556,298.208 225.556 C 297.903 225.556,297.760 225.661,297.889 225.790 M371.916 225.789 C 373.350 226.026,373.566 227.037,372.183 227.037 C 371.797 227.037,371.479 227.245,371.476 227.500 C 371.472 227.809,371.350 227.778,371.111 227.407 C 370.914 227.102,370.750 227.041,370.746 227.272 C 370.743 227.502,370.407 227.779,370.000 227.885 C 369.593 227.992,369.259 228.281,369.259 228.529 C 369.259 228.875,369.390 228.871,369.823 228.511 C 370.300 228.116,370.348 228.147,370.131 228.712 C 369.934 229.224,369.997 229.307,370.400 229.064 C 370.838 228.800,370.846 228.845,370.450 229.334 C 370.188 229.658,370.022 230.127,370.080 230.378 C 370.138 230.628,369.935 230.909,369.630 231.000 C 369.185 231.134,369.174 231.097,369.572 230.818 C 369.954 230.550,369.853 230.414,369.144 230.236 C 368.462 230.065,368.265 229.817,368.400 229.303 C 368.501 228.917,368.394 228.485,368.162 228.342 C 367.853 228.151,367.865 227.934,368.205 227.524 C 368.593 227.056,368.551 226.978,367.946 227.044 C 366.666 227.183,366.315 227.049,366.525 226.503 C 366.709 226.023,367.596 225.784,369.815 225.619 C 370.222 225.589,371.168 225.665,371.916 225.789 M153.395 227.362 C 153.001 227.611,153.026 227.723,153.518 227.911 C 154.380 228.242,154.444 228.220,154.444 227.593 C 154.444 226.969,154.125 226.899,153.395 227.362 M368.567 227.534 C 368.340 227.807,368.263 228.139,368.395 228.272 C 368.673 228.550,369.630 227.845,369.630 227.362 C 369.630 226.874,369.035 226.971,368.567 227.534 M217.963 228.603 C 218.167 228.756,217.884 228.848,217.335 228.806 C 216.558 228.747,216.426 228.623,216.740 228.245 C 216.961 227.978,217.244 227.887,217.368 228.042 C 217.491 228.198,217.759 228.450,217.963 228.603 M214.815 229.183 C 215.572 229.272,215.639 229.217,215.185 228.877 C 214.536 228.392,214.952 228.518,216.413 229.249 C 217.380 229.733,217.444 229.898,217.290 231.534 C 217.103 233.530,217.276 233.898,218.093 233.238 C 218.546 232.871,218.604 232.871,218.383 233.241 C 217.987 233.899,218.524 233.814,219.323 233.091 C 219.748 232.706,220.000 232.642,220.000 232.917 C 220.000 233.159,219.751 233.452,219.447 233.569 C 219.142 233.686,219.002 233.972,219.136 234.205 C 219.269 234.439,219.240 234.504,219.070 234.351 C 218.901 234.197,218.410 234.303,217.979 234.585 C 216.428 235.601,214.999 233.240,216.249 231.727 C 216.907 230.929,216.217 229.993,215.172 230.267 C 214.679 230.396,214.444 230.271,214.444 229.879 C 214.444 229.501,214.189 229.351,213.704 229.444 C 212.970 229.586,212.728 229.247,213.215 228.760 C 213.354 228.621,213.563 228.635,213.678 228.791 C 213.794 228.947,214.306 229.123,214.815 229.183 M328.011 229.722 C 327.645 231.088,327.733 231.923,328.211 231.628 C 328.502 231.448,328.567 231.562,328.408 231.976 C 328.278 232.315,328.333 232.593,328.530 232.593 C 328.727 232.593,328.847 232.801,328.796 233.056 C 328.636 233.859,330.768 233.695,331.069 232.881 C 331.214 232.488,331.491 232.221,331.685 232.287 C 331.879 232.353,332.076 231.991,332.123 231.481 C 332.199 230.666,332.172 230.644,331.900 231.296 C 331.600 232.015,331.583 232.013,331.326 231.204 C 331.180 230.745,330.859 230.370,330.613 230.370 C 330.366 230.370,329.879 230.037,329.530 229.630 C 328.707 228.668,328.287 228.693,328.011 229.722 M229.630 230.185 C 229.630 230.491,229.796 230.741,230.000 230.741 C 230.204 230.741,230.370 230.491,230.370 230.185 C 230.370 229.880,230.204 229.630,230.000 229.630 C 229.796 229.630,229.630 229.880,229.630 230.185 M222.222 230.741 C 222.222 230.944,222.046 231.111,221.830 231.111 C 221.614 231.111,221.557 231.304,221.702 231.539 C 221.862 231.798,221.804 231.866,221.555 231.712 C 221.329 231.572,221.237 231.213,221.352 230.914 C 221.588 230.300,222.222 230.174,222.222 230.741 M357.949 231.204 C 357.907 231.669,357.663 231.988,357.397 231.925 C 357.134 231.863,356.782 232.030,356.614 232.295 C 356.385 232.656,356.306 232.614,356.302 232.130 C 356.299 231.773,356.528 231.481,356.812 231.481 C 357.096 231.481,357.424 231.231,357.541 230.926 C 357.851 230.119,358.036 230.245,357.949 231.204 M181.111 233.911 C 181.111 234.456,180.670 234.620,180.272 234.223 C 179.939 233.889,180.398 232.936,180.780 233.172 C 180.962 233.285,181.111 233.617,181.111 233.911 " stroke="none" fill="#040c0c" fill-rule="evenodd"></path><path id="path4" d="M229.353 230.556 C 229.357 231.370,229.433 231.660,229.521 231.199 C 229.610 230.739,229.606 230.072,229.514 229.718 C 229.421 229.364,229.349 229.741,229.353 230.556 " stroke="none" fill="#0478a4" fill-rule="evenodd"></path><path id="path5" d="M222.704 231.852 C 222.704 232.972,222.773 233.431,222.858 232.870 C 222.943 232.310,222.943 231.394,222.858 230.833 C 222.773 230.273,222.704 230.731,222.704 231.852 " stroke="none" fill="#045878" fill-rule="evenodd"></path><path id="path6" d="" stroke="none" fill="#042430" fill-rule="evenodd"></path></g></svg>