<svg id="svg" version="1.1" xmlns="http://www.w3.org/2000/svg" xmlns:xlink="http://www.w3.org/1999/xlink" width="400" height="400" viewBox="0, 0, 400,400"><g id="svgg"><path id="path0" d="M218.003 172.438 C 217.879 172.760,217.778 179.927,217.778 188.364 L 217.778 203.704 221.442 203.704 C 224.042 203.704,225.152 203.569,225.264 203.241 C 225.397 202.853,225.364 172.965,225.230 172.130 C 225.132 171.524,218.241 171.818,218.003 172.438 M65.185 225.000 L 65.185 240.370 80.556 240.370 L 95.926 240.370 95.926 225.000 L 95.926 209.630 80.556 209.630 L 65.185 209.630 65.185 225.000 " stroke="none" fill="#1767fc" fill-rule="evenodd"></path><path id="path1" d="M124.176 162.870 C 111.239 185.268,108.148 190.704,108.148 191.060 C 108.148 191.369,112.921 191.481,126.111 191.481 C 135.991 191.481,144.074 191.376,144.074 191.246 C 144.074 190.619,126.424 160.397,126.051 160.385 C 125.814 160.377,124.970 161.495,124.176 162.870 " stroke="none" fill="#fc4404" fill-rule="evenodd"></path><path id="path2" d="M173.243 211.322 C 171.165 212.449,169.928 217.419,171.155 219.711 C 171.808 220.932,171.708 223.859,170.974 224.979 C 168.681 228.479,175.084 231.900,179.500 229.534 C 180.454 229.022,180.740 228.997,181.069 229.394 C 181.713 230.170,184.133 230.726,185.556 230.426 C 186.381 230.252,187.390 230.339,188.333 230.665 C 189.547 231.084,190.416 231.098,193.148 230.742 C 196.968 230.244,203.928 230.124,206.111 230.519 C 207.252 230.726,207.920 230.617,209.016 230.046 C 210.096 229.483,210.660 229.388,211.355 229.652 C 213.016 230.284,215.220 230.050,216.904 229.063 L 218.502 228.127 220.060 229.156 C 221.783 230.294,225.299 230.560,226.948 229.677 C 227.404 229.433,227.778 229.384,227.778 229.568 C 227.778 230.104,230.943 230.845,231.906 230.535 C 233.236 230.107,240.101 230.100,240.820 230.526 C 241.258 230.786,241.985 230.760,243.177 230.441 C 244.458 230.098,245.029 230.087,245.402 230.397 C 245.720 230.661,246.621 230.728,247.860 230.581 C 248.935 230.453,250.481 230.381,251.296 230.421 C 253.240 230.515,255.351 230.528,257.407 230.459 C 260.866 230.342,262.107 230.403,264.521 230.808 C 267.777 231.353,269.799 230.669,271.124 228.572 L 272.022 227.150 273.048 228.176 C 275.593 230.722,282.222 230.047,282.222 227.243 C 282.222 225.780,284.556 226.083,286.300 227.772 C 287.308 228.748,288.708 229.663,289.662 229.968 C 291.651 230.605,302.491 230.906,304.407 230.377 C 305.263 230.141,305.845 230.141,306.081 230.378 C 306.662 230.958,309.856 230.797,311.284 230.117 C 312.511 229.531,312.674 229.531,313.901 230.117 C 319.235 232.660,327.598 229.019,325.371 225.124 C 323.833 222.433,324.443 218.968,326.665 217.779 C 327.705 217.222,327.366 216.126,325.631 214.444 L 324.294 213.148 320.943 213.218 C 318.888 213.260,317.060 213.511,316.216 213.866 C 314.461 214.603,313.427 214.594,312.037 213.828 C 311.401 213.477,309.818 213.160,308.333 213.086 C 306.907 213.015,304.887 212.856,303.844 212.732 C 302.620 212.587,301.858 212.654,301.693 212.920 C 301.262 213.617,300.230 213.382,299.093 212.328 C 297.399 210.757,293.995 210.650,291.591 212.093 C 290.614 212.679,289.349 213.397,288.781 213.688 C 288.212 213.978,286.971 215.045,286.023 216.058 C 284.437 217.754,284.269 217.844,283.909 217.191 C 282.656 214.916,280.706 213.636,278.748 213.802 C 276.762 213.970,273.175 215.346,271.542 216.566 L 270.582 217.282 269.824 216.157 C 268.164 213.693,265.996 212.487,263.716 212.757 C 262.589 212.891,261.250 212.975,260.741 212.945 C 259.830 212.891,248.806 212.916,244.815 212.980 C 241.588 213.033,239.276 212.582,237.868 211.626 C 236.237 210.520,233.797 210.432,232.557 211.436 C 231.872 211.991,231.491 212.058,230.664 211.770 C 230.010 211.542,229.255 211.537,228.611 211.757 C 227.902 212.000,227.255 211.960,226.481 211.625 C 223.264 210.233,219.774 211.812,218.719 215.137 L 218.445 216.000 217.165 214.759 C 216.030 213.658,215.639 213.512,213.696 213.459 C 212.492 213.426,210.960 213.233,210.291 213.029 C 209.373 212.749,200.891 212.690,197.222 212.937 C 197.019 212.951,196.257 212.864,195.529 212.745 C 194.697 212.608,193.680 212.747,192.787 213.120 C 191.514 213.652,191.278 213.656,190.511 213.153 C 189.191 212.288,186.624 212.441,185.101 213.474 L 183.802 214.355 182.734 213.529 C 179.896 211.334,175.224 210.247,173.243 211.322 M178.908 216.684 C 183.354 218.926,183.740 222.103,179.815 224.154 C 175.075 226.632,173.797 226.097,175.395 222.303 C 175.720 221.532,175.939 220.111,175.892 219.074 C 175.714 215.128,175.756 215.095,178.908 216.684 M236.296 217.112 C 236.296 217.721,236.061 218.661,235.773 219.202 C 235.485 219.743,234.915 220.935,234.506 221.852 C 232.802 225.670,230.957 226.747,229.810 224.593 C 228.703 222.515,228.547 222.372,228.056 222.991 C 223.707 228.468,219.838 224.710,222.821 217.907 C 223.103 217.265,223.333 216.557,223.333 216.333 C 223.333 215.758,224.272 215.827,224.780 216.440 C 225.067 216.785,225.094 217.242,224.864 217.829 C 224.560 218.605,224.363 219.286,223.516 222.469 C 222.860 224.937,225.791 222.763,227.778 219.307 C 229.154 216.913,229.578 216.547,230.390 217.049 C 230.812 217.310,230.821 217.736,230.444 219.563 C 229.547 223.907,231.811 223.956,233.499 219.630 C 234.940 215.936,235.154 215.567,235.731 215.788 C 236.063 215.916,236.296 216.461,236.296 217.112 M296.442 216.252 C 297.225 217.118,296.501 218.052,294.778 218.396 C 294.196 218.513,293.530 218.838,293.296 219.119 C 293.063 219.400,292.657 219.630,292.395 219.630 C 291.785 219.630,290.000 221.735,290.000 222.455 C 290.000 223.214,292.243 224.074,294.226 224.074 C 296.069 224.074,296.674 224.596,295.820 225.450 C 295.178 226.092,292.865 226.168,291.477 225.593 C 287.626 223.997,287.857 219.324,291.888 217.265 C 292.174 217.119,292.991 216.683,293.704 216.295 C 295.348 215.402,295.668 215.397,296.442 216.252 M189.762 218.676 C 190.943 220.478,190.166 222.355,188.115 222.655 C 186.119 222.948,187.360 224.358,190.000 224.797 C 190.802 224.930,191.296 225.222,191.296 225.562 C 191.296 226.474,189.546 226.390,187.659 225.387 C 185.523 224.251,185.302 224.234,185.000 225.185 C 184.703 226.122,184.216 226.138,183.975 225.219 C 183.711 224.208,184.914 219.632,185.444 219.631 C 185.688 219.630,186.331 219.050,186.871 218.341 C 187.967 216.904,188.653 216.983,189.762 218.676 M253.328 217.588 C 253.838 218.049,254.265 218.069,255.980 217.709 C 258.028 217.280,259.259 217.434,259.259 218.122 C 259.259 218.464,257.905 218.932,255.437 219.441 C 254.115 219.714,254.330 220.514,255.769 220.681 C 258.390 220.984,257.830 222.558,255.093 222.581 C 254.329 222.587,253.704 222.746,253.704 222.933 C 253.704 223.120,253.593 223.561,253.458 223.914 C 253.235 224.494,253.447 224.537,255.684 224.357 C 258.326 224.145,258.886 224.395,257.924 225.356 C 257.464 225.816,256.746 225.932,254.873 225.849 C 251.819 225.714,251.266 224.881,252.515 222.296 C 253.448 220.364,252.973 218.329,251.671 218.679 C 251.261 218.789,250.669 218.881,250.354 218.884 C 249.544 218.891,247.265 223.780,247.499 225.007 C 247.640 225.743,247.544 225.936,247.082 225.848 C 246.174 225.676,246.140 223.854,247.009 221.836 C 248.045 219.426,248.002 219.259,246.336 219.259 C 245.340 219.259,244.822 219.071,244.661 218.651 C 244.361 217.869,244.161 217.946,247.593 217.520 C 251.980 216.975,252.659 216.983,253.328 217.588 M265.000 217.698 C 267.089 219.491,266.503 222.593,264.075 222.593 C 262.037 222.593,263.315 224.413,265.566 224.715 C 266.719 224.870,267.037 225.071,267.037 225.646 C 267.037 226.573,264.950 226.288,263.009 225.095 L 261.759 224.327 261.118 225.177 C 260.245 226.333,259.858 225.614,260.161 223.400 C 260.579 220.349,260.789 219.630,261.263 219.630 C 261.518 219.630,262.213 219.054,262.808 218.351 C 264.067 216.861,264.036 216.870,265.000 217.698 M176.852 220.370 C 176.852 223.133,177.254 224.109,177.938 223.004 C 178.050 222.823,178.562 222.569,179.076 222.440 C 182.018 221.702,181.833 218.148,178.853 218.148 C 178.489 218.148,178.089 217.981,177.963 217.778 C 177.255 216.632,176.852 217.571,176.852 220.370 M194.884 220.589 C 194.642 221.493,194.444 223.064,194.444 224.079 C 194.444 225.448,194.305 225.926,193.906 225.926 C 193.211 225.926,192.789 223.725,193.138 221.924 C 193.284 221.171,193.492 220.056,193.600 219.444 C 193.708 218.833,193.978 218.107,194.199 217.830 C 194.938 216.906,195.386 218.711,194.884 220.589 M200.867 220.826 C 200.665 223.008,200.714 223.333,201.249 223.333 C 202.074 223.333,203.330 221.198,203.332 219.793 C 203.333 219.170,203.550 218.363,203.816 218.000 C 204.582 216.953,205.416 218.145,204.891 219.537 C 204.679 220.097,204.417 221.196,204.308 221.979 C 204.199 222.762,203.655 223.999,203.098 224.728 L 202.087 226.053 200.912 224.693 C 199.451 223.003,199.060 222.993,198.468 224.630 C 197.912 226.169,197.694 226.227,197.042 225.010 C 196.323 223.666,199.390 217.251,200.438 217.906 C 201.009 218.263,201.068 218.664,200.867 220.826 M209.142 217.808 C 209.429 218.096,209.428 218.511,209.140 219.276 C 208.525 220.905,209.048 220.962,211.096 219.490 C 212.977 218.139,214.445 217.754,214.444 218.611 C 214.443 218.866,213.599 219.649,212.568 220.352 C 209.695 222.311,209.951 223.704,213.184 223.704 C 215.027 223.704,215.441 224.098,214.497 224.953 C 213.706 225.668,211.862 225.223,210.494 223.988 C 209.466 223.059,208.328 223.392,207.579 224.841 C 206.628 226.680,205.404 225.721,205.945 223.562 C 207.120 218.878,208.224 216.891,209.142 217.808 M242.012 217.870 C 242.088 218.125,242.353 219.120,242.602 220.082 C 242.912 221.285,243.292 221.906,243.818 222.073 C 244.548 222.305,244.552 222.339,243.912 222.807 C 243.517 223.096,243.333 223.540,243.466 223.886 C 243.740 224.600,242.975 225.926,242.289 225.926 C 241.925 225.926,241.861 225.615,242.049 224.760 C 242.305 223.594,242.305 223.593,240.972 223.810 C 239.958 223.974,239.550 223.877,239.264 223.402 C 238.807 222.641,237.407 224.016,237.407 225.226 C 237.407 225.611,237.157 225.926,236.852 225.926 C 236.132 225.926,236.121 224.326,236.832 223.020 C 237.126 222.479,237.646 221.410,237.988 220.643 C 238.329 219.876,239.088 218.965,239.674 218.618 C 240.261 218.272,240.741 217.858,240.741 217.698 C 240.741 217.218,241.864 217.371,242.012 217.870 M304.396 217.904 C 304.623 218.178,304.728 218.482,304.629 218.581 C 304.530 218.680,304.865 219.622,305.373 220.675 C 306.820 223.675,306.595 224.308,303.599 225.663 C 300.943 226.863,298.148 226.035,298.148 224.048 C 298.148 221.259,303.122 216.369,304.396 217.904 M309.419 217.737 C 309.531 217.918,310.052 218.174,310.576 218.305 C 312.103 218.689,314.074 220.703,314.074 221.880 C 314.074 222.966,311.753 225.185,310.617 225.185 C 310.302 225.185,309.941 225.352,309.815 225.556 C 308.989 226.891,307.373 225.153,308.128 223.742 C 308.343 223.340,308.519 221.751,308.519 220.210 C 308.519 217.695,308.843 216.804,309.419 217.737 M322.433 217.819 C 322.778 218.378,322.033 218.788,319.722 219.309 C 317.512 219.807,317.037 220.733,318.981 220.753 C 319.644 220.759,320.474 220.984,320.827 221.252 C 321.643 221.871,320.314 222.593,318.356 222.593 C 317.190 222.593,316.667 223.073,316.667 224.142 C 316.667 224.375,317.628 224.470,319.167 224.390 C 322.035 224.240,322.694 225.020,320.370 225.812 C 316.887 227.000,313.623 225.200,315.505 223.130 C 316.096 222.480,316.638 220.396,316.274 220.172 C 316.083 220.053,315.926 219.662,315.926 219.302 C 315.926 218.098,321.781 216.763,322.433 217.819 M279.259 219.837 C 279.259 220.941,279.380 221.111,280.163 221.111 C 282.022 221.111,281.856 222.163,279.936 222.556 C 278.979 222.752,278.652 223.055,278.382 223.995 C 277.911 225.639,276.580 225.711,276.907 224.074 C 277.114 223.039,277.054 222.963,276.030 222.963 C 274.282 222.963,273.443 221.794,274.316 220.578 C 274.979 219.655,275.132 219.634,276.948 220.205 C 277.429 220.356,277.716 220.104,278.040 219.245 C 278.586 217.799,279.259 218.125,279.259 219.837 M186.756 219.995 C 186.082 221.074,186.190 221.481,187.151 221.481 C 188.376 221.481,189.351 220.670,189.055 219.898 C 188.722 219.031,187.321 219.090,186.756 219.995 M262.799 220.082 C 262.031 221.179,262.072 221.481,262.987 221.481 C 264.279 221.481,265.138 220.826,264.923 220.005 C 264.664 219.014,263.517 219.056,262.799 220.082 M309.444 221.667 C 309.444 224.347,309.540 224.412,311.667 223.192 C 313.893 221.914,313.754 220.564,311.300 219.631 C 309.565 218.972,309.444 219.104,309.444 221.667 M240.093 220.245 C 239.838 220.348,239.630 220.668,239.630 220.957 C 239.630 221.245,239.463 221.481,239.259 221.481 C 239.056 221.481,238.889 221.731,238.889 222.037 C 238.889 222.425,239.280 222.593,240.185 222.593 C 241.522 222.593,241.816 222.043,241.257 220.586 C 241.023 219.977,240.869 219.932,240.093 220.245 M300.859 221.223 C 298.390 223.706,299.554 225.092,303.269 224.092 C 305.069 223.607,305.424 222.819,304.563 221.220 C 303.703 219.624,302.449 219.625,300.859 221.223 M275.069 220.980 C 274.586 221.463,274.817 221.852,275.586 221.852 C 276.017 221.852,276.293 221.658,276.211 221.412 C 276.031 220.871,275.413 220.637,275.069 220.980 " stroke="none" fill="#243c44" fill-rule="evenodd"></path><path id="path3" d="M67.303 162.511 C 64.603 165.239,64.282 164.478,70.926 171.111 L 76.667 176.843 70.926 182.592 C 64.279 189.250,64.607 188.469,67.303 191.193 C 70.013 193.932,69.299 194.230,75.926 187.592 L 81.658 181.852 87.407 187.592 C 94.058 194.234,93.324 193.927,96.030 191.193 C 98.730 188.464,99.051 189.226,92.407 182.592 L 86.666 176.861 92.407 171.111 C 99.049 164.460,98.742 165.194,96.008 162.488 C 93.279 159.788,94.041 159.467,87.407 166.111 L 81.675 171.852 75.926 166.111 C 69.275 159.470,70.009 159.776,67.303 162.511 M175.432 172.099 C 175.296 172.235,175.185 173.725,175.185 175.410 L 175.185 178.474 176.574 178.589 L 177.963 178.704 177.963 185.926 L 177.963 193.148 176.667 193.333 L 175.370 193.519 175.263 196.574 L 175.155 199.630 182.578 199.630 L 190.000 199.630 190.000 196.503 L 190.000 193.376 188.426 193.262 C 186.855 193.148,186.852 193.145,186.852 191.667 L 186.852 190.185 190.093 190.078 L 193.333 189.971 193.333 186.550 L 193.333 183.130 190.093 183.139 L 186.852 183.148 186.742 181.050 L 186.632 178.951 189.334 178.816 C 192.430 178.661,192.876 178.863,193.034 180.491 C 193.148 181.665,193.151 181.667,195.544 181.779 C 199.821 181.980,199.630 182.220,199.630 176.660 L 199.630 171.852 187.654 171.852 C 181.068 171.852,175.568 171.963,175.432 172.099 M243.951 172.099 C 243.587 172.462,243.661 177.507,244.039 178.104 C 244.245 178.430,244.782 178.553,245.523 178.444 C 247.057 178.219,247.086 178.377,246.957 186.296 L 246.852 192.778 245.370 192.963 L 243.889 193.148 243.782 196.389 L 243.675 199.630 250.912 199.630 L 258.148 199.630 258.148 196.296 L 258.148 192.963 256.852 192.963 L 255.556 192.963 255.556 189.780 L 255.556 186.597 256.759 188.083 C 257.421 188.901,259.630 191.838,261.667 194.610 L 265.370 199.650 269.074 199.547 L 272.778 199.444 272.876 189.198 L 272.975 178.952 274.450 178.703 L 275.926 178.453 275.926 175.144 L 275.926 171.836 268.981 171.936 L 262.037 172.037 261.835 175.000 C 261.578 178.779,261.655 178.993,263.201 178.812 L 264.444 178.667 264.444 181.786 C 264.444 185.308,264.159 185.384,262.242 182.374 C 261.712 181.541,260.495 179.874,259.537 178.670 C 258.580 177.466,257.043 175.440,256.121 174.167 L 254.446 171.852 249.322 171.852 C 246.503 171.852,244.086 171.963,243.951 172.099 M118.765 209.267 C 107.654 213.191,104.177 227.570,112.269 236.126 C 120.170 244.480,134.388 242.094,139.370 231.577 C 145.395 218.857,132.167 204.533,118.765 209.267 M161.296 216.852 C 161.093 216.922,160.104 217.090,159.099 217.226 C 154.961 217.786,153.601 222.634,156.642 225.987 L 158.098 227.593 162.809 227.474 C 169.986 227.294,171.996 225.832,171.314 221.284 C 170.809 217.916,165.303 215.480,161.296 216.852 M329.390 217.011 C 325.121 217.709,323.677 220.918,325.678 225.264 C 327.433 229.076,338.479 228.460,340.561 224.434 C 343.124 219.478,337.430 215.695,329.390 217.011 M166.963 222.025 C 167.510 222.572,165.917 222.952,163.056 222.957 C 160.601 222.962,160.000 222.855,160.000 222.414 C 160.000 221.291,165.899 220.961,166.963 222.025 M336.202 222.005 C 336.720 222.523,335.649 222.786,332.528 222.909 C 329.442 223.029,329.200 222.988,329.321 222.353 C 329.521 221.297,335.207 221.009,336.202 222.005 " stroke="none" fill="#fcfcfc" fill-rule="evenodd"></path><path id="path4" d="M326.039 218.360 L 325.000 219.313 326.204 218.476 C 326.866 218.015,327.407 217.586,327.407 217.523 C 327.407 217.231,326.998 217.481,326.039 218.360 " stroke="none" fill="#889098" fill-rule="evenodd"></path></g></svg>