<svg width="500" height="500" viewBox="0 0 500 500" fill="none" xmlns="http://www.w3.org/2000/svg">
<path d="M413.31 295.93H387.2C386.866 295.93 386.545 296.063 386.309 296.299C386.073 296.535 385.94 296.856 385.94 297.19V305.19C385.94 305.355 385.973 305.518 386.036 305.671C386.1 305.823 386.193 305.961 386.31 306.077C386.427 306.194 386.566 306.286 386.719 306.348C386.871 306.41 387.035 306.441 387.2 306.44H388.9C388.27 307.55 387.31 309.34 387.55 309.34C389.03 308.465 390.453 307.497 391.81 306.44H413.31C413.642 306.44 413.961 306.309 414.197 306.074C414.433 305.84 414.567 305.522 414.57 305.19V297.19C414.567 296.857 414.434 296.538 414.198 296.302C413.962 296.066 413.643 295.933 413.31 295.93Z" fill="url(#paint0_linear_0_1)" stroke="white" stroke-linecap="round" stroke-linejoin="round"/>
<path d="M406.59 311.15H432.7C432.866 311.149 433.03 311.18 433.184 311.243C433.337 311.306 433.477 311.399 433.594 311.516C433.711 311.633 433.804 311.773 433.867 311.926C433.93 312.08 433.961 312.244 433.96 312.41V320.41C433.961 320.576 433.93 320.74 433.867 320.894C433.804 321.047 433.711 321.187 433.594 321.304C433.477 321.421 433.337 321.514 433.184 321.577C433.03 321.64 432.866 321.671 432.7 321.67H431C431.62 322.78 432.59 324.57 432.35 324.57C430.87 323.695 429.447 322.727 428.09 321.67H406.59C406.256 321.67 405.935 321.537 405.699 321.301C405.463 321.065 405.33 320.744 405.33 320.41V312.41C405.33 312.076 405.463 311.755 405.699 311.519C405.935 311.283 406.256 311.15 406.59 311.15Z" fill="url(#paint1_linear_0_1)" stroke="white" stroke-linecap="round" stroke-linejoin="round"/>
<path d="M406.59 279.49H432.7C432.866 279.489 433.03 279.52 433.184 279.583C433.337 279.646 433.477 279.739 433.594 279.856C433.711 279.973 433.804 280.113 433.867 280.266C433.93 280.42 433.961 280.584 433.96 280.75V288.75C433.96 288.915 433.927 289.078 433.864 289.231C433.8 289.383 433.707 289.521 433.59 289.637C433.473 289.754 433.334 289.846 433.181 289.908C433.029 289.97 432.865 290.001 432.7 290H431C431.62 291.11 432.59 292.9 432.35 292.9C430.87 292.025 429.447 291.057 428.09 290H406.59C406.258 290 405.939 289.869 405.703 289.635C405.467 289.4 405.333 289.082 405.33 288.75V280.75C405.33 280.416 405.463 280.095 405.699 279.859C405.935 279.623 406.256 279.49 406.59 279.49Z" fill="url(#paint2_linear_0_1)" stroke="white" stroke-linecap="round" stroke-linejoin="round"/>
<path d="M95.05 232.64C95.2347 231.753 95.2159 230.835 94.9951 229.956C94.7742 229.076 94.357 228.259 93.7748 227.564C93.1925 226.869 92.4604 226.315 91.6335 225.944C90.8065 225.573 89.9061 225.393 89 225.42C85.42 225.42 82.26 231.42 82.26 231.42C82.26 231.42 78.02 227.17 74.26 226.8C70.5 226.43 67.11 230.48 68.86 235.8C71.38 243.42 83 248.44 83 248.44C83 248.44 93.62 241.12 95.05 232.64Z" fill="url(#paint3_linear_0_1)" stroke="#FF0000" stroke-linecap="round" stroke-linejoin="round"/>
<path d="M69.85 247.51C69.753 247.039 69.5514 246.596 69.2601 246.213C68.9688 245.831 68.5953 245.519 68.1672 245.3C67.739 245.081 67.2672 244.961 66.7865 244.949C66.3058 244.937 65.8286 245.033 65.39 245.23C63.65 245.98 63.32 249.52 63.32 249.52C63.32 249.52 60.32 248.32 58.47 248.9C56.62 249.48 55.73 252.16 57.68 254.4C60.49 257.63 67.2 257.71 67.2 257.71C67.2 257.71 70.89 252 69.85 247.51Z" fill="url(#paint4_linear_0_1)" stroke="#FF0000" stroke-linecap="round" stroke-linejoin="round"/>
<path d="M76.26 252.46C66.26 262.77 72.8 277.13 83.34 276.95C95.27 276.76 94.34 257.38 88.69 266.3C83.04 275.22 97.14 290.3 104.5 281.61" stroke="#263238" stroke-linecap="round" stroke-linejoin="round"/>
<path d="M306.41 158.8C306.41 134.61 280.35 115 248.21 115C216.07 115 190 134.61 190 158.8C190 181.6 213.16 200.33 242.74 202.4L248.21 216.67L253.67 202.4C283.21 200.33 306.41 181.6 306.41 158.8Z" fill="url(#paint5_linear_0_1)" stroke="#333333" stroke-linecap="round" stroke-linejoin="round"/>
<path d="M252.27 152.03V145.03L248.45 144.72C248.082 143.26 247.502 141.862 246.73 140.57L249.22 137.66L244.29 132.73L241.41 135.26C240.116 134.492 238.718 133.913 237.26 133.54L236.96 129.72H229.96L229.66 133.54C228.202 133.913 226.804 134.492 225.51 135.26L222.6 132.77L217.67 137.7L220.16 140.61C219.388 141.902 218.808 143.3 218.44 144.76L214.62 145.07V152.07L218.44 152.37C218.808 153.83 219.388 155.228 220.16 156.52L217.67 159.44L222.6 164.36L225.51 161.87C226.8 162.646 228.199 163.226 229.66 163.59L229.96 167.41H236.96L237.26 163.59C238.721 163.226 240.12 162.646 241.41 161.87L244.32 164.36L249.25 159.44L246.76 156.52C247.532 155.228 248.112 153.83 248.48 152.37L252.27 152.03ZM233.41 155.25C232.085 155.248 230.791 154.853 229.69 154.116C228.59 153.379 227.733 152.331 227.227 151.107C226.722 149.883 226.59 148.536 226.85 147.237C227.11 145.938 227.749 144.745 228.686 143.809C229.623 142.873 230.817 142.236 232.117 141.978C233.416 141.72 234.763 141.854 235.986 142.361C237.21 142.868 238.256 143.727 238.992 144.829C239.727 145.93 240.12 147.225 240.12 148.55C240.12 149.431 239.946 150.303 239.609 151.116C239.272 151.93 238.777 152.669 238.154 153.291C237.531 153.913 236.791 154.407 235.977 154.743C235.163 155.079 234.291 155.251 233.41 155.25Z" fill="#0072FF"/>
<path d="M281.69 160.58V155.19L278.74 154.96C278.454 153.832 278.006 152.75 277.41 151.75L279.33 149.5L275.53 145.69L273.27 147.61C272.273 147.014 271.195 146.566 270.07 146.28L269.83 143.33H264.41L264.18 146.28C263.052 146.566 261.97 147.014 260.97 147.61L258.72 145.69L254.91 149.5L256.83 151.75C256.234 152.75 255.786 153.832 255.5 154.96L252.5 155.19V160.58L255.5 160.81C255.783 161.94 256.231 163.021 256.83 164.02L254.91 166.28L258.72 170.08L260.97 168.16C261.97 168.756 263.052 169.204 264.18 169.49L264.41 172.44H269.8L270.04 169.49C271.165 169.204 272.243 168.756 273.24 168.16L275.5 170.08L279.3 166.28L277.41 164.02C278.007 163.02 278.455 161.939 278.74 160.81L281.69 160.58ZM267.14 163.09C266.116 163.09 265.114 162.786 264.262 162.217C263.41 161.648 262.746 160.839 262.354 159.892C261.962 158.946 261.86 157.904 262.06 156.899C262.259 155.895 262.753 154.972 263.477 154.247C264.202 153.523 265.125 153.029 266.129 152.83C267.134 152.63 268.176 152.732 269.122 153.124C270.069 153.516 270.878 154.18 271.447 155.032C272.016 155.884 272.32 156.885 272.32 157.91C272.321 158.591 272.188 159.265 271.928 159.894C271.669 160.523 271.287 161.094 270.806 161.576C270.324 162.057 269.753 162.439 269.124 162.698C268.495 162.958 267.821 163.091 267.14 163.09Z" fill="#0072FF"/>
<path d="M256.31 179.34V175.47L254.19 175.3C253.973 174.488 253.635 173.713 253.19 173L254.57 171.38L251.84 168.64L250.22 170.02C249.504 169.574 248.725 169.237 247.91 169.02L247.74 166.89H243.91L243.74 169.02C242.925 169.237 242.146 169.574 241.43 170.02L239.81 168.64L237.08 171.38L238.46 173C238.015 173.713 237.677 174.488 237.46 175.3L235.34 175.47V179.34L237.46 179.51C237.678 180.325 238.015 181.104 238.46 181.82L237.08 183.44L239.81 186.18L241.41 184.79C242.126 185.235 242.905 185.572 243.72 185.79L243.89 187.91H247.76L247.93 185.79C248.745 185.572 249.524 185.235 250.24 184.79L251.86 186.18L254.59 183.44L253.21 181.82C253.655 181.104 253.992 180.325 254.21 179.51L256.31 179.34ZM245.85 181.09C245.111 181.092 244.389 180.875 243.774 180.466C243.159 180.056 242.679 179.474 242.396 178.792C242.112 178.11 242.038 177.359 242.181 176.635C242.325 175.91 242.68 175.245 243.203 174.723C243.725 174.2 244.39 173.845 245.115 173.701C245.839 173.558 246.59 173.632 247.272 173.916C247.954 174.199 248.536 174.679 248.946 175.294C249.355 175.909 249.572 176.631 249.57 177.37C249.57 178.357 249.178 179.303 248.48 180C247.783 180.698 246.837 181.09 245.85 181.09Z" fill="#0072FF"/>
<path opacity="0.15" d="M399.37 172C399.37 172 399.37 172.08 399.37 172.19C399.376 172.127 399.376 172.063 399.37 172Z" fill="black"/>
<path d="M346.85 372.4C346.85 372.4 344.65 373.29 341.48 369.33C335.48 361.79 326.43 343.68 320.48 335C317.94 331.28 310.92 327.62 303.33 324.55C295.212 321.379 286.918 318.678 278.49 316.46C278.49 316.46 310.43 314.46 318.54 316.93C325.54 319.03 350.42 333.25 357.54 337.34L359.44 338.44C359.44 338.44 360.5 353.5 346.85 372.4Z" fill="#0072FF"/>
<path opacity="0.2" d="M346.85 372.4C346.85 372.4 344.65 373.29 341.48 369.33C335.48 361.79 326.43 343.68 320.48 335C317.94 331.28 310.92 327.62 303.33 324.55C332.33 331.17 342.57 360.25 342.57 360.25C342.57 360.25 344.11 343.74 357.51 337.34L359.41 338.44C359.41 338.44 360.5 353.5 346.85 372.4Z" fill="black"/>
<path d="M278.51 316.46C278.51 316.46 310.45 314.46 318.56 316.93C326.67 319.4 359.43 338.44 359.43 338.44C359.43 338.44 360.5 353.5 346.85 372.44" stroke="#263238" stroke-linecap="round" stroke-linejoin="round"/>
<path d="M400.12 385.38C398.47 386.5 395.31 386.49 391.3 385.75C387.003 384.87 382.775 383.681 378.65 382.19C367.47 378.106 356.515 373.433 345.83 368.19C345.83 368.19 345.88 347.67 357.94 339.72C357.94 339.72 373.58 350.43 383.65 353.08C392.09 355.35 400.12 385.38 400.12 385.38Z" fill="#926A2D"/>
<path d="M400.12 385.38C398.47 386.5 395.31 386.49 391.3 385.75C387.003 384.87 382.775 383.681 378.65 382.19C367.47 378.106 356.515 373.433 345.83 368.19C345.83 368.19 345.88 347.67 357.94 339.72C357.94 339.72 373.58 350.43 383.65 353.08C392.09 355.35 400.12 385.38 400.12 385.38Z" stroke="#263238" stroke-linecap="round" stroke-linejoin="round"/>
<path d="M385.72 379.46C384.696 376.86 384.001 374.142 383.65 371.37Z" fill="white"/>
<path d="M385.72 379.46C384.696 376.86 384.001 374.142 383.65 371.37" stroke="#263238" stroke-linecap="round" stroke-linejoin="round"/>
<path d="M385.73 344.8C390.17 345.5 394.25 355.06 397 358.46C397 358.46 404.83 362.11 406.17 365.56C407.51 369.01 412.84 382.79 402.25 385.62C396.16 387.25 391.61 386.97 388.45 383.74" fill="#926A2D"/>
<path d="M385.73 344.8C390.17 345.5 394.25 355.06 397 358.46C397 358.46 404.83 362.11 406.17 365.56C407.51 369.01 412.84 382.79 402.25 385.62C396.16 387.25 391.61 386.97 388.45 383.74" stroke="#263238" stroke-linecap="round" stroke-linejoin="round"/>
<path d="M386.73 331.21V331.53C386.68 334.47 385.85 340.3 383.98 350.63C382.23 360.29 381.9 361.04 380.73 361.53C379.3 362.12 369.05 364.4 364.68 365.34L363.73 365.54C363.1 365.68 361.44 364.81 361.55 364.18C362.07 360.99 365.63 332.18 367.06 331.18C369.23 329.76 383.26 328.42 384.82 328.85C385.296 329.074 385.715 329.402 386.046 329.811C386.377 330.219 386.611 330.698 386.73 331.21Z" fill="#F8DE22"/>
<mask id="mask0_0_1" style="mask-type:luminance" maskUnits="userSpaceOnUse" x="361" y="328" width="26" height="38">
<path d="M386.73 331.21V331.53C386.68 334.47 385.85 340.3 383.98 350.63C382.23 360.29 381.9 361.04 380.73 361.53C379.3 362.12 369.05 364.4 364.68 365.34L363.73 365.54C363.1 365.68 361.44 364.81 361.55 364.18C362.07 360.99 365.63 332.18 367.06 331.18C369.23 329.76 383.26 328.42 384.82 328.85C385.296 329.074 385.715 329.402 386.046 329.811C386.377 330.219 386.611 330.698 386.73 331.21Z" fill="white"/>
</mask>
<g mask="url(#mask0_0_1)">
<path opacity="0.2" d="M386.73 331.53C386.68 334.47 385.85 340.3 383.98 350.63C382.23 360.29 381.9 361.04 380.73 361.53C379.3 362.12 369.05 364.4 364.68 365.34C365.21 361.17 366.81 349.52 370.11 333.56L386.73 331.53Z" fill="black"/>
</g>
<path d="M386.73 332.21V332.53C386.68 335.47 385.85 341.3 383.98 351.63C382.23 361.29 381.9 362.04 380.73 362.53C379.3 363.12 369.05 365.4 364.68 366.34L363.73 366.54C363.1 366.68 361.44 365.81 361.55 365.18C362.07 361.99 365.63 333.18 367.06 332.18C369.23 330.76 383.26 329.42 384.82 329.85C385.296 330.074 385.715 330.402 386.046 330.811C386.377 331.219 386.611 331.698 386.73 332.21Z" stroke="#263238" stroke-linecap="round" stroke-linejoin="round"/>
<path d="M364.48 363.29C364.48 363.29 369.14 336.13 369.56 334.46C369.98 332.79 370.4 333.46 384.4 331.63" stroke="#263238" stroke-linecap="round" stroke-linejoin="round"/>
<path d="M383.65 371.37C383.65 371.37 376.4 373.96 376.9 369.54C376.419 369.192 376.021 368.744 375.732 368.225C375.444 367.707 375.272 367.132 375.23 366.54C375.327 365.192 375.727 363.883 376.4 362.71C376.4 362.71 373.65 367.46 371.31 364.71C370.7 363.99 373.19 358.83 373.19 358.83C372.9 359.021 372.569 359.142 372.224 359.183C371.879 359.225 371.529 359.186 371.202 359.07C370.874 358.954 370.578 358.763 370.337 358.513C370.095 358.264 369.915 357.961 369.81 357.63C369.48 356.84 373.3 349.74 374.14 349.21C376.94 347.45 384.23 343.69 386.73 345.12C389.23 346.55 390.06 351.04 391.56 352.71C393.06 354.38 392.23 360.04 391.56 364.04" fill="#926A2D"/>
<path d="M383.65 371.37C383.65 371.37 376.4 373.96 376.9 369.54C376.419 369.192 376.021 368.744 375.732 368.225C375.444 367.707 375.272 367.132 375.23 366.54C375.327 365.192 375.727 363.883 376.4 362.71C376.4 362.71 373.65 367.46 371.31 364.71C370.7 363.99 373.19 358.83 373.19 358.83C372.9 359.021 372.569 359.142 372.224 359.183C371.879 359.225 371.529 359.186 371.202 359.07C370.874 358.954 370.578 358.763 370.337 358.513C370.095 358.264 369.915 357.961 369.81 357.63C369.48 356.84 373.3 349.74 374.14 349.21C376.94 347.45 384.23 343.69 386.73 345.12C389.23 346.55 390.06 351.04 391.56 352.71C393.06 354.38 392.23 360.04 391.56 364.04" stroke="#263238" stroke-linecap="round" stroke-linejoin="round"/>
<path d="M373.19 358.83C373.19 358.83 375.81 354.29 376.56 353.71C377.31 353.13 383.65 351.29 383.65 351.29" fill="#926A2D"/>
<path d="M373.19 358.83C373.19 358.83 375.81 354.29 376.56 353.71C377.31 353.13 383.65 351.29 383.65 351.29" stroke="#263238" stroke-linecap="round" stroke-linejoin="round"/>
<path d="M376.4 362.71C377.98 360.96 378.9 358.94 379.56 358.83C380.22 358.72 385.31 357.96 385.73 357.83" fill="#926A2D"/>
<path d="M376.4 362.71C377.98 360.96 378.9 358.94 379.56 358.83C380.22 358.72 385.31 357.96 385.73 357.83" stroke="#263238" stroke-linecap="round" stroke-linejoin="round"/>
<path d="M376.63 369.33C378.4 367.33 381.15 365.21 381.73 365.21C382.31 365.21 385.56 364.79 385.73 364.71" fill="#926A2D"/>
<path d="M376.63 369.33C378.4 367.33 381.15 365.21 381.73 365.21C382.31 365.21 385.56 364.79 385.73 364.71" stroke="#263238" stroke-linecap="round" stroke-linejoin="round"/>
<path d="M384.82 370.38C384.294 370.79 383.687 371.084 383.038 371.241C382.39 371.398 381.715 371.414 381.06 371.29" fill="white"/>
<path d="M384.82 370.38C384.294 370.79 383.687 371.084 383.038 371.241C382.39 371.398 381.715 371.414 381.06 371.29" stroke="#263238" stroke-linecap="round" stroke-linejoin="round"/>
<path d="M383.65 371.37C383.65 371.37 390.25 376.88 393.25 370.37Z" fill="#926A2D"/>
<path d="M383.65 371.37C383.65 371.37 390.25 376.88 393.25 370.37" stroke="#263238" stroke-linecap="round" stroke-linejoin="round"/>
<path d="M217.15 317.46C217.15 317.46 197.52 320.59 182.75 328.58C179.809 330.13 177.04 331.987 174.49 334.12C167.62 340.01 161.62 352.21 156.49 361.88C152.11 370.12 148.8 373.4 148.8 373.4C135.16 354.5 136.22 339.4 136.22 339.4L136.35 339.33C138.57 338.03 169.19 320.26 177.09 317.89C185.21 315.49 217.15 317.46 217.15 317.46Z" fill="#0072FF"/>
<path opacity="0.2" d="M182.75 328.58C179.809 330.13 177.04 331.987 174.49 334.12C167.62 340.01 161.62 352.21 156.49 361.88C152.11 370.12 148.8 373.4 148.8 373.4C135.16 354.5 136.22 339.4 136.22 339.4L136.35 339.33C137.35 338.86 144.47 336.51 153.86 354.53C153.87 354.57 160.36 333.38 182.75 328.58Z" fill="black"/>
<path d="M116.81 295.84C116.81 295.84 108.23 293.62 110.81 301.66C113.39 309.7 122.58 309.44 122.58 309.44" fill="white"/>
<path d="M116.81 295.84C116.81 295.84 108.23 293.62 110.81 301.66C113.39 309.7 122.58 309.44 122.58 309.44" stroke="#263238" stroke-linecap="round" stroke-linejoin="round"/>
<path d="M217.15 317.46C217.15 317.46 185.21 315.46 177.1 317.93C168.99 320.4 136.23 339.44 136.23 339.44C136.23 339.44 135.17 354.5 148.81 373.44" stroke="#263238" stroke-linecap="round" stroke-linejoin="round"/>
<path d="M149.84 369.23C149.84 369.23 102.33 386.44 94.57 377.09C96.7817 371.028 99.5607 365.189 102.87 359.65C105.44 355.59 108.39 352.2 111.35 351.42C115.729 350.156 120.027 348.626 124.22 346.84C131.42 343.84 137.73 340.76 137.73 340.76C149.78 348.71 149.84 369.23 149.84 369.23Z" fill="#926A2D"/>
<path d="M149.84 369.23C149.84 369.23 102.33 386.44 94.57 377.09C96.7817 371.028 99.5607 365.189 102.87 359.65C105.44 355.59 108.39 352.2 111.35 351.42C115.729 350.156 120.027 348.626 124.22 346.84C131.42 343.84 137.73 340.76 137.73 340.76C149.78 348.71 149.84 369.23 149.84 369.23Z" stroke="#263238" stroke-linecap="round" stroke-linejoin="round"/>
<path d="M98.22 379.15C87.04 379.65 86.33 353.33 91.95 314.24C91.95 314.24 100.57 297.13 104.55 296.9C105.62 296.84 107.1 296.81 108.68 296.81C112.97 296.81 118.05 296.9 118.05 296.9C118.05 296.9 120.35 306.81 120.37 310.18C120.37 315.23 118.18 315.8 118.18 315.8C118.3 320.56 114.45 321.04 110.32 320.39C110.248 320.601 110.15 320.802 110.03 320.99C109.48 321.91 108.03 323.62 104.39 324.08C104.33 339.33 119.14 362.42 111.3 367.46" fill="#926A2D"/>
<path opacity="0.2" d="M120.37 310.18C120.37 315.23 118.18 315.8 118.18 315.8C118.3 320.56 114.45 321.04 110.32 320.39C110.248 320.601 110.15 320.802 110.03 320.99L111.3 317.16C111.97 317.457 112.721 317.517 113.43 317.33C115.93 316.1 114.62 311.79 114.62 311.79C115.109 311.602 115.537 311.283 115.858 310.869C116.179 310.455 116.38 309.961 116.44 309.44C116.83 307.44 112.44 306.14 112.44 306.14C113.81 303.85 110.76 301.66 110.76 301.66C111.85 300.02 110.43 298.22 108.65 296.81C112.94 296.81 118.02 296.9 118.02 296.9C118.02 296.9 120.35 306.81 120.37 310.18Z" fill="#0072FF"/>
<path d="M98.22 379.15C87.04 379.65 86.33 353.33 91.95 314.24C91.95 314.24 100.57 297.13 104.55 296.9C105.62 296.84 107.1 296.81 108.68 296.81C112.97 296.81 118.05 296.9 118.05 296.9C118.05 296.9 120.35 306.81 120.37 310.18C120.37 315.23 118.18 315.8 118.18 315.8C118.3 320.56 114.45 321.04 110.32 320.39C110.248 320.601 110.15 320.802 110.03 320.99C109.48 321.91 108.03 323.62 104.39 324.08C104.33 339.33 119.14 362.42 111.3 367.46" stroke="#263238" stroke-linecap="round" stroke-linejoin="round"/>
<path d="M118.1 308.72C116.72 306.18 115.39 307.65 108.75 306.04C111.278 306.275 113.826 306.154 116.32 305.68" stroke="#263238" stroke-linecap="round" stroke-linejoin="round"/>
<path d="M108 301.11C108.9 301.51 112.81 301.22 114.64 301.11" stroke="#263238" stroke-linecap="round" stroke-linejoin="round"/>
<path d="M110.32 311.83C110.32 311.64 115.91 312.11 116.82 312.77C117.73 313.43 118.3 315.91 118.3 315.91" stroke="#263238" stroke-linecap="round" stroke-linejoin="round"/>
<path d="M114.62 317.16C114.2 317.54 111.3 317.16 111.3 317.16C111.174 318.29 110.834 319.386 110.3 320.39" stroke="#263238" stroke-linecap="round" stroke-linejoin="round"/>
<path d="M145.07 292.66C145.07 300.86 141.72 308 136.78 311.75H120.93C115.93 308 112.63 300.86 112.63 292.66C112.63 292.32 112.63 291.99 112.63 291.66H145C145.05 292 145.07 292.32 145.07 292.66Z" fill="#102C57"/>
<path d="M145.07 292.66C145.07 300.86 141.72 308 136.78 311.75H120.93C115.93 308 112.63 300.86 112.63 292.66C112.63 292.32 112.63 291.99 112.63 291.66H145C145.05 292 145.07 292.32 145.07 292.66Z" stroke="#263238" stroke-linecap="round" stroke-linejoin="round"/>
<path d="M138.04 310.81H119.67L118.81 313.27H138.9L138.04 310.81Z" fill="#757575" stroke="#263238" stroke-linecap="round" stroke-linejoin="round"/>
<path opacity="0.2" d="M138.9 313.27L138.04 310.81H119.67L118.81 313.27" fill="black"/>
<path d="M123.65 271.71C120.86 276.5 128.34 281.01 124.65 287.58" stroke="#263238" stroke-linecap="round" stroke-linejoin="round"/>
<path d="M128.44 271.71C125.65 276.51 133.13 281.01 129.44 287.58" stroke="#263238" stroke-linecap="round" stroke-linejoin="round"/>
<path d="M133.57 271.71C130.78 276.51 138.26 281.01 134.57 287.58" stroke="#263238" stroke-linecap="round" stroke-linejoin="round"/>
<path d="M321.3 342.12C314.19 329.99 284.78 319.44 252.11 318.12H251.85L248.64 318.03H245.38L242.17 318.12H241.89C209.23 319.42 179.83 329.98 172.72 342.12C165.13 355.07 153.89 375.91 153.89 375.91C160.19 386.11 184.39 387.48 184.39 387.48L185.68 414.92H308.34L309.63 387.48C309.63 387.48 333.83 386.11 340.13 375.91C340.13 375.91 328.89 355.07 321.3 342.12Z" fill="#182029" stroke="#263238" stroke-linecap="round" stroke-linejoin="round"/>
<path d="M210.94 405C210.94 405 154.39 414.49 150.32 406.74C149.888 405.875 149.61 404.941 149.5 403.98C148.17 394.63 156.28 376.19 156.28 376.19C162.57 375.59 169.17 377.19 174.45 379.19C178.142 380.483 181.681 382.18 185 384.25L184.58 385.17L184.44 385.46L197.65 385.88L209.47 386.26H209.74L210.94 405Z" fill="#926A2D"/>
<path d="M210.94 405C210.94 405 154.39 414.49 150.32 406.74C149.888 405.875 149.61 404.941 149.5 403.98C148.17 394.63 156.28 376.19 156.28 376.19C162.57 375.59 169.17 377.19 174.45 379.19C178.142 380.483 181.681 382.18 185 384.25L184.58 385.17L184.44 385.46L197.65 385.88L209.47 386.26H209.74L210.94 405Z" stroke="#263238" stroke-linecap="round" stroke-linejoin="round"/>
<path d="M184.44 385.46C184.44 385.46 171.08 385.1 165.39 387.71" stroke="#263238" stroke-linecap="round" stroke-linejoin="round"/>
<path d="M304.65 381.67C304.65 381.67 299.41 357.45 309.56 345.73" stroke="#263238" stroke-linecap="round" stroke-linejoin="round"/>
<path d="M313.54 357.79C313.54 357.79 306.67 362.79 305.42 370.88" stroke="#263238" stroke-linecap="round" stroke-linejoin="round"/>
<path d="M184.44 342.91C190.107 355.482 191.481 369.57 188.35 383" stroke="#263238" stroke-linecap="round" stroke-linejoin="round"/>
<path d="M177.71 351.29C177.71 351.29 185.04 355.75 188.35 362.71" stroke="#263238" stroke-linecap="round" stroke-linejoin="round"/>
<path d="M269.36 321C269.36 321 258.52 348.67 226.26 333.67" stroke="#263238" stroke-linecap="round" stroke-linejoin="round"/>
<path d="M319.62 339.76C314.9 342.888 311.337 347.48 309.48 352.83" stroke="#263238" stroke-linecap="round" stroke-linejoin="round"/>
<path d="M174.38 339.76C178.215 342.094 181.236 345.555 183.03 349.67" stroke="#263238" stroke-linecap="round" stroke-linejoin="round"/>
<path d="M222 320.1C222 320.1 225.59 334.83 246.21 335.17" stroke="#263238" stroke-linecap="round" stroke-linejoin="round"/>
<path d="M289.17 335.17C289.17 335.17 250.83 372.61 223.67 373.97" stroke="#263238" stroke-linecap="round" stroke-linejoin="round"/>
<path d="M202.17 341.5C202.17 341.5 207.48 353.42 217.17 357.79" stroke="#263238" stroke-linecap="round" stroke-linejoin="round"/>
<path d="M283.35 405C283.35 405 339.9 414.49 343.97 406.74C344.402 405.875 344.68 404.941 344.79 403.98C346.12 394.63 338.01 376.19 338.01 376.19C331.72 375.59 325.12 377.19 319.84 379.19C316.151 380.487 312.616 382.187 309.3 384.26L309.72 385.18L309.86 385.47L296.65 385.89L284.83 386.27H284.56L283.35 405Z" fill="#926A2D"/>
<path d="M283.35 405C283.35 405 339.9 414.49 343.97 406.74C344.402 405.875 344.68 404.941 344.79 403.98C346.12 394.63 338.01 376.19 338.01 376.19C331.72 375.59 325.12 377.19 319.84 379.19C316.151 380.487 312.616 382.187 309.3 384.26L309.72 385.18L309.86 385.47L296.65 385.89L284.83 386.27H284.56L283.35 405Z" stroke="#263238" stroke-linecap="round" stroke-linejoin="round"/>
<path d="M309.85 385.46C309.85 385.46 323.21 385.1 328.85 387.71" stroke="#263238" stroke-linecap="round" stroke-linejoin="round"/>
<path d="M266.16 321.06C264.016 324.451 260.997 327.2 257.42 329.016C253.843 330.833 249.843 331.649 245.84 331.38C234.21 330.8 226.26 321.98 226.26 321.98C230.44 318.59 231.06 310.39 230.77 304.98C230.77 304.85 230.77 304.74 230.77 304.62C230.77 304.27 230.72 303.92 230.7 303.62C230.516 301.326 230.158 299.05 229.63 296.81L264.44 298.55C263.162 301.921 262.394 305.463 262.16 309.06C262.071 310.635 262.162 312.215 262.43 313.77V313.92C263.4 319.09 266.16 321.06 266.16 321.06Z" fill="#926A2D" stroke="#263238" stroke-miterlimit="10"/>
<path d="M188.35 400.33V404.05C188.35 404.612 188.573 405.151 188.971 405.549C189.369 405.947 189.908 406.17 190.47 406.17H302.53C303.092 406.17 303.631 405.947 304.029 405.549C304.427 405.151 304.65 404.612 304.65 404.05V400.33H188.35Z" fill="#757575" stroke="#263238" stroke-linecap="round" stroke-linejoin="round"/>
<path d="M318.41 345.6L304 399.52C303.83 400.072 303.538 400.579 303.148 401.005C302.757 401.43 302.276 401.764 301.74 401.98C301.372 402.13 300.978 402.208 300.58 402.21H192.45C192.052 402.208 191.658 402.13 191.29 401.98C190.754 401.764 190.273 401.43 189.882 401.005C189.492 400.579 189.2 400.072 189.03 399.52L174.59 345.6C174.475 345.288 174.439 344.952 174.486 344.622C174.533 344.293 174.662 343.98 174.861 343.713C175.059 343.446 175.322 343.232 175.624 343.092C175.926 342.952 176.258 342.889 176.59 342.91H316.44C316.77 342.895 317.098 342.961 317.396 343.103C317.694 343.246 317.952 343.46 318.147 343.726C318.342 343.993 318.468 344.303 318.514 344.63C318.56 344.957 318.524 345.29 318.41 345.6Z" fill="#1E1E1E" stroke="#263238" stroke-miterlimit="10"/>
<path d="M253.82 378.56C250.62 378.56 248.03 376.64 248.03 374.28C248.033 373.743 248.167 373.214 248.42 372.74C247.787 372.623 247.144 372.563 246.5 372.56C242.02 372.56 238.38 375.25 238.38 378.56C238.38 381.87 242.02 384.56 246.5 384.56C250.98 384.56 254.62 381.88 254.62 378.56C254.36 378.54 254.09 378.56 253.82 378.56Z" fill="#BFBFBF" stroke="#263238" stroke-miterlimit="10"/>
<path d="M264.42 298.54C263.142 301.911 262.374 305.453 262.14 309.05C258.36 312.84 253.73 315.65 248.62 314.85C241.23 313.69 235.08 308.23 230.68 303.61C230.496 301.316 230.138 299.04 229.61 296.8L264.42 298.54Z" fill="#263238"/>
<path d="M271.51 273.2C271.51 273.2 274.32 270.15 275.7 271.15C276.631 271.913 277.335 272.917 277.733 274.053C278.132 275.189 278.21 276.413 277.96 277.59C277.21 280.18 273.96 284.69 273.69 287.32C273.42 289.95 271.75 292.94 269.9 291.2C268.05 289.46 271.51 273.2 271.51 273.2Z" fill="#926A2D" stroke="#263238" stroke-miterlimit="10"/>
<path d="M221.49 273.2C221.49 273.2 218.68 270.15 217.3 271.15C216.369 271.913 215.665 272.917 215.267 274.053C214.868 275.189 214.79 276.413 215.04 277.59C215.8 280.18 219.04 284.69 219.31 287.32C219.58 289.95 221.25 292.94 223.1 291.2C224.95 289.46 221.49 273.2 221.49 273.2Z" fill="#926A2D" stroke="#263238" stroke-miterlimit="10"/>
<path d="M246.906 240C282.206 240 273.816 287 267.316 302.11C265.036 307.42 253.216 314.37 247.496 314.37C242.176 314.37 230.016 306.06 227.856 301.08C221.286 285.91 213.256 240 246.906 240Z" fill="#926A2D" stroke="#263238" stroke-miterlimit="10"/>
<path d="M251.89 275.45C251.89 275.45 260.89 273.79 263.89 277.34" stroke="#263238" stroke-linecap="round" stroke-linejoin="round"/>
<path d="M258.7 282.23C258.7 283.32 258.15 284.23 257.47 284.23C256.79 284.23 256.24 283.35 256.24 282.23C256.24 281.11 256.79 280.23 257.47 280.23C258.15 280.23 258.7 281.15 258.7 282.23Z" fill="#263238"/>
<path d="M241.11 275.45C241.11 275.45 232.81 274.71 229.11 277.34" stroke="#263238" stroke-linecap="round" stroke-linejoin="round"/>
<path d="M234.3 282.23C234.3 283.32 234.85 284.23 235.53 284.23C236.21 284.23 236.76 283.35 236.76 282.23C236.76 281.11 236.21 280.23 235.53 280.23C234.85 280.23 234.3 281.15 234.3 282.23Z" fill="#263238"/>
<path d="M248.6 280.27C248.6 280.27 249.13 288.27 250.69 291.35C252.25 294.43 246.8 294.92 244.47 293.11" stroke="#263238" stroke-linecap="round" stroke-linejoin="round"/>
<path d="M239.71 299.55C239.71 300.77 243.71 302.31 247.71 302.31C251.71 302.31 254.65 300.65 254.06 300.04" stroke="#263238" stroke-linecap="round" stroke-linejoin="round"/>
<defs>
<linearGradient id="paint0_linear_0_1" x1="400.255" y1="295.93" x2="400.255" y2="309.34" gradientUnits="userSpaceOnUse">
<stop stop-color="#DBFF00"/>
<stop offset="1" stop-color="#D9D9D9" stop-opacity="0"/>
</linearGradient>
<linearGradient id="paint1_linear_0_1" x1="419.645" y1="311.15" x2="419.645" y2="324.57" gradientUnits="userSpaceOnUse">
<stop stop-color="#FF6B00"/>
<stop offset="1" stop-color="#FF6B00" stop-opacity="0"/>
</linearGradient>
<linearGradient id="paint2_linear_0_1" x1="419.645" y1="279.49" x2="419.645" y2="292.9" gradientUnits="userSpaceOnUse">
<stop stop-color="#05FF00"/>
<stop offset="1" stop-color="#D9D9D9" stop-opacity="0"/>
</linearGradient>
<linearGradient id="paint3_linear_0_1" x1="81.7811" y1="225.417" x2="81.7811" y2="248.44" gradientUnits="userSpaceOnUse">
<stop stop-color="#FF0000"/>
<stop offset="1" stop-color="#D9D9D9" stop-opacity="0"/>
</linearGradient>
<linearGradient id="paint4_linear_0_1" x1="63.3087" y1="244.948" x2="63.3087" y2="257.71" gradientUnits="userSpaceOnUse">
<stop stop-color="#FF0000"/>
<stop offset="1" stop-color="#D9D9D9" stop-opacity="0"/>
</linearGradient>
<linearGradient id="paint5_linear_0_1" x1="248.205" y1="115" x2="248.205" y2="216.67" gradientUnits="userSpaceOnUse">
<stop stop-color="#BFBFBF"/>
<stop offset="0.0001" stop-color="#BFBFBF" stop-opacity="0"/>
</linearGradient>
</defs>
</svg>
