<svg width="800" height="800" viewBox="0 0 800 800" fill="none" xmlns="http://www.w3.org/2000/svg">
<path d="M415.107 170.493C413.911 181.711 420.888 191.937 430.678 193.295C440.442 194.654 449.335 186.641 450.532 175.423C451.709 164.197 444.738 153.985 434.974 152.634C425.179 151.276 416.291 159.267 415.107 170.493Z" fill="black"/>
<path d="M412.245 245.39C412.308 230.27 402.256 223.263 395.491 222.214L394.182 222.106C390.45 222.12 386.04 222.135 381.581 222.149C385.464 216.465 393.149 205.829 393.788 204.664C395.272 207.237 397.095 209.738 399.337 212.023C404.742 217.564 411.5 220.891 419.548 222.02C423.926 222.631 438.174 221.093 441.619 220.338C445.509 219.382 447.6 217.571 448.991 215.2C450.826 211.147 450.651 206.562 450.651 206.562C450.362 198.427 443.767 195.674 438.262 197.14C430.045 199.267 419.009 200.561 413.066 194.553C410.554 192.031 409.189 188.43 408.462 185.009C410.717 179.124 410.416 172.066 407.084 166.289C401.88 157.27 391.834 155.854 383.416 160.755C375.067 165.627 353.936 193.77 348.568 214.503C348.556 214.496 348.537 214.496 348.524 214.496C348.487 214.718 348.443 214.941 348.405 215.171C347.842 217.471 347.478 219.691 347.359 221.754C346.814 225.865 346.52 229.731 346.52 233.166L346.702 233.209C346.714 239.045 350.698 243.917 355.846 244.24C358.802 244.427 384.687 244.355 392.836 244.341C392.861 244.499 392.911 244.801 392.911 245.318C392.873 253.856 392.917 284.93 392.936 299.339C392.936 303.436 395.836 306.691 399.412 306.691H405.819C407.523 306.691 409.176 305.958 410.391 304.571C411.6 303.177 412.289 301.316 412.283 299.332C412.258 284.916 412.208 253.899 412.245 245.39Z" fill="black"/>
<path d="M341.372 151.384C341.372 145.247 337.031 140.281 331.683 140.281C326.334 140.281 322 145.247 322 151.384V262.393C322 268.114 325.814 272.835 330.674 273.425C330.681 273.446 330.725 273.504 330.725 273.504H334.207V299.397C334.207 303.479 337.013 306.792 340.576 306.792C344.146 306.792 346.946 303.479 346.946 299.397V273.504H367.376V299.397C367.376 303.479 370.182 306.792 373.746 306.792C377.303 306.792 380.109 303.479 380.109 299.397V273.504H386.479V251.283H341.384V151.384H341.372Z" fill="#1E1E1E"/>
<path d="M515.624 225.225C514.152 216.493 509.28 209.142 502.659 205.096V198.017H511.935V149.264L476.643 134.812V127.704H463.922V201.977H476.643V198.017H483.294V203.141C474.544 206.324 467.949 214.754 466.177 225.103H425.247C421.684 225.103 418.796 228.631 418.796 232.728C418.796 236.81 421.684 240.353 425.247 240.353H438.193V307H509.298V240.353H515.549C519.1 240.353 522 236.889 522 232.792C522 228.703 519.163 225.275 515.624 225.225Z" fill="black" fill-opacity="0.53"/>
<path d="M382.214 135.617H367.627V135.358L381.951 111.477V107H359.673V113.396H372.932V113.691L358.345 137.873V142.314H382.214V135.617Z" fill="white"/>
<path d="M405.03 135.911H395.748V135.918L405.03 120.69V117.658H390.706V121.912H399.193V122.106L389.911 137.535V140.18H405.03V135.911Z" fill="black"/>
<path d="M421.746 141.704H415.377V141.574L421.746 131.046V128.919H411.932V131.966H417.763V132.016L411.137 142.681V144.434H421.746V141.704Z" fill="white"/>
</svg>
