<svg width="334" height="48" viewBox="0 0 334 48" fill="none" xmlns="http://www.w3.org/2000/svg">
<path opacity="0.5" d="M181 0H219V40H181V0Z" fill="#00B7FE"/>
<path opacity="0.5" d="M0 0H38V40H0V0Z" fill="#F8DE22"/>
<path d="M13.9812 14.8672C13.6844 14.8672 13.3406 14.9219 12.95 15.0312C12.5594 15.125 12.1531 15.2422 11.7312 15.3828C11.3094 15.5078 10.8875 15.625 10.4656 15.7344C10.0594 15.8281 9.69218 15.875 9.36406 15.875C9.02031 15.875 8.74687 15.8203 8.54375 15.7109C8.35625 15.5859 8.21562 15.4297 8.12187 15.2422C8.02812 15.0547 7.97343 14.8516 7.95781 14.6328C7.94218 14.4141 7.93437 14.2031 7.93437 14C7.93437 13.4062 8.10625 12.9219 8.45 12.5469C8.80937 12.1719 9.31718 11.8594 9.97343 11.6094C10.6297 11.3438 11.4187 11.125 12.3406 10.9531C13.2781 10.7656 14.3328 10.5625 15.5047 10.3438C17.3484 10 19.0281 9.73438 20.5437 9.54688C22.075 9.35938 23.5281 9.22656 24.9031 9.14844C26.2937 9.05469 27.6531 9 28.9812 8.98438C30.3094 8.96875 31.7078 8.96094 33.1766 8.96094C33.6141 8.96094 33.9578 9.01562 34.2078 9.125C34.4578 9.23438 34.6375 9.375 34.7469 9.54688C34.8719 9.71875 34.9422 9.91406 34.9578 10.1328C34.9891 10.3516 35.0047 10.5703 35.0047 10.7891C35.0047 11.0391 34.9656 11.3125 34.8875 11.6094C34.825 11.8906 34.7078 12.1562 34.5359 12.4062C34.3797 12.6406 34.1609 12.8359 33.8797 12.9922C33.6141 13.1484 33.2859 13.2266 32.8953 13.2266H31.0203C30.2703 13.2266 29.4734 13.2344 28.6297 13.25C27.7859 13.25 26.95 13.2656 26.1219 13.2969C25.2937 13.3125 24.4969 13.3438 23.7312 13.3906C22.9812 13.4375 22.3094 13.5078 21.7156 13.6016C21.1375 13.6797 20.6766 13.7812 20.3328 13.9062C19.9891 14.0312 19.8172 14.1875 19.8172 14.375C19.8172 14.5625 19.8875 14.875 20.0281 15.3125C20.1687 15.75 20.3406 16.2266 20.5437 16.7422C20.7469 17.2422 20.95 17.7422 21.1531 18.2422C21.3719 18.7266 21.5516 19.1328 21.6922 19.4609C21.8172 19.7266 21.9578 19.9062 22.1141 20C22.2703 20.0938 22.4812 20.1406 22.7469 20.1406C23.3875 20.1406 24.0437 20.1016 24.7156 20.0234C25.3875 19.9453 26.0594 19.8594 26.7312 19.7656C27.4187 19.6562 28.0984 19.5625 28.7703 19.4844C29.4578 19.4062 30.1375 19.3672 30.8094 19.3672C31.1844 19.3672 31.4891 19.4375 31.7234 19.5781C31.9734 19.7031 32.1687 19.8672 32.3094 20.0703C32.45 20.2578 32.5437 20.4609 32.5906 20.6797C32.6531 20.8984 32.6844 21.0859 32.6844 21.2422C32.6844 21.9453 32.4656 22.4766 32.0281 22.8359C31.5906 23.1797 30.9969 23.4375 30.2469 23.6094C29.4969 23.7812 28.6219 23.8984 27.6219 23.9609C26.6375 24.0234 25.5906 24.1094 24.4812 24.2188L23.9187 24.2656C23.7156 24.2969 23.5594 24.3672 23.45 24.4766C23.3406 24.5859 23.2859 24.7266 23.2859 24.8984C23.2859 24.9453 23.2937 24.9844 23.3094 25.0156C23.325 25.0469 23.3328 25.0859 23.3328 25.1328C23.4734 25.6484 23.6375 26.2266 23.825 26.8672C24.0125 27.4922 24.1844 28.1172 24.3406 28.7422C24.5125 29.3672 24.6531 29.9609 24.7625 30.5234C24.8719 31.0859 24.9266 31.5469 24.9266 31.9062C24.9266 32.625 24.6531 33.1719 24.1062 33.5469C23.575 33.9219 22.8172 34.1094 21.8328 34.1094C21.4734 34.1094 21.1219 34.0234 20.7781 33.8516C20.45 33.6953 20.2469 33.3984 20.1687 32.9609C19.9187 31.6797 19.6375 30.4297 19.325 29.2109C19.0125 27.9766 18.6844 26.75 18.3406 25.5312C18.2 25.1094 17.9266 24.8984 17.5203 24.8984C17.0516 24.8984 16.5203 24.8828 15.9266 24.8516C15.3484 24.8203 14.7547 24.7578 14.1453 24.6641C13.5359 24.5703 12.9422 24.4531 12.3641 24.3125C11.8016 24.1562 11.2937 23.9531 10.8406 23.7031C10.4031 23.4531 10.0437 23.1562 9.7625 22.8125C9.49687 22.4688 9.36406 22.0625 9.36406 21.5938C9.36406 21.2969 9.43437 21.0078 9.575 20.7266C9.71562 20.4297 9.89531 20.1719 10.1141 19.9531C10.3328 19.7188 10.5672 19.5312 10.8172 19.3906C11.0828 19.25 11.3328 19.1797 11.5672 19.1797C11.8484 19.1797 12.1531 19.25 12.4812 19.3906C12.8094 19.5312 13.1609 19.6875 13.5359 19.8594C13.9109 20.0312 14.3094 20.1875 14.7312 20.3281C15.1687 20.4688 15.6375 20.5391 16.1375 20.5391C16.3875 20.5391 16.5125 20.4062 16.5125 20.1406C16.5125 19.8906 16.4656 19.5625 16.3719 19.1562C16.2937 18.75 16.1844 18.3281 16.0437 17.8906C15.9031 17.4375 15.7391 17 15.5516 16.5781C15.3797 16.1406 15.1922 15.7734 14.9891 15.4766C14.8641 15.2891 14.7312 15.1406 14.5906 15.0312C14.4656 14.9219 14.2625 14.8672 13.9812 14.8672ZM54.4297 11.5156C55.2891 11.5156 56.1172 11.6484 56.9141 11.9141C57.7109 12.1797 58.4141 12.5469 59.0234 13.0156C59.6328 13.4844 60.1172 14.0469 60.4766 14.7031C60.8516 15.3594 61.0391 16.0859 61.0391 16.8828C61.0391 17.2109 60.9609 17.5312 60.8047 17.8438C60.6641 18.1406 60.4688 18.4062 60.2188 18.6406C59.9688 18.8594 59.6797 19.0391 59.3516 19.1797C59.0391 19.3047 58.7109 19.3672 58.3672 19.3672C58.3359 19.3672 58.3047 19.375 58.2734 19.3906C58.2578 19.3906 58.2344 19.3906 58.2031 19.3906C58.1719 19.4062 58.1406 19.4141 58.1094 19.4141L58.2031 21.2891C58.2656 23.5234 58.5781 25.1562 59.1406 26.1875C59.7188 27.2188 60.4688 27.7344 61.3906 27.7344C61.7188 27.7344 62.0078 27.7031 62.2578 27.6406C62.5234 27.5781 62.7656 27.5078 62.9844 27.4297C63.2188 27.3359 63.4375 27.2578 63.6406 27.1953C63.8438 27.1328 64.0469 27.1016 64.25 27.1016C64.6094 27.1016 64.9219 27.2578 65.1875 27.5703C65.4688 27.8828 65.6094 28.2578 65.6094 28.6953C65.6094 29.1328 65.4375 29.5703 65.0938 30.0078C64.7656 30.4453 64.3281 30.8438 63.7812 31.2031C63.2344 31.5469 62.6172 31.8281 61.9297 32.0469C61.2422 32.2656 60.5469 32.375 59.8438 32.375C58.625 32.375 57.5547 31.875 56.6328 30.875C55.7109 29.8594 55.0547 28.375 54.6641 26.4219C54.5703 26.1094 54.4453 25.9531 54.2891 25.9531C54.1016 25.9531 53.9375 26.0469 53.7969 26.2344C52.25 28.1875 50.6016 29.6562 48.8516 30.6406C47.1016 31.6094 45.375 32.0938 43.6719 32.0938C42.875 32.0938 42.1562 31.9766 41.5156 31.7422C40.875 31.5078 40.3281 31.1797 39.875 30.7578C39.4375 30.3203 39.0938 29.7969 38.8438 29.1875C38.6094 28.5625 38.4922 27.8672 38.4922 27.1016C38.4922 26.0234 38.7266 24.8906 39.1953 23.7031C39.6797 22.5156 40.3281 21.3438 41.1406 20.1875C41.9531 19.0312 42.8906 17.9297 43.9531 16.8828C45.0312 15.8359 46.1562 14.9141 47.3281 14.1172C48.5156 13.3203 49.7188 12.6875 50.9375 12.2188C52.1562 11.75 53.3203 11.5156 54.4297 11.5156ZM53.6562 19.625C53.9375 19.0938 54.1953 18.7109 54.4297 18.4766C54.6641 18.2266 55 18.0625 55.4375 17.9844C55.7812 17.9375 55.9531 17.8281 55.9531 17.6562C55.9531 17.5312 55.9062 17.3984 55.8125 17.2578C55.5156 16.8516 55.2031 16.5 54.875 16.2031C54.5469 15.8906 54.1094 15.7344 53.5625 15.7344C52.9688 15.7344 52.3047 15.9062 51.5703 16.25C50.8359 16.5938 50.0859 17.0547 49.3203 17.6328C48.5703 18.1953 47.8281 18.8438 47.0938 19.5781C46.375 20.2969 45.7344 21.0391 45.1719 21.8047C44.6094 22.5703 44.1562 23.3281 43.8125 24.0781C43.4688 24.8281 43.2969 25.5 43.2969 26.0938C43.2969 26.625 43.4375 27.0391 43.7188 27.3359C44.0156 27.6328 44.4141 27.7812 44.9141 27.7812C46.1953 27.7812 47.5938 27.1016 49.1094 25.7422C50.625 24.3828 52.1406 22.3438 53.6562 19.625ZM71.5812 13.0859C71.5812 12.8516 71.6828 12.625 71.8859 12.4062C72.0891 12.1719 72.3547 11.9688 72.6828 11.7969C73.0109 11.6094 73.3781 11.4609 73.7844 11.3516C74.2062 11.2266 74.6281 11.1641 75.05 11.1641C75.2844 11.1641 75.4797 11.2266 75.6359 11.3516C75.8078 11.4766 75.9562 11.7188 76.0812 12.0781C76.2062 12.4219 76.3156 12.9141 76.4094 13.5547C76.5187 14.1797 76.6203 15 76.7141 16.0156C76.7766 16.3281 76.8312 16.5703 76.8781 16.7422C76.9406 16.8984 77.0187 16.9766 77.1125 16.9766C77.2531 16.9766 77.3937 16.7344 77.5344 16.25C78.675 12.9531 80.3234 11.3047 82.4797 11.3047C83.4797 11.3047 84.3859 11.6172 85.1984 12.2422C86.0266 12.8672 86.7922 13.8906 87.4953 15.3125C88.2141 16.7188 88.8937 18.5781 89.5344 20.8906C90.175 23.1875 90.8156 26.0234 91.4562 29.3984C91.4875 29.5703 91.5109 29.7266 91.5266 29.8672C91.5422 30.0078 91.55 30.1406 91.55 30.2656C91.55 30.625 91.4641 30.9375 91.2922 31.2031C91.1359 31.4531 90.925 31.6641 90.6594 31.8359C90.3937 31.9922 90.0969 32.1094 89.7687 32.1875C89.4406 32.2812 89.1125 32.3281 88.7844 32.3281C88.1281 32.3281 87.6516 32.2578 87.3547 32.1172C87.0734 31.9766 86.8937 31.7109 86.8156 31.3203C86.3625 28.9453 85.9172 26.8359 85.4797 24.9922C85.0578 23.1484 84.6359 21.6016 84.2141 20.3516C83.8078 19.0859 83.4016 18.125 82.9953 17.4688C82.5891 16.8125 82.1828 16.4844 81.7766 16.4844C81.3703 16.4844 80.9875 16.7422 80.6281 17.2578C80.2844 17.7578 79.9484 18.5469 79.6203 19.625C79.2922 20.7031 78.9719 22.0703 78.6594 23.7266C78.3625 25.3828 78.0734 27.3594 77.7922 29.6562C77.7141 30.2812 77.4016 30.7812 76.8547 31.1562C76.3078 31.5312 75.6125 31.7188 74.7687 31.7188C74.2062 31.7188 73.7766 31.6016 73.4797 31.3672C73.1828 31.1328 73.0187 30.8125 72.9875 30.4062C72.8469 27.1562 72.6906 24.4844 72.5187 22.3906C72.3625 20.2812 72.2141 18.5938 72.0734 17.3281C71.9328 16.0469 71.8156 15.0938 71.7219 14.4688C71.6281 13.8438 71.5812 13.3828 71.5812 13.0859ZM103.733 23.7031C103.733 25.7969 104.053 27.4141 104.694 28.5547C105.334 29.6953 106.264 30.2656 107.483 30.2656C108.248 30.2656 108.952 30.0391 109.592 29.5859C110.248 29.1328 110.811 28.5 111.28 27.6875C111.748 26.875 112.108 25.9141 112.358 24.8047C112.623 23.6797 112.756 22.4609 112.756 21.1484C112.756 20.3516 112.725 19.6641 112.663 19.0859C112.6 18.4922 112.53 17.9688 112.452 17.5156C112.389 17.0469 112.327 16.6328 112.264 16.2734C112.202 15.9141 112.17 15.5703 112.17 15.2422C112.17 14.7422 112.381 14.3828 112.803 14.1641C113.225 13.9297 113.897 13.8125 114.819 13.8125C115.991 13.8125 116.897 14.0781 117.538 14.6094C118.194 15.1406 118.522 15.9141 118.522 16.9297C118.522 19.6953 118.248 22.1797 117.702 24.3828C117.17 26.5859 116.397 28.4609 115.381 30.0078C114.381 31.5391 113.163 32.7188 111.725 33.5469C110.288 34.375 108.678 34.7891 106.897 34.7891C105.631 34.7891 104.459 34.5234 103.381 33.9922C102.319 33.4766 101.397 32.75 100.616 31.8125C99.85 30.8594 99.2484 29.7344 98.8109 28.4375C98.3734 27.125 98.1547 25.6875 98.1547 24.125C98.1547 23.5312 98.1703 22.8984 98.2016 22.2266C98.2328 21.5547 98.2797 20.8359 98.3422 20.0703C98.4047 19.2891 98.4828 18.4453 98.5766 17.5391C98.6859 16.6328 98.8031 15.6484 98.9281 14.5859C98.975 14.1328 99.1859 13.7734 99.5609 13.5078C99.9516 13.2266 100.444 13.0859 101.038 13.0859C101.569 13.0859 102.069 13.1406 102.538 13.25C103.006 13.3594 103.405 13.5078 103.733 13.6953C104.077 13.8828 104.342 14.1016 104.53 14.3516C104.733 14.6016 104.834 14.8672 104.834 15.1484C104.834 15.4297 104.772 15.875 104.647 16.4844C104.538 17.0781 104.413 17.7656 104.272 18.5469C104.147 19.3125 104.022 20.1484 103.897 21.0547C103.788 21.9453 103.733 22.8281 103.733 23.7031ZM146.103 26.8672C146.556 26.4766 147.002 26.2812 147.439 26.2812C147.689 26.2812 147.916 26.3438 148.119 26.4688C148.322 26.5938 148.548 26.7891 148.798 27.0547C149.033 27.4141 149.197 27.7109 149.291 27.9453C149.4 28.1641 149.455 28.3828 149.455 28.6016C149.455 29.0703 149.22 29.5156 148.752 29.9375C148.002 30.5625 147.189 31.125 146.314 31.625C145.439 32.1094 144.525 32.5234 143.572 32.8672C142.619 33.2109 141.634 33.4688 140.619 33.6406C139.603 33.8281 138.595 33.9219 137.595 33.9219C136.33 33.9219 135.142 33.7578 134.033 33.4297C132.923 33.1172 131.931 32.6641 131.056 32.0703C130.197 31.4766 129.47 30.7656 128.877 29.9375C128.283 29.0938 127.861 28.1484 127.611 27.1016C127.47 26.6641 127.337 26.3828 127.212 26.2578C127.103 26.1172 126.916 26.0469 126.65 26.0469C126.072 26.0469 125.627 25.9062 125.314 25.625C125.002 25.3438 124.845 24.9375 124.845 24.4062C124.845 24.1875 124.861 24.0469 124.892 23.9844L124.939 23.5156C125.017 22.9531 125.166 22.5469 125.384 22.2969C125.619 22.0469 125.978 21.9219 126.462 21.9219H126.814C127.47 21.9219 127.931 21.6172 128.197 21.0078C128.681 19.9297 129.298 18.9453 130.048 18.0547C130.798 17.1641 131.642 16.4062 132.58 15.7812C133.517 15.1406 134.517 14.6484 135.58 14.3047C136.658 13.9453 137.752 13.7656 138.861 13.7656C140.017 13.7656 141.095 13.9375 142.095 14.2812C143.111 14.6094 143.994 15.0703 144.744 15.6641C145.494 16.2578 146.08 16.9531 146.502 17.75C146.939 18.5469 147.158 19.4062 147.158 20.3281C147.158 20.9688 147.033 21.5547 146.783 22.0859C146.533 22.6172 146.173 23.0859 145.705 23.4922C145.236 23.8828 144.666 24.2031 143.994 24.4531C143.337 24.7031 142.587 24.8672 141.744 24.9453L133.611 25.7656C133.298 25.7656 133.041 25.8438 132.837 26C132.65 26.1562 132.556 26.3672 132.556 26.6328C132.556 27.0391 132.705 27.4297 133.002 27.8047C133.314 28.1797 133.72 28.5156 134.22 28.8125C134.736 29.0938 135.322 29.3203 135.978 29.4922C136.65 29.6641 137.337 29.75 138.041 29.75C138.712 29.75 139.4 29.6875 140.103 29.5625C140.822 29.4219 141.525 29.2266 142.212 28.9766C142.916 28.7266 143.595 28.4297 144.252 28.0859C144.908 27.7266 145.525 27.3203 146.103 26.8672ZM140.877 20.8203C141.111 20.7734 141.314 20.6641 141.486 20.4922C141.658 20.3047 141.744 20.0781 141.744 19.8125C141.744 19.5781 141.658 19.3594 141.486 19.1562C141.314 18.9531 141.08 18.7734 140.783 18.6172C140.486 18.4453 140.142 18.3125 139.752 18.2188C139.361 18.125 138.947 18.0781 138.509 18.0781C137.869 18.0781 137.212 18.1719 136.541 18.3594C135.869 18.5469 135.259 18.7969 134.712 19.1094C134.166 19.4062 133.72 19.7422 133.377 20.1172C133.033 20.4766 132.861 20.8359 132.861 21.1953C132.861 21.5547 133.08 21.7344 133.517 21.7344C133.783 21.7344 134.212 21.7031 134.806 21.6406C135.4 21.5781 136.056 21.5078 136.775 21.4297C137.494 21.3359 138.22 21.2344 138.955 21.125C139.689 21.0156 140.33 20.9141 140.877 20.8203ZM154.489 5.30469C154.489 4.49219 154.723 3.91406 155.192 3.57031C155.661 3.22656 156.434 3.05469 157.512 3.05469C157.887 3.05469 158.216 3.09375 158.497 3.17188C158.778 3.25 159.012 3.38281 159.2 3.57031C159.387 3.74219 159.536 3.98438 159.645 4.29688C159.77 4.59375 159.872 4.97656 159.95 5.44531C160.153 6.83594 160.356 8.29688 160.559 9.82812C160.778 11.3438 160.981 12.8594 161.169 14.375C161.372 15.875 161.559 17.3438 161.731 18.7812C161.903 20.2031 162.052 21.5312 162.177 22.7656C162.317 23.9844 162.419 25.0703 162.481 26.0234C162.559 26.9609 162.598 27.7031 162.598 28.25C162.598 28.8125 162.544 29.2891 162.434 29.6797C162.341 30.0703 162.169 30.3828 161.919 30.6172C161.684 30.8516 161.372 31.0234 160.981 31.1328C160.606 31.2266 160.137 31.2734 159.575 31.2734C159.028 31.2734 158.591 31.1328 158.262 30.8516C157.95 30.5703 157.794 30.1406 157.794 29.5625C157.794 28.9688 157.747 28.1797 157.653 27.1953C157.559 26.1953 157.434 25.0859 157.278 23.8672C157.122 22.6484 156.942 21.3516 156.739 19.9766C156.552 18.6016 156.348 17.2422 156.13 15.8984C155.927 14.5547 155.723 13.2656 155.52 12.0312C155.333 10.7812 155.161 9.67969 155.005 8.72656C154.848 7.75781 154.723 6.96875 154.63 6.35938C154.536 5.73438 154.489 5.38281 154.489 5.30469Z" fill="url(#paint0_linear_0_1)"/>
<path d="M192.683 20.2812C192.683 20.9375 192.714 21.6172 192.777 22.3203C192.839 23.0234 192.909 23.7266 192.988 24.4297C193.081 25.1328 193.159 25.8438 193.222 26.5625C193.284 27.2656 193.316 27.9609 193.316 28.6484C193.316 29.4141 193.05 30.0391 192.519 30.5234C191.988 30.9922 191.277 31.2266 190.386 31.2266C189.948 31.2266 189.534 31.0938 189.144 30.8281C188.769 30.5625 188.558 30.1406 188.511 29.5625C188.433 28.8281 188.355 28.0078 188.277 27.1016C188.214 26.1797 188.152 25.2344 188.089 24.2656C188.042 23.2812 187.995 22.2969 187.948 21.3125C187.902 20.3125 187.863 19.3594 187.831 18.4531C187.8 17.5312 187.777 16.6875 187.761 15.9219C187.745 15.1406 187.738 14.4844 187.738 13.9531C187.738 13.4844 187.769 13.0391 187.831 12.6172C187.894 12.1953 188.027 11.8281 188.23 11.5156C188.433 11.2031 188.706 10.9531 189.05 10.7656C189.409 10.5781 189.886 10.4844 190.48 10.4844C190.933 10.4844 191.441 10.6484 192.003 10.9766C192.566 11.2891 193.167 11.7188 193.808 12.2656C194.464 12.8125 195.159 13.4453 195.894 14.1641C196.628 14.8672 197.386 15.6094 198.167 16.3906C198.948 17.1719 199.745 17.9688 200.558 18.7812C201.386 19.5781 202.222 20.3359 203.066 21.0547C203.441 21.3828 203.863 21.7656 204.331 22.2031C204.816 22.6406 205.308 23.0547 205.808 23.4453C206.323 23.8359 206.831 24.1719 207.331 24.4531C207.847 24.7188 208.339 24.8516 208.808 24.8516C209.245 24.8516 209.527 24.6641 209.652 24.2891C209.792 23.8984 209.863 23.2812 209.863 22.4375C209.863 21.8125 209.808 21.0391 209.698 20.1172C209.605 19.1953 209.464 18.2109 209.277 17.1641C209.089 16.1172 208.855 15.0703 208.573 14.0234C208.292 12.9609 207.972 11.9922 207.613 11.1172C207.534 10.9297 207.456 10.75 207.378 10.5781C207.316 10.3906 207.284 10.1875 207.284 9.96875C207.284 9.60938 207.402 9.28906 207.636 9.00781C207.87 8.72656 208.152 8.49219 208.48 8.30469C208.808 8.11719 209.152 7.97656 209.511 7.88281C209.87 7.77344 210.167 7.71875 210.402 7.71875C210.917 7.71875 211.378 8 211.784 8.5625C212.191 9.10938 212.542 9.82812 212.839 10.7188C213.152 11.5938 213.409 12.5859 213.613 13.6953C213.816 14.7891 213.98 15.8906 214.105 17C214.245 18.1094 214.339 19.1719 214.386 20.1875C214.448 21.1875 214.48 22.0234 214.48 22.6953C214.48 23.9609 214.425 25.0781 214.316 26.0469C214.222 27 214.011 27.8047 213.683 28.4609C213.37 29.1172 212.909 29.6172 212.3 29.9609C211.691 30.2891 210.878 30.4531 209.863 30.4531C209.05 30.4531 208.198 30.2891 207.308 29.9609C206.417 29.6172 205.511 29.1641 204.589 28.6016C203.683 28.0234 202.761 27.3672 201.823 26.6328C200.902 25.8984 199.995 25.1328 199.105 24.3359C198.214 23.5391 197.347 22.7422 196.503 21.9453C195.675 21.1484 194.902 20.4062 194.183 19.7188C193.886 19.4219 193.613 19.2734 193.363 19.2734C193.144 19.2734 192.972 19.3672 192.847 19.5547C192.738 19.7266 192.683 19.9688 192.683 20.2812ZM233.272 32.6328C232.334 32.6328 231.397 32.4062 230.459 31.9531C229.522 31.4844 228.623 30.8516 227.764 30.0547C226.905 29.2578 226.108 28.3203 225.373 27.2422C224.639 26.1484 223.998 24.9766 223.452 23.7266C222.905 22.4609 222.475 21.1406 222.162 19.7656C221.85 18.3906 221.694 17.0156 221.694 15.6406C221.694 14.5781 221.912 13.8203 222.35 13.3672C222.787 12.8984 223.498 12.6641 224.483 12.6641C225.717 12.6641 226.405 13.1719 226.545 14.1875C226.827 16.3438 227.217 18.2891 227.717 20.0234C228.217 21.7578 228.803 23.2344 229.475 24.4531C230.162 25.6719 230.92 26.6094 231.748 27.2656C232.592 27.9219 233.483 28.25 234.42 28.25C235.092 28.25 235.725 28.0859 236.319 27.7578C236.912 27.4141 237.428 26.9375 237.866 26.3281C238.022 26.0938 238.123 25.8672 238.17 25.6484C238.233 25.4297 238.28 25.1797 238.311 24.8984C238.389 23.7891 238.475 22.7031 238.569 21.6406C238.678 20.5625 238.78 19.4844 238.873 18.4062C238.905 17.9375 238.967 17.5547 239.061 17.2578C239.155 16.9609 239.295 16.7266 239.483 16.5547C239.67 16.3828 239.912 16.2656 240.209 16.2031C240.522 16.1406 240.912 16.1094 241.381 16.1094C241.912 16.1094 242.366 16.1875 242.741 16.3438C243.116 16.4844 243.42 16.7266 243.655 17.0703C243.889 17.3984 244.053 17.8359 244.147 18.3828C244.256 18.9141 244.311 19.5781 244.311 20.375C244.311 21.0625 244.256 21.6641 244.147 22.1797C244.053 22.6797 243.936 23.1562 243.795 23.6094C243.67 24.0469 243.545 24.4844 243.42 24.9219C243.311 25.3438 243.241 25.8125 243.209 26.3281C243.131 27.625 243.061 28.75 242.998 29.7031C242.936 30.6406 242.881 31.4453 242.834 32.1172C242.803 32.7891 242.772 33.3672 242.741 33.8516C242.725 34.3359 242.709 34.7656 242.694 35.1406C242.678 35.5312 242.67 35.8984 242.67 36.2422C242.67 36.5859 242.67 36.9609 242.67 37.3672C242.67 38.1016 242.702 38.8984 242.764 39.7578C242.827 40.6328 242.889 41.4688 242.952 42.2656C243.03 43.0625 243.1 43.7656 243.162 44.375C243.225 44.9844 243.256 45.4062 243.256 45.6406C243.256 45.9375 243.162 46.2188 242.975 46.4844C242.787 46.75 242.537 46.9844 242.225 47.1875C241.912 47.3906 241.545 47.5469 241.123 47.6562C240.702 47.7812 240.256 47.8438 239.787 47.8438C239.381 47.8438 239.053 47.7031 238.803 47.4219C238.569 47.1562 238.436 46.7969 238.405 46.3438C238.358 45.75 238.319 45.0234 238.287 44.1641C238.256 43.3203 238.225 42.4141 238.194 41.4453C238.162 40.4922 238.139 39.5156 238.123 38.5156C238.123 37.5312 238.116 36.6094 238.1 35.75C238.084 34.9062 238.077 34.1641 238.077 33.5234C238.077 32.8828 238.077 32.4219 238.077 32.1406C238.077 31.8594 238.045 31.6641 237.983 31.5547C237.92 31.4297 237.803 31.3672 237.631 31.3672C237.537 31.3672 237.412 31.3984 237.256 31.4609C237.1 31.5078 236.92 31.5938 236.717 31.7188C236.17 32.0469 235.616 32.2812 235.053 32.4219C234.491 32.5625 233.897 32.6328 233.272 32.6328ZM252.228 24.2188C252.228 23.9531 252.259 23.6562 252.322 23.3281C252.384 23 252.416 22.6406 252.416 22.25C252.416 21.9844 252.298 21.7812 252.064 21.6406C251.845 21.5 251.595 21.3438 251.314 21.1719C251.033 21 250.775 20.7812 250.541 20.5156C250.322 20.25 250.212 19.8672 250.212 19.3672C250.212 19.0078 250.306 18.6484 250.494 18.2891C250.697 17.9297 250.986 17.6016 251.361 17.3047C252.283 16.6172 253.236 16 254.22 15.4531C255.22 14.9062 256.212 14.4453 257.197 14.0703C258.197 13.6953 259.181 13.4062 260.15 13.2031C261.119 13 262.048 12.8984 262.939 12.8984C264.439 12.8984 265.845 13.1797 267.158 13.7422C268.486 14.2891 269.634 15.0469 270.603 16.0156C271.587 16.9688 272.361 18.0938 272.923 19.3906C273.502 20.6719 273.791 22.0469 273.791 23.5156C273.791 24.9531 273.486 26.3203 272.877 27.6172C272.283 28.8984 271.478 30.0234 270.462 30.9922C269.447 31.9609 268.252 32.7266 266.877 33.2891C265.517 33.8672 264.08 34.1562 262.564 34.1562C261.08 34.1562 259.705 33.9062 258.439 33.4062C257.173 32.9062 256.08 32.2188 255.158 31.3438C254.236 30.4531 253.517 29.4062 253.002 28.2031C252.486 26.9844 252.228 25.6562 252.228 24.2188ZM263.08 29.9375C263.736 29.9375 264.416 29.8047 265.119 29.5391C265.822 29.2734 266.462 28.8906 267.041 28.3906C267.634 27.875 268.119 27.25 268.494 26.5156C268.884 25.7812 269.08 24.9531 269.08 24.0312C269.08 23.0938 268.908 22.2188 268.564 21.4062C268.22 20.5938 267.744 19.8906 267.134 19.2969C266.541 18.6875 265.83 18.2109 265.002 17.8672C264.189 17.5234 263.306 17.3516 262.353 17.3516C260.619 17.3516 259.291 17.8047 258.369 18.7109C257.447 19.6016 256.986 20.9766 256.986 22.8359C256.986 23.8516 257.134 24.7969 257.431 25.6719C257.744 26.5312 258.173 27.2812 258.72 27.9219C259.267 28.5469 259.908 29.0391 260.642 29.3984C261.392 29.7578 262.205 29.9375 263.08 29.9375ZM282.059 13.0859C282.059 12.8516 282.161 12.625 282.364 12.4062C282.567 12.1719 282.833 11.9688 283.161 11.7969C283.489 11.6094 283.856 11.4609 284.263 11.3516C284.684 11.2266 285.106 11.1641 285.528 11.1641C285.763 11.1641 285.958 11.2266 286.114 11.3516C286.286 11.4766 286.434 11.7188 286.559 12.0781C286.684 12.4219 286.794 12.9141 286.888 13.5547C286.997 14.1797 287.098 15 287.192 16.0156C287.255 16.3281 287.309 16.5703 287.356 16.7422C287.419 16.8984 287.497 16.9766 287.591 16.9766C287.731 16.9766 287.872 16.7344 288.013 16.25C289.153 12.9531 290.802 11.3047 292.958 11.3047C293.958 11.3047 294.864 11.6172 295.677 12.2422C296.505 12.8672 297.27 13.8906 297.973 15.3125C298.692 16.7188 299.372 18.5781 300.013 20.8906C300.653 23.1875 301.294 26.0234 301.934 29.3984C301.966 29.5703 301.989 29.7266 302.005 29.8672C302.02 30.0078 302.028 30.1406 302.028 30.2656C302.028 30.625 301.942 30.9375 301.77 31.2031C301.614 31.4531 301.403 31.6641 301.138 31.8359C300.872 31.9922 300.575 32.1094 300.247 32.1875C299.919 32.2812 299.591 32.3281 299.263 32.3281C298.606 32.3281 298.13 32.2578 297.833 32.1172C297.552 31.9766 297.372 31.7109 297.294 31.3203C296.841 28.9453 296.395 26.8359 295.958 24.9922C295.536 23.1484 295.114 21.6016 294.692 20.3516C294.286 19.0859 293.88 18.125 293.473 17.4688C293.067 16.8125 292.661 16.4844 292.255 16.4844C291.848 16.4844 291.466 16.7422 291.106 17.2578C290.763 17.7578 290.427 18.5469 290.098 19.625C289.77 20.7031 289.45 22.0703 289.138 23.7266C288.841 25.3828 288.552 27.3594 288.27 29.6562C288.192 30.2812 287.88 30.7812 287.333 31.1562C286.786 31.5312 286.091 31.7188 285.247 31.7188C284.684 31.7188 284.255 31.6016 283.958 31.3672C283.661 31.1328 283.497 30.8125 283.466 30.4062C283.325 27.1562 283.169 24.4844 282.997 22.3906C282.841 20.2812 282.692 18.5938 282.552 17.3281C282.411 16.0469 282.294 15.0938 282.2 14.4688C282.106 13.8438 282.059 13.3828 282.059 13.0859ZM312.805 8.09375C312.352 8.09375 311.922 8.03125 311.516 7.90625C311.125 7.76562 310.781 7.57812 310.484 7.34375C310.203 7.09375 309.977 6.80469 309.805 6.47656C309.633 6.14844 309.547 5.78906 309.547 5.39844C309.547 4.74219 309.805 4.21094 310.32 3.80469C310.852 3.39844 311.555 3.19531 312.43 3.19531C312.836 3.19531 313.227 3.27344 313.602 3.42969C313.977 3.57031 314.305 3.76562 314.586 4.01562C314.883 4.26562 315.117 4.5625 315.289 4.90625C315.461 5.23438 315.547 5.57812 315.547 5.9375C315.547 6.60938 315.297 7.14062 314.797 7.53125C314.312 7.90625 313.648 8.09375 312.805 8.09375ZM309.594 15.2422C309.594 14.6953 309.828 14.25 310.297 13.9062C310.781 13.5469 311.414 13.3672 312.195 13.3672C313.602 13.3672 314.352 13.8516 314.445 14.8203C314.508 15.4922 314.57 16.25 314.633 17.0938C314.711 17.9375 314.781 18.8359 314.844 19.7891C314.922 20.7266 314.984 21.7031 315.031 22.7188C315.094 23.7188 315.148 24.7109 315.195 25.6953C315.242 26.6641 315.281 27.6016 315.312 28.5078C315.344 29.4141 315.359 30.2422 315.359 30.9922C315.359 31.7734 315.078 32.3594 314.516 32.75C313.969 33.1406 313.164 33.3359 312.102 33.3359C311.617 33.3359 311.234 33.2188 310.953 32.9844C310.688 32.7656 310.555 32.4375 310.555 32C310.555 29.8438 310.5 27.8281 310.391 25.9531C310.297 24.0625 310.188 22.3828 310.062 20.9141C309.953 19.4453 309.844 18.2266 309.734 17.2578C309.641 16.2734 309.594 15.6016 309.594 15.2422ZM330.425 31.5781C329.972 31.5781 329.542 31.5078 329.136 31.3672C328.745 31.2266 328.402 31.0391 328.105 30.8047C327.808 30.5547 327.573 30.2656 327.402 29.9375C327.245 29.6094 327.167 29.2578 327.167 28.8828C327.167 28.2266 327.425 27.6953 327.941 27.2891C328.472 26.8828 329.167 26.6797 330.027 26.6797C330.433 26.6797 330.823 26.7578 331.198 26.9141C331.589 27.0547 331.925 27.25 332.206 27.5C332.503 27.75 332.737 28.0391 332.909 28.3672C333.081 28.6953 333.167 29.0391 333.167 29.3984C333.167 30.0859 332.917 30.625 332.417 31.0156C331.933 31.3906 331.269 31.5781 330.425 31.5781Z" fill="url(#paint1_linear_0_1)"/>
<defs>
<linearGradient id="paint0_linear_0_1" x1="297" y1="23" x2="21" y2="23" gradientUnits="userSpaceOnUse">
<stop stop-color="#E4E4E4" stop-opacity="0.6"/>
<stop offset="1" stop-color="#E4E4E4"/>
</linearGradient>
<linearGradient id="paint1_linear_0_1" x1="297" y1="23" x2="21" y2="23" gradientUnits="userSpaceOnUse">
<stop stop-color="white" stop-opacity="0.6"/>
<stop offset="1" stop-color="#E4E4E4"/>
</linearGradient>
</defs>
</svg>
