<svg width="482" height="463" viewBox="0 0 482 463" fill="none" xmlns="http://www.w3.org/2000/svg">
<path d="M318.377 213.046C333.973 213.046 346.647 201.131 346.647 186.43C346.647 171.728 333.973 159.82 318.377 159.82C302.787 159.82 290.113 171.728 290.113 186.43C290.113 201.131 302.78 213.046 318.377 213.046Z" fill="black"/>
<path d="M282.704 243.693L266.661 275.393L264.539 279.545H235.996L216.169 204.913L202 208.255L224.606 293.294H236.011L221.358 323.685L230.226 327.481L246.721 293.294H270.906L286.745 327.417L295.665 323.749L281.525 293.294H291.79V279.545H273.935L276.05 275.393L281.118 265.39L291.201 245.457H340.303V237.473H285.846L282.704 243.693Z" fill="#1E1E1E"/>
<path d="M291.798 209.499L276.065 188.349L267.877 189.608L233.368 253.013L238.307 275.393H254.561H261.261L281.465 235.511L282.704 233.037V232.482H346.836V218.513H291.004L291.798 209.499Z" fill="black"/>
<path d="M306.783 256.767H290.869L281.45 275.393H282.704H306.783V331.391H332.221V256.767H330.197H306.783Z" fill="black"/>
<path d="M390.243 186.686V183.074H374.631V186.686H383.551L373.921 196.894V200.506H390.931V196.894H380.606L390.243 186.686Z" fill="black"/>
<path d="M383.483 161.2L375.016 157.346L387.23 152.562L388.763 149.59L375.93 143.761L374.412 146.718L381.731 150.053L369.503 154.844L367.992 157.809L381.965 164.164L383.483 161.2Z" fill="white"/>
<path d="M421.437 167.1L407.487 169.425L417.917 153.451L416.996 148.567L395.893 152.079L396.807 156.97L408.869 154.958L398.438 170.932L399.345 175.809L422.344 171.977L421.437 167.1Z" fill="white"/>
<path d="M402.827 131.334L397.955 138.785L398.401 141.052L409.111 139.268L408.695 136.993L402.192 138.074L407.056 130.638L406.618 128.356L396.792 129.998L397.215 132.266L402.827 131.334Z" fill="white"/>
<path d="M360.9 167.2L364.525 168.849L358.483 171.209L357.728 172.674L364.631 175.809L365.379 174.351L361.21 172.439L367.229 170.079L367.992 168.614L361.648 165.735L360.9 167.2Z" fill="white"/>
<path d="M382.721 124.616L378.544 122.711L384.571 120.344L385.326 118.886L378.982 116L378.234 117.472L381.859 119.114L375.825 121.481L375.069 122.938L381.965 126.081L382.721 124.616Z" fill="black"/>
<path d="M365.379 138.28L361.21 136.375L367.229 134.007L367.992 132.55L361.648 129.664L360.9 131.128L364.525 132.777L358.483 135.138L357.728 136.602L364.631 139.744L365.379 138.28Z" fill="black"/>
</svg>
