          <svg
            viewBox="0 0 191 29"
            fill="none"
            xmlns="http://www.w3.org/2000/svg"
          >
            <path
              d="M9.25237 24.848C8.84704 24.848 8.64437 24.7307 8.64437 24.496C8.64437 24.0267 9.40171 22.7147 10.9164 20.56C11.599 19.6213 12.3244 18.6613 13.0924 17.68C13.8817 16.6773 14.703 15.664 15.5564 14.64C14.767 14.7893 14.0737 14.896 13.4764 14.96C12.879 15.024 12.399 15.056 12.0364 15.056C11.951 15.0347 11.9084 14.9813 11.9084 14.896C11.9084 14.7467 12.0364 14.5653 12.2924 14.352C12.5484 14.1387 12.7617 14.032 12.9324 14.032C12.975 14.032 13.1244 14.032 13.3804 14.032C13.6577 14.032 14.031 14.0213 14.5004 14H16.1324C16.4524 13.5733 17.007 12.7947 17.7964 11.664C18.607 10.5333 19.663 9.05067 20.9644 7.216C21.9884 5.744 22.5004 4.528 22.5004 3.568C22.5004 2.07467 21.391 1.328 19.1724 1.328C17.8284 1.328 16.399 1.57333 14.8844 2.064C13.391 2.55467 11.919 3.216 10.4684 4.048C9.03904 4.85867 7.75904 5.744 6.62837 6.704C5.24171 7.87733 4.14304 9.136 3.33237 10.48C2.52171 11.8027 2.11637 12.9867 2.11637 14.032C2.11637 15.8453 3.30037 16.6773 5.66837 16.528C6.96971 16.4213 8.23904 15.6427 9.47637 14.192C10.671 12.7627 11.2044 11.5467 11.0764 10.544C11.631 10.6507 11.9084 10.9813 11.9084 11.536C11.9084 12.4533 11.3324 13.5093 10.1804 14.704C9.39104 15.4933 8.50571 16.1227 7.52437 16.592C6.56437 17.0613 5.55104 17.296 4.48437 17.296C3.28971 17.296 2.36171 16.9867 1.70037 16.368C1.06037 15.728 0.740374 14.8853 0.740374 13.84C0.740374 11.3227 2.27637 8.784 5.34837 6.224C6.69237 5.11467 8.14304 4.15467 9.70037 3.344C11.2577 2.512 12.8577 1.872 14.5004 1.424C16.143 0.954666 17.7537 0.719999 19.3324 0.719999C20.8897 0.719999 22.127 0.986666 23.0444 1.52C23.9617 2.032 24.4204 2.78933 24.4204 3.792C24.4204 4.70933 24.0044 5.76533 23.1724 6.96C22.895 7.38667 22.3297 8.18667 21.4764 9.36C20.623 10.5333 19.471 12.0693 18.0204 13.968L19.8764 14.032C20.367 14.0533 20.751 14.0747 21.0284 14.096C21.3057 14.096 21.4657 14.0853 21.5084 14.064H21.7004C22.0844 14.064 22.2764 14.1387 22.2764 14.288C22.2764 14.5867 21.8604 14.736 21.0284 14.736C21.007 14.736 20.8897 14.736 20.6764 14.736C20.4844 14.736 20.207 14.7253 19.8444 14.704C19.5244 14.6827 19.2364 14.672 18.9804 14.672C18.7244 14.672 18.5004 14.672 18.3084 14.672C17.7537 14.7147 17.423 14.768 17.3164 14.832C16.847 15.4293 16.3244 16.1013 15.7484 16.848C15.1937 17.5947 14.5964 18.416 13.9564 19.312C12.271 21.6373 11.4284 23.0027 11.4284 23.408C11.4284 23.536 11.503 23.5573 11.6524 23.472C11.823 23.3867 11.9404 23.3227 12.0044 23.28C12.239 23.28 12.3564 23.312 12.3564 23.376C12.3564 23.4827 12.1217 23.6427 11.6524 23.856L10.7564 24.336C10.351 24.6773 9.84971 24.848 9.25237 24.848Z"
              fill="wheat"
            />
            <path
              d="M26.0471 22.16C25.5351 22.16 25.0231 21.9787 24.5111 21.616C23.9991 21.2533 23.7111 20.8267 23.6471 20.336C23.4338 18.6933 24.4685 16.7413 26.7511 14.48C29.0125 12.2187 31.0498 11.088 32.8631 11.088C33.3538 11.088 33.7378 11.2053 34.0151 11.44C34.1645 11.5893 34.2711 11.792 34.3351 12.048C34.4205 12.304 34.4845 12.432 34.5271 12.432C34.6125 12.432 34.6871 12.4213 34.7511 12.4C34.8151 12.3573 34.8898 12.336 34.9751 12.336C35.2311 12.336 35.4551 12.432 35.6471 12.624C35.8391 12.816 35.9458 12.9867 35.9671 13.136C35.9885 13.1787 35.3058 14.2347 33.9191 16.304C32.5325 18.3307 31.9031 19.7067 32.0311 20.432C32.1378 20.9227 32.3725 21.168 32.7351 21.168C33.8445 21.168 35.8711 19.3333 38.8151 15.664C38.8791 15.5787 38.9431 15.536 39.0071 15.536C39.1138 15.536 39.1671 15.6107 39.1671 15.76C39.1671 15.9307 39.0711 16.144 38.8791 16.4C36.1698 20.048 34.0898 21.872 32.6391 21.872C32.4471 21.872 32.2658 21.84 32.0951 21.776C31.1565 21.4133 30.6871 20.7093 30.6871 19.664C30.6871 19.3013 30.7298 18.9387 30.8151 18.576L28.8311 20.496C28.2338 21.0933 27.6898 21.52 27.1991 21.776C26.7298 22.032 26.3458 22.16 26.0471 22.16ZM25.7591 21.456C26.9965 21.456 28.6818 20.1013 30.8151 17.392L34.2071 12.72C34.0365 12.4213 33.7591 12.272 33.3751 12.272C32.0738 12.272 30.3138 13.3173 28.0951 15.408C25.7911 17.5413 24.7565 19.3013 24.9911 20.688C25.0978 21.2 25.3538 21.456 25.7591 21.456ZM47.8106 22.064C47.2346 22.064 46.8293 21.904 46.5946 21.584C46.36 21.2427 46.2426 20.8267 46.2426 20.336C46.2426 19.0987 46.6693 17.776 47.5226 16.368L49.5706 13.04C48.12 14.1067 46.68 15.44 45.2506 17.04C44.8666 17.4667 44.4293 17.968 43.9386 18.544C43.4693 19.12 42.9466 19.7813 42.3706 20.528C41.6026 21.5307 41.144 22.032 40.9946 22.032C40.696 22.032 40.4506 21.904 40.2586 21.648C40.0666 21.3707 39.9706 21.1253 39.9706 20.912C39.9706 20.7413 40.024 20.432 40.1306 19.984C40.2373 19.5147 40.3653 19.1093 40.5146 18.768C40.664 18.4053 40.8133 18.0533 40.9626 17.712C41.1333 17.3493 41.2933 16.9973 41.4426 16.656L39.5226 18.672C39.48 18.7147 39.352 18.8427 39.1386 19.056C38.9253 19.2693 38.7546 19.376 38.6266 19.376C38.52 19.376 38.4666 19.3013 38.4666 19.152C38.4666 19.1093 38.488 19.056 38.5306 18.992C38.552 18.9067 38.616 18.8107 38.7226 18.704C39.0426 18.384 39.3733 18.0427 39.7146 17.68C40.056 17.3173 40.408 16.9013 40.7706 16.432C40.9626 16.1973 41.2506 15.8453 41.6346 15.376C42.0186 14.8853 42.4346 14.3627 42.8826 13.808C43.352 13.2533 43.7893 12.7413 44.1946 12.272C44.3013 12.1227 44.4186 12.0267 44.5466 11.984C44.6746 11.92 44.76 11.888 44.8026 11.888C45.3786 11.888 45.6666 12.112 45.6666 12.56C45.6666 12.688 45.6346 12.816 45.5706 12.944C43.6506 15.5893 42.4986 17.6053 42.1146 18.992C44.5893 16.5173 46.5733 14.6613 48.0666 13.424C49.5813 12.1653 50.6586 11.536 51.2986 11.536C51.64 11.536 51.896 11.5893 52.0666 11.696C52.2586 11.8027 52.3546 12.0053 52.3546 12.304C52.3546 12.4107 52.344 12.496 52.3226 12.56C52.2586 12.7093 51.8213 13.3067 51.0106 14.352C50.52 14.9493 50.0826 15.4933 49.6986 15.984C49.336 16.4747 49.0373 16.9013 48.8026 17.264C48.4186 17.8613 48.1306 18.4267 47.9386 18.96C47.7466 19.472 47.6506 19.9093 47.6506 20.272C47.6506 20.4213 47.672 20.6027 47.7146 20.816C47.7573 21.0293 47.8853 21.136 48.0986 21.136C48.5893 21.136 49.3573 20.7093 50.4026 19.856C50.8933 19.4293 51.352 19.0027 51.7786 18.576C52.2053 18.128 52.6106 17.6907 52.9946 17.264C53.08 17.1787 53.2186 17.0187 53.4106 16.784C53.6026 16.528 53.72 16.4 53.7626 16.4C53.848 16.4 53.8906 16.4853 53.8906 16.656C53.8906 16.7413 53.8373 16.8907 53.7306 17.104C53.6453 17.296 53.5493 17.4453 53.4426 17.552C53.208 17.8293 52.856 18.2133 52.3866 18.704C51.9386 19.1947 51.4266 19.696 50.8506 20.208C50.296 20.72 49.752 21.1573 49.2186 21.52C48.6853 21.8827 48.216 22.064 47.8106 22.064ZM56.6209 22.352C55.6609 22.352 55.1809 21.744 55.1809 20.528C55.1809 20.0587 55.3195 19.504 55.5969 18.864C55.8955 18.2027 56.3115 17.5093 56.8449 16.784C56.8449 16.784 56.6529 16.9653 56.2689 17.328C55.8849 17.6907 55.4475 18.1493 54.9569 18.704C54.8715 18.7893 54.7649 18.832 54.6369 18.832C54.5515 18.832 54.5089 18.7787 54.5089 18.672C54.5089 18.5653 54.6049 18.384 54.7969 18.128L59.2129 12.944C59.7675 12.304 60.3755 11.984 61.0369 11.984C61.5275 11.984 61.7729 12.176 61.7729 12.56C61.7729 12.7093 61.7089 12.848 61.5809 12.976C61.1755 13.36 60.6742 13.904 60.0769 14.608C59.5009 15.312 58.9355 16.0693 58.3809 16.88C57.8262 17.6907 57.3569 18.4693 56.9729 19.216C56.6102 19.9413 56.4289 20.528 56.4289 20.976C56.4289 21.36 56.5569 21.552 56.8129 21.552C56.9622 21.552 57.1969 21.4987 57.5169 21.392C57.8369 21.264 58.2635 21.0187 58.7969 20.656C59.3302 20.272 59.9702 19.6853 60.7169 18.896C60.8449 18.768 61.1862 18.384 61.7409 17.744C62.2955 17.104 63.0422 16.1867 63.9809 14.992C65.6449 12.9227 66.7329 11.888 67.2449 11.888C67.9489 11.888 68.3329 12.176 68.3969 12.752C68.4395 12.944 67.9915 13.5733 67.0529 14.64C65.8369 16.112 65.0049 17.168 64.5569 17.808C63.7249 19.024 63.3089 19.9733 63.3089 20.656C63.3089 21.1253 63.4689 21.36 63.7889 21.36C64.1089 21.36 64.5142 21.2107 65.0049 20.912C65.5169 20.592 66.0502 20.1973 66.6049 19.728C67.1595 19.2373 67.6929 18.736 68.2049 18.224C68.7382 17.6907 69.1969 17.2 69.5809 16.752C69.7089 16.6027 69.8369 16.528 69.9649 16.528C70.0929 16.528 70.1569 16.592 70.1569 16.72C70.1569 16.7627 70.1462 16.8267 70.1249 16.912C70.1035 16.9973 70.0395 17.0933 69.9329 17.2C69.5915 17.584 69.1542 18.064 68.6209 18.64C68.0875 19.1947 67.5115 19.7493 66.8929 20.304C66.2742 20.8587 65.6769 21.3173 65.1009 21.68C64.5249 22.0427 64.0342 22.224 63.6289 22.224C63.1382 22.224 62.7115 22.096 62.3489 21.84C61.9862 21.5627 61.8049 21.1893 61.8049 20.72C61.8049 20.2507 61.8795 19.7813 62.0289 19.312C62.1782 18.8213 62.2955 18.4053 62.3809 18.064C61.3782 19.2373 60.4929 20.1333 59.7249 20.752C58.9782 21.3707 58.3489 21.7867 57.8369 22C57.3249 22.2347 56.9195 22.352 56.6209 22.352ZM72.9026 22.416C72.22 22.416 71.6013 22.2027 71.0466 21.776C70.492 21.328 70.2146 20.7413 70.2146 20.016C70.2146 18.5013 71.1426 16.7733 72.9986 14.832C74.8973 12.8693 76.5933 11.888 78.0866 11.888C78.5773 11.888 78.972 12.0267 79.2706 12.304C79.5906 12.56 79.7506 12.88 79.7506 13.264C79.7506 14.4587 78.8013 15.632 76.9026 16.784C75.2173 17.808 73.7986 18.32 72.6466 18.32C72.476 18.32 72.3266 18.2987 72.1986 18.256C71.8786 18.832 71.7186 19.44 71.7186 20.08C71.7186 21.1893 72.2413 21.744 73.2866 21.744C74.3533 21.744 75.7293 21.0293 77.4146 19.6C78.716 18.5547 79.8253 17.4453 80.7426 16.272C80.9346 16.016 81.1053 15.888 81.2546 15.888C81.3826 15.888 81.4466 15.952 81.4466 16.08C81.4466 16.208 81.3613 16.3893 81.1906 16.624C80.5933 17.4133 79.9533 18.1387 79.2706 18.8C78.588 19.4613 77.852 20.0693 77.0626 20.624C75.42 21.8187 74.0333 22.416 72.9026 22.416ZM73.0946 17.616C73.9053 17.616 74.9613 17.2107 76.2626 16.4C76.6893 16.1013 77.1053 15.7707 77.5106 15.408C77.9373 15.024 78.2786 14.64 78.5346 14.256C78.812 13.872 78.9506 13.5307 78.9506 13.232C78.9506 12.9547 78.7266 12.816 78.2786 12.816C77.6386 12.816 76.7426 13.296 75.5906 14.256C75.036 14.7253 74.5026 15.2373 73.9906 15.792C73.4786 16.3467 73.0413 16.9333 72.6786 17.552C72.8066 17.5947 72.9453 17.616 73.0946 17.616ZM84.4814 22.064C83.8627 22.064 83.2867 21.9147 82.7534 21.616C82.22 21.296 81.9534 20.7733 81.9534 20.048C81.9534 19.0453 82.3054 17.8507 83.0094 16.464C83.7347 15.0773 84.556 13.6373 85.4734 12.144C87.9694 8.09067 89.74 6.064 90.7854 6.064C90.9987 6.064 91.212 6.14933 91.4254 6.32C91.66 6.46933 91.788 6.64 91.8094 6.832L89.5694 9.84C88.6947 11.0133 87.9054 12.1013 87.2014 13.104C86.4974 14.0853 85.8894 14.9707 85.3774 15.76C85.1214 16.1653 84.8334 16.624 84.5134 17.136C84.1934 17.648 83.9054 18.1813 83.6494 18.736C83.4147 19.2693 83.2974 19.8133 83.2974 20.368C83.2974 20.624 83.372 20.8587 83.5214 21.072C83.6707 21.264 83.9374 21.36 84.3214 21.36C85.004 21.36 85.9 20.9973 87.0094 20.272C88.1187 19.5253 89.2174 18.5013 90.3054 17.2C90.412 17.072 90.5294 16.9547 90.6574 16.848C90.7854 16.7413 90.892 16.688 90.9774 16.688C91.084 16.688 91.1374 16.752 91.1374 16.88C91.1374 16.944 91.0627 17.072 90.9134 17.264C90.7854 17.4347 90.6787 17.5733 90.5934 17.68L89.8254 18.544C89.3987 19.0133 88.8867 19.5253 88.2894 20.08C87.7134 20.6347 87.0947 21.104 86.4334 21.488C85.7934 21.872 85.1427 22.064 84.4814 22.064ZM134.184 28.56C133.501 28.56 132.904 28.272 132.392 27.696C131.88 27.0987 131.635 26.4373 131.656 25.712C131.912 26.032 132.253 26.4053 132.68 26.832C133.235 27.3653 133.779 27.632 134.312 27.632C135.528 27.632 136.84 26.6613 138.248 24.72C138.739 24.0373 139.24 23.2373 139.752 22.32C140.285 21.424 140.787 20.4213 141.256 19.312L142.472 16.368L137.768 20.048C136.317 21.1787 135.155 21.744 134.28 21.744C133.811 21.744 133.437 21.5733 133.16 21.232C132.883 20.8907 132.744 20.5387 132.744 20.176C132.744 19.2587 133.533 17.7547 135.112 15.664C136.691 13.552 137.875 12.496 138.664 12.496C139.325 12.496 139.656 12.7413 139.656 13.232C139.656 13.424 138.707 14.5333 136.808 16.56C134.931 18.5653 133.992 19.92 133.992 20.624C133.992 20.9013 134.173 21.04 134.536 21.04C135.219 21.04 136.701 20.1547 138.984 18.384C139.923 17.6373 140.755 16.9547 141.48 16.336C142.205 15.7173 142.813 15.1627 143.304 14.672C143.475 14.4587 143.645 14.256 143.816 14.064C143.987 13.8507 144.147 13.6373 144.296 13.424C144.701 12.9547 145.107 12.72 145.512 12.72C146.088 12.72 146.376 12.9547 146.376 13.424C146.376 13.5093 145.928 14.2133 145.032 15.536C144.563 16.2613 144.189 16.8267 143.912 17.232C143.635 17.616 143.475 17.8613 143.432 17.968C142.771 19.248 141.757 21.1147 140.392 23.568C138.323 26.896 136.253 28.56 134.184 28.56ZM149.228 22.064C148.695 22.064 148.279 21.8187 147.98 21.328C147.681 20.816 147.532 20.3253 147.532 19.856C147.532 18.576 148.46 16.784 150.316 14.48C152.193 12.1547 153.708 10.992 154.86 10.992C155.948 10.992 156.492 11.568 156.492 12.72C156.492 12.8907 156.471 13.072 156.428 13.264C156.407 13.456 156.375 13.6587 156.332 13.872C156.375 13.936 156.481 13.968 156.652 13.968C157.228 13.968 157.911 13.7653 158.7 13.36C158.679 13.7227 157.836 14.2453 156.172 14.928C156.407 15.632 155.703 16.976 154.06 18.96C152.375 21.0293 150.935 22.064 149.74 22.064H149.228ZM149.804 21.104C150.721 21.104 151.895 20.2613 153.324 18.576C154.711 16.9333 155.404 15.7493 155.404 15.024C155.063 14.832 154.636 14.3413 154.124 13.552C153.399 13.552 152.353 14.4267 150.988 16.176C149.644 17.8827 148.993 19.1947 149.036 20.112C149.057 20.7733 149.313 21.104 149.804 21.104ZM167.572 22.064C166.996 22.064 166.591 21.904 166.356 21.584C166.121 21.2427 166.004 20.8267 166.004 20.336C166.004 19.0987 166.431 17.776 167.284 16.368L169.332 13.04C167.881 14.1067 166.441 15.44 165.012 17.04C164.628 17.4667 164.191 17.968 163.7 18.544C163.231 19.12 162.708 19.7813 162.132 20.528C161.364 21.5307 160.905 22.032 160.756 22.032C160.457 22.032 160.212 21.904 160.02 21.648C159.828 21.3707 159.732 21.1253 159.732 20.912C159.732 20.7413 159.785 20.432 159.892 19.984C159.999 19.5147 160.127 19.1093 160.276 18.768C160.425 18.4053 160.575 18.0533 160.724 17.712C160.895 17.3493 161.055 16.9973 161.204 16.656L159.284 18.672C159.241 18.7147 159.113 18.8427 158.9 19.056C158.687 19.2693 158.516 19.376 158.388 19.376C158.281 19.376 158.228 19.3013 158.228 19.152C158.228 19.1093 158.249 19.056 158.292 18.992C158.313 18.9067 158.377 18.8107 158.484 18.704C158.804 18.384 159.135 18.0427 159.476 17.68C159.817 17.3173 160.169 16.9013 160.532 16.432C160.724 16.1973 161.012 15.8453 161.396 15.376C161.78 14.8853 162.196 14.3627 162.644 13.808C163.113 13.2533 163.551 12.7413 163.956 12.272C164.063 12.1227 164.18 12.0267 164.308 11.984C164.436 11.92 164.521 11.888 164.564 11.888C165.14 11.888 165.428 12.112 165.428 12.56C165.428 12.688 165.396 12.816 165.332 12.944C163.412 15.5893 162.26 17.6053 161.876 18.992C164.351 16.5173 166.335 14.6613 167.828 13.424C169.343 12.1653 170.42 11.536 171.06 11.536C171.401 11.536 171.657 11.5893 171.828 11.696C172.02 11.8027 172.116 12.0053 172.116 12.304C172.116 12.4107 172.105 12.496 172.084 12.56C172.02 12.7093 171.583 13.3067 170.772 14.352C170.281 14.9493 169.844 15.4933 169.46 15.984C169.097 16.4747 168.799 16.9013 168.564 17.264C168.18 17.8613 167.892 18.4267 167.7 18.96C167.508 19.472 167.412 19.9093 167.412 20.272C167.412 20.4213 167.433 20.6027 167.476 20.816C167.519 21.0293 167.647 21.136 167.86 21.136C168.351 21.136 169.119 20.7093 170.164 19.856C170.655 19.4293 171.113 19.0027 171.54 18.576C171.967 18.128 172.372 17.6907 172.756 17.264C172.841 17.1787 172.98 17.0187 173.172 16.784C173.364 16.528 173.481 16.4 173.524 16.4C173.609 16.4 173.652 16.4853 173.652 16.656C173.652 16.7413 173.599 16.8907 173.492 17.104C173.407 17.296 173.311 17.4453 173.204 17.552C172.969 17.8293 172.617 18.2133 172.148 18.704C171.7 19.1947 171.188 19.696 170.612 20.208C170.057 20.72 169.513 21.1573 168.98 21.52C168.447 21.8827 167.977 22.064 167.572 22.064ZM181.95 10.992C181.587 10.992 181.267 10.8747 180.99 10.64C180.734 10.4053 180.606 10.1387 180.606 9.84C180.606 9.24267 181.011 8.944 181.822 8.944C182.121 8.944 182.419 9.05067 182.718 9.264C183.017 9.456 183.166 9.70133 183.166 10C183.166 10.256 183.027 10.4907 182.75 10.704C182.473 10.896 182.206 10.992 181.95 10.992ZM176.03 22.352C175.561 22.352 175.177 22.2027 174.878 21.904C174.558 21.584 174.398 21.0293 174.398 20.24C174.398 19.792 174.505 19.28 174.718 18.704C174.91 18.1067 175.155 17.5093 175.454 16.912C175.774 16.3147 176.083 15.7813 176.382 15.312C177.577 13.3707 178.558 12.3893 179.326 12.368C179.518 12.368 179.753 12.4533 180.03 12.624C180.307 12.7733 180.446 12.944 180.446 13.136C180.446 13.136 179.635 14.1813 178.014 16.272C176.414 18.3413 175.614 19.8133 175.614 20.688C175.614 21.3707 175.881 21.712 176.414 21.712C176.755 21.712 177.193 21.5733 177.726 21.296C178.281 20.9973 178.857 20.624 179.454 20.176C180.051 19.728 180.617 19.248 181.15 18.736C181.705 18.224 182.153 17.7547 182.494 17.328C182.707 17.0507 182.889 16.8587 183.038 16.752C183.209 16.6453 183.315 16.592 183.358 16.592C183.443 16.592 183.486 16.656 183.486 16.784C183.486 16.8907 183.358 17.104 183.102 17.424C182.867 17.744 182.537 18.1173 182.11 18.544C181.598 19.056 181.033 19.6107 180.414 20.208C179.795 20.8053 179.123 21.3173 178.398 21.744C177.673 22.1493 176.883 22.352 176.03 22.352ZM188.817 22.032C188.454 22.032 188.134 21.9253 187.857 21.712C187.601 21.4773 187.473 21.2107 187.473 20.912C187.473 20.2933 187.878 19.984 188.689 19.984C188.988 19.984 189.286 20.0907 189.585 20.304C189.884 20.496 190.033 20.752 190.033 21.072C190.033 21.328 189.894 21.552 189.617 21.744C189.34 21.936 189.073 22.032 188.817 22.032Z"
              fill="#e4e4e4"
            />
            <path
              d="M125.39 25.072C124.857 25.072 124.494 24.816 124.302 24.304C124.132 23.792 124.046 23.28 124.046 22.768C124.046 20.9333 125.028 18.2987 126.99 14.864C128.249 12.7093 130.19 9.808 132.814 6.16C129.977 6.416 126.308 8.656 121.806 12.88C118.222 16.272 115.673 19.184 114.158 21.616C113.646 22.4053 113.39 22.9707 113.39 23.312C113.39 23.4613 113.433 23.5573 113.518 23.6C113.625 23.6427 113.678 23.664 113.678 23.664C113.678 23.7067 113.476 23.8667 113.07 24.144C112.772 24.3147 112.398 24.4 111.95 24.4C111.054 24.4 110.67 24.1973 110.798 23.792C111.097 22.8533 112.089 21.1253 113.774 18.608C115.972 15.344 117.401 13.1147 118.062 11.92C119.513 9.31733 120.238 7.25867 120.238 5.744C120.238 4.67733 119.972 3.94133 119.438 3.536C118.926 3.13067 118.201 2.928 117.262 2.928C114.724 2.928 112.025 4.09067 109.166 6.416C107.993 7.376 106.905 8.44267 105.902 9.616C104.9 10.768 104.089 11.9627 103.47 13.2C102.852 14.4373 102.542 15.6533 102.542 16.848C102.542 18.896 103.492 19.9413 105.39 19.984C108.036 20.048 110.03 19.1627 111.374 17.328C111.886 16.624 112.142 15.9627 112.142 15.344C112.142 14.9813 112.025 14.736 111.79 14.608C111.769 14.5867 111.758 14.5547 111.758 14.512C111.758 14.4267 111.822 14.384 111.95 14.384C112.505 14.384 112.782 14.7467 112.782 15.472C112.782 15.92 112.601 16.4853 112.238 17.168C111.641 18.192 110.756 19.0027 109.582 19.6C108.409 20.1973 107.193 20.496 105.934 20.496C104.548 20.496 103.438 20.08 102.606 19.248C101.774 18.416 101.358 17.296 101.358 15.888C101.358 12.56 103.641 9.06133 108.206 5.392C108.974 4.77333 109.913 4.21867 111.022 3.728C112.132 3.23733 113.273 2.85333 114.446 2.576C115.641 2.29867 116.74 2.16 117.742 2.16C119.001 2.16 119.993 2.40533 120.718 2.896C121.465 3.36533 121.838 4.18667 121.838 5.36C121.838 6.87467 121.22 8.88 119.982 11.376C119.705 11.9307 119.353 12.5707 118.926 13.296C118.5 14.0213 117.998 14.8213 117.422 15.696C118.084 14.864 119.161 13.808 120.654 12.528C123.342 10.2667 125.828 8.41067 128.11 6.96C130.393 5.488 132.473 4.41067 134.35 3.728C134.542 3.64267 134.756 3.6 134.99 3.6C135.801 3.6 136.313 4.05867 136.526 4.976C136.633 5.33867 136.121 6.096 134.99 7.248C132.324 9.97867 130.02 13.0293 128.078 16.4C126.308 19.5147 125.422 21.776 125.422 23.184C125.422 23.7813 125.625 24.08 126.03 24.08C126.286 24.08 126.926 23.856 127.95 23.408C128.846 23.0027 129.433 22.768 129.71 22.704C129.817 22.7467 129.87 22.8 129.87 22.864C129.87 23.184 129.305 23.632 128.174 24.208C127.065 24.784 126.137 25.072 125.39 25.072Z"
              fill="Wheat"
            />
          </svg>
