<svg width="147" height="107" viewBox="0 0 147 107" fill="none" xmlns="http://www.w3.org/2000/svg">
<path d="M130.983 62.272C126.489 54.994 107.902 48.664 87.2546 47.872H87.0903L85.0616 47.818H83.0012L80.9725 47.872H80.7956C60.1544 48.652 41.5736 54.988 37.0801 62.272C32.2832 70.042 25.1796 82.546 25.1796 82.546C29.1612 88.666 44.4556 89.488 44.4556 89.488L45.2708 105.952H122.792L123.607 89.488C123.607 89.488 138.902 88.666 142.883 82.546C142.883 82.546 135.78 70.042 130.983 62.272Z" fill="#203B64" stroke="#263238" stroke-linecap="round" stroke-linejoin="round"/>
<path d="M61.2352 100C61.2352 100 25.4956 105.694 22.9233 101.044C22.6503 100.525 22.4746 99.9646 22.4051 99.388C21.5645 93.778 26.69 82.714 26.69 82.714C30.6653 82.354 34.8365 83.314 38.1735 84.514C40.5068 85.2898 42.7435 86.308 44.8411 87.55L44.5756 88.102L44.4872 88.276L52.8359 88.528L60.3061 88.756H60.4768L61.2352 100Z" fill="#926A2D"/>
<path d="M61.2352 100C61.2352 100 25.4956 105.694 22.9233 101.044C22.6503 100.525 22.4746 99.9646 22.4051 99.388C21.5645 93.778 26.69 82.714 26.69 82.714C30.6653 82.354 34.8365 83.314 38.1735 84.514C40.5068 85.2898 42.7435 86.308 44.8411 87.55L44.5756 88.102L44.4872 88.276L52.8359 88.528L60.3061 88.756H60.4768L61.2352 100Z" stroke="#263238" stroke-linecap="round" stroke-linejoin="round"/>
<path d="M44.4872 88.276C44.4872 88.276 36.0437 88.06 32.4476 89.626" stroke="#263238" stroke-linecap="round" stroke-linejoin="round"/>
<path d="M120.46 86.002C120.46 86.002 117.148 71.47 123.563 64.438" stroke="#263238" stroke-linecap="round" stroke-linejoin="round"/>
<path d="M126.078 71.674C126.078 71.674 121.737 74.674 120.947 79.528" stroke="#263238" stroke-linecap="round" stroke-linejoin="round"/>
<path d="M44.4872 62.746C48.0687 70.2892 48.9371 78.742 46.9583 86.8" stroke="#263238" stroke-linecap="round" stroke-linejoin="round"/>
<path d="M40.2338 67.774C40.2338 67.774 44.8664 70.45 46.9583 74.626" stroke="#263238" stroke-linecap="round" stroke-linejoin="round"/>
<path d="M98.1566 49.6C98.1566 49.6 91.3057 66.202 70.9174 57.202" stroke="#263238" stroke-linecap="round" stroke-linejoin="round"/>
<path d="M129.921 60.856C126.938 62.7328 124.686 65.488 123.512 68.698" stroke="#263238" stroke-linecap="round" stroke-linejoin="round"/>
<path d="M38.1292 60.856C40.553 62.2564 42.4622 64.333 43.596 66.802" stroke="#263238" stroke-linecap="round" stroke-linejoin="round"/>
<path d="M68.2251 49.06C68.2251 49.06 70.494 57.898 83.5258 58.102" stroke="#263238" stroke-linecap="round" stroke-linejoin="round"/>
<path d="M110.677 58.102C110.677 58.102 86.4456 80.566 69.2805 81.382" stroke="#263238" stroke-linecap="round" stroke-linejoin="round"/>
<path d="M55.6925 61.9C55.6925 61.9 59.0484 69.052 65.1725 71.674" stroke="#263238" stroke-linecap="round" stroke-linejoin="round"/>
<path d="M106.998 100C106.998 100 142.738 105.694 145.31 101.044C145.583 100.525 145.759 99.9646 145.828 99.388C146.669 93.778 141.543 82.714 141.543 82.714C137.568 82.354 133.397 83.314 130.06 84.514C127.729 85.2922 125.494 86.3122 123.399 87.556L123.664 88.108L123.753 88.282L115.404 88.534L107.934 88.762H107.763L106.998 100Z" fill="#926A2D"/>
<path d="M106.998 100C106.998 100 142.738 105.694 145.31 101.044C145.583 100.525 145.759 99.9646 145.828 99.388C146.669 93.778 141.543 82.714 141.543 82.714C137.568 82.354 133.397 83.314 130.06 84.514C127.729 85.2922 125.494 86.3122 123.399 87.556L123.664 88.108L123.753 88.282L115.404 88.534L107.934 88.762H107.763L106.998 100Z" stroke="#263238" stroke-linecap="round" stroke-linejoin="round"/>
<path d="M123.746 88.276C123.746 88.276 132.19 88.06 135.754 89.626" stroke="#263238" stroke-linecap="round" stroke-linejoin="round"/>
<path d="M96.1342 49.636C94.7792 51.6706 92.8712 53.32 90.6106 54.4096C88.3499 55.4998 85.8219 55.9894 83.292 55.828C75.9418 55.48 70.9174 50.188 70.9174 50.188C73.5592 48.154 73.951 43.234 73.7677 39.988C73.7677 39.91 73.7677 39.844 73.7677 39.772C73.7677 39.562 73.7361 39.352 73.7235 39.172C73.6072 37.7956 73.381 36.43 73.0473 35.086L95.0472 36.13C94.2395 38.1526 93.7541 40.2778 93.6062 42.436C93.55 43.381 93.6075 44.329 93.7769 45.262V45.352C94.3899 48.454 96.1342 49.636 96.1342 49.636Z" fill="#926A2D" stroke="#263238" stroke-miterlimit="10"/>
<path d="M46.9583 97.198V99.43C46.9583 99.7672 47.0992 100.091 47.3507 100.329C47.6023 100.568 47.9429 100.702 48.2981 100.702H119.12C119.475 100.702 119.816 100.568 120.067 100.329C120.319 100.091 120.46 99.7672 120.46 99.43V97.198H46.9583Z" fill="#757575" stroke="#263238" stroke-linecap="round" stroke-linejoin="round"/>
<path d="M129.156 64.36L120.049 96.712C119.942 97.0432 119.757 97.3474 119.511 97.603C119.264 97.858 118.96 98.0584 118.621 98.188C118.388 98.278 118.139 98.3248 117.888 98.326H49.5495C49.298 98.3248 49.0489 98.278 48.8164 98.188C48.4776 98.0584 48.1736 97.858 47.9265 97.603C47.68 97.3474 47.4955 97.0432 47.388 96.712L38.262 64.36C38.1893 64.1728 38.1665 63.9712 38.1962 63.7732C38.2259 63.5758 38.3075 63.388 38.4332 63.2278C38.5584 63.0676 38.7246 62.9392 38.9155 62.8552C39.1063 62.7712 39.3161 62.7334 39.526 62.746H127.911C128.12 62.737 128.327 62.7766 128.515 62.8618C128.704 62.9476 128.867 63.076 128.99 63.2356C129.113 63.3958 129.193 63.5818 129.222 63.778C129.251 63.9742 129.228 64.174 129.156 64.36Z" fill="#1E1E1E" stroke="#263238" stroke-miterlimit="10"/>
<path d="M88.3353 84.136C86.3129 84.136 84.676 82.984 84.676 81.568C84.6779 81.2458 84.7626 80.9284 84.9225 80.644C84.5225 80.5738 84.1161 80.5378 83.7091 80.536C80.8777 80.536 78.5772 82.15 78.5772 84.136C78.5772 86.122 80.8777 87.736 83.7091 87.736C86.5404 87.736 88.8409 86.128 88.8409 84.136C88.6766 84.124 88.506 84.136 88.3353 84.136Z" fill="#BFBFBF" stroke="#263238" stroke-miterlimit="10"/>
<path d="M95.0345 36.124C94.2268 38.1466 93.7415 40.2718 93.5936 42.43C91.2046 44.704 88.2784 46.39 85.0489 45.91C80.3784 45.214 76.4916 41.938 73.7108 39.166C73.5946 37.7896 73.3683 36.424 73.0346 35.08L95.0345 36.124Z" fill="#263238"/>
<path d="M99.5154 20.92C99.5154 20.92 101.291 19.09 102.163 19.69C102.752 20.1478 103.197 20.7502 103.448 21.4318C103.701 22.1134 103.75 22.8478 103.592 23.554C103.118 25.108 101.064 27.814 100.893 29.392C100.723 30.97 99.6671 32.764 98.4979 31.72C97.3287 30.676 99.5154 20.92 99.5154 20.92Z" fill="#926A2D" stroke="#263238" stroke-miterlimit="10"/>
<path d="M67.9028 20.92C67.9028 20.92 66.1268 19.09 65.2547 19.69C64.6663 20.1478 64.2213 20.7502 63.9698 21.4318C63.7176 22.1134 63.6683 22.8478 63.8263 23.554C64.3067 25.108 66.3543 27.814 66.525 29.392C66.6956 30.97 67.7511 32.764 68.9203 31.72C70.0895 30.676 67.9028 20.92 67.9028 20.92Z" fill="#926A2D" stroke="#263238" stroke-miterlimit="10"/>
<path d="M83.9657 1C106.275 1 100.973 29.2 96.8648 38.266C95.4238 41.452 87.9536 45.622 84.3385 45.622C80.9763 45.622 73.2912 40.636 71.9261 37.648C67.7738 28.546 62.6989 1 83.9657 1Z" fill="#926A2D" stroke="#263238" stroke-miterlimit="10"/>
<path d="M87.1155 22.27C87.1155 22.27 92.8035 21.274 94.6995 23.404" stroke="#263238" stroke-linecap="round" stroke-linejoin="round"/>
<path d="M91.4195 26.338C91.4195 26.992 91.0719 27.538 90.6421 27.538C90.2124 27.538 89.8647 27.01 89.8647 26.338C89.8647 25.666 90.2124 25.138 90.6421 25.138C91.0719 25.138 91.4195 25.69 91.4195 26.338Z" fill="#263238"/>
<path d="M80.3026 22.27C80.3026 22.27 75.057 21.826 72.7186 23.404" stroke="#263238" stroke-linecap="round" stroke-linejoin="round"/>
<path d="M75.9987 26.338C75.9987 26.992 76.3463 27.538 76.776 27.538C77.2058 27.538 77.5534 27.01 77.5534 26.338C77.5534 25.666 77.2058 25.138 76.776 25.138C76.3463 25.138 75.9987 25.69 75.9987 26.338Z" fill="#263238"/>
<path d="M85.0363 25.162C85.0363 25.162 85.3712 29.962 86.3572 31.81C87.3431 33.658 83.8987 33.952 82.4261 32.866" stroke="#263238" stroke-linecap="round" stroke-linejoin="round"/>
<path d="M79.4178 36.73C79.4178 37.462 81.9458 38.386 84.4738 38.386C87.0018 38.386 88.8599 37.39 88.487 37.024" stroke="#263238" stroke-linecap="round" stroke-linejoin="round"/>
<path d="M13.75 101.625C13.75 101.707 13.7338 101.788 13.7024 101.864C13.671 101.94 13.625 102.009 13.5669 102.067C13.5089 102.125 13.44 102.171 13.3642 102.202C13.2883 102.234 13.2071 102.25 13.125 102.25H0.625C0.5429 102.25 0.461599 102.234 0.385799 102.202C0.309999 102.171 0.241102 102.125 0.183102 102.067C0.125002 102.009 0.0789998 101.94 0.0475998 101.864C0.0161998 101.788 0 101.707 0 101.625V89.75C0 86.625 3.75 84.75 3.75 84.75H10C10 84.75 13.75 86.625 13.75 89.75V101.625Z" fill="#00A0FF"/>
<path d="M3.60001 82.25H9.85001V84.75H3.60001V82.25Z" fill="#00A0FF"/>
<path d="M3 80.375H10.5V82.875H3V80.375Z" fill="#F7931E"/>
<path d="M8.625 76H4.875C4.875 76 4.875 78.5 3 80.375H6.75C6.5858 80.375 6.4232 80.3426 6.2715 80.2797C6.1199 80.2168 5.9821 80.1247 5.866 80.0086C5.7499 79.8924 5.6578 79.7546 5.5951 79.6029C5.5323 79.4512 5.5 79.2886 5.5 79.1244C5.5 78.9602 5.5324 78.7976 5.5953 78.6459C5.6582 78.4943 5.7503 78.3564 5.8664 78.2404C5.9826 78.1243 6.1204 78.0322 6.2721 77.9694C6.4238 77.9066 6.5864 77.8743 6.7506 77.8744C7.0822 77.8745 7.4002 78.0063 7.6346 78.2408C7.8691 78.4753 8.0007 78.7934 8.0006 79.125C8.0005 79.4566 7.8687 79.7746 7.6342 80.009C7.3997 80.2434 7.0816 80.3751 6.75 80.375H10.5C8.625 78.5 8.625 76 8.625 76Z" fill="#1E1E1E"/>
<path d="M11.1506 96.2225C10.9587 96.3294 10.1188 96.7163 9.94249 96.7825C9.66129 96.8888 9.37249 96.9938 9.09249 97.0931C8.68369 97.2381 8.28809 97.25 7.81309 97.25C7.14439 97.25 6.52629 97.1069 5.95999 96.9506C5.77129 96.8994 5.58189 96.8419 5.38999 96.7844C4.79379 96.6056 4.17749 96.4206 3.53059 96.3625C3.19749 96.3344 2.82749 96.3725 2.39999 96.4638V97.7713L2.58939 97.695C2.92629 97.6156 3.19809 97.5856 3.41809 97.6075C3.93939 97.6538 4.46939 97.8131 5.03059 97.9819C5.23059 98.0419 5.43129 98.1013 5.62879 98.1563C6.28129 98.335 6.99689 98.5 7.81309 98.5C8.36809 98.5 8.91559 98.4825 9.51189 98.2713C9.79939 98.1681 10.0962 98.0606 10.3831 97.9525C10.6419 97.8458 10.8981 97.7326 11.1513 97.6131L11.1506 96.2225ZM9.94249 94.2825C9.66129 94.3888 9.37249 94.4938 9.09249 94.5931C8.68369 94.7381 8.28809 94.75 7.81309 94.75C7.14439 94.75 6.52629 94.6069 5.95999 94.4506C5.77129 94.3994 5.58189 94.3419 5.38999 94.2844C4.79379 94.1056 4.17749 93.9206 3.53059 93.8625C3.19749 93.8344 2.82749 93.8731 2.39999 93.9644V95.2713L2.58939 95.195C2.92629 95.1156 3.19809 95.085 3.41809 95.1075C3.93939 95.1538 4.46939 95.3131 5.03059 95.4819C5.23059 95.5419 5.43129 95.6013 5.62879 95.6563C6.28129 95.835 6.99689 96 7.81309 96C8.36809 96 8.91559 95.9825 9.51189 95.7713C9.79939 95.6681 10.0962 95.5606 10.3831 95.4525C10.6419 95.3458 10.8981 95.2326 11.1513 95.1131V93.7225C10.9588 93.8294 10.1188 94.2163 9.94249 94.2825ZM9.94249 91.7825C9.66129 91.8888 9.37249 91.9938 9.09249 92.0931C8.68369 92.2381 8.28809 92.25 7.81309 92.25C7.14439 92.25 6.52629 92.1069 5.95999 91.9506C5.77129 91.8994 5.58189 91.8419 5.38999 91.7844C4.79379 91.6056 4.17749 91.4206 3.53059 91.3625C3.19749 91.3344 2.82749 91.3725 2.39999 91.4638V92.7713L2.58939 92.695C2.92629 92.6156 3.19809 92.585 3.41809 92.6075C3.93939 92.6538 4.46939 92.8131 5.03059 92.9819C5.23059 93.0419 5.43129 93.1013 5.62879 93.1563C6.28129 93.335 6.99689 93.5 7.81309 93.5C8.36809 93.5 8.91559 93.4825 9.51189 93.2713C9.79939 93.1681 10.0962 93.0606 10.3831 92.9525C10.6419 92.8458 10.8981 92.7326 11.1513 92.6131V91.2225C10.9588 91.3294 10.1188 91.7163 9.94249 91.7825Z" fill="white"/>
</svg>
